<svg width="355" height="118" viewBox="0 0 355 118" fill="none" xmlns="http://www.w3.org/2000/svg">
<path d="M78.875 6.92188H343.875" stroke="#606060" stroke-width="1.01675"/>
<path d="M78.875 36.9219H343.875" stroke="#606060" stroke-width="1.01675"/>
<path d="M78.875 66.9219H343.875" stroke="#606060" stroke-width="1.01675"/>
<path d="M78.875 96.9219H343.875" stroke="#606060" stroke-width="1.01675"/>
<path d="M82.8281 96.3262V23.1199C82.8281 21.9968 83.7386 21.0864 84.8616 21.0864H101.13C102.253 21.0864 103.163 21.9968 103.163 23.1199V96.3262H82.8281Z" fill="#EC7807"/>
<path d="M123.164 96.3262L123.164 2.78481C123.164 1.66174 124.074 0.751305 125.198 0.751305H141.466C142.589 0.751305 143.499 1.66174 143.499 2.78481V96.3262H123.164Z" fill="#EC7807"/>
<path d="M163.496 96.3262V6.85183C163.496 5.72875 164.407 4.81832 165.53 4.81832H181.798C182.921 4.81832 183.831 5.72875 183.831 6.85183V96.3262H163.496Z" fill="#EC7807"/>
<path d="M203.832 96.3262V12.9523C203.832 11.8293 204.742 10.9188 205.866 10.9188H222.134C223.257 10.9188 224.167 11.8293 224.167 12.9523V96.3262H203.832Z" fill="#EC7807"/>
<path d="M244.168 96.3262V42.4382C244.168 41.3151 245.078 40.4047 246.201 40.4047H262.47C263.593 40.4047 264.503 41.3151 264.503 42.4382V96.3262H244.168Z" fill="#EC7807"/>
<path d="M284.504 96.3262V27.1869C284.504 26.0638 285.414 25.1534 286.537 25.1534H302.805C303.929 25.1534 304.839 26.0638 304.839 27.1869V96.3262H284.504Z" fill="#EC7807"/>
<path d="M324.836 96.3262V57.6895C324.836 56.5664 325.746 55.656 326.869 55.656H343.138C344.261 55.656 345.171 56.5664 345.171 57.6895V96.3262H324.836Z" fill="#EC7807"/>
<path d="M37.0019 20.0323L41.2419 15.6003C41.5406 15.2803 41.7806 14.9976 41.9619 14.7523C42.1539 14.4963 42.2926 14.2563 42.3779 14.0323C42.4633 13.7976 42.5059 13.5629 42.5059 13.3283C42.5059 12.8589 42.3513 12.4909 42.0419 12.2243C41.7433 11.9576 41.3539 11.8243 40.8739 11.8243C40.3833 11.8243 39.9459 11.9523 39.5619 12.2083C39.1886 12.4643 38.8366 12.8696 38.5059 13.4243L37.0179 12.1603C37.4659 11.4029 38.0206 10.8323 38.6819 10.4483C39.3539 10.0536 40.1219 9.85627 40.9859 9.85627C41.7219 9.85627 42.3619 10.0003 42.9059 10.2883C43.4606 10.5763 43.8873 10.9763 44.1859 11.4883C44.4846 12.0003 44.6339 12.5976 44.6339 13.2803C44.6339 13.7389 44.5753 14.1549 44.4579 14.5283C44.3513 14.9016 44.1646 15.2749 43.8979 15.6483C43.6419 16.0109 43.2846 16.4216 42.8259 16.8803L39.7379 20.0323H37.0019ZM37.0019 21.2803V20.0323L38.8579 19.3923H44.8739V21.2803H37.0019ZM51.5577 21.2803V16.8483C51.5577 16.3896 51.4137 16.0163 51.1257 15.7283C50.8377 15.4403 50.4644 15.2963 50.0057 15.2963C49.707 15.2963 49.4404 15.3603 49.2057 15.4883C48.971 15.6163 48.7844 15.7976 48.6457 16.0323C48.5177 16.2669 48.4537 16.5389 48.4537 16.8483L47.6377 16.4323C47.6377 15.8243 47.7657 15.2963 48.0217 14.8483C48.2777 14.3896 48.6297 14.0323 49.0777 13.7763C49.5364 13.5203 50.059 13.3923 50.6457 13.3923C51.2324 13.3923 51.7497 13.5203 52.1977 13.7763C52.6564 14.0323 53.0137 14.3843 53.2697 14.8323C53.5257 15.2803 53.6537 15.7976 53.6537 16.3843V21.2803H51.5577ZM46.3577 21.2803V9.71227H48.4537V21.2803H46.3577ZM55.3421 21.2803V13.5523H57.4381V21.2803H55.3421ZM57.4381 17.0083L56.6221 16.4643C56.7181 15.5149 56.9954 14.7683 57.4541 14.2243C57.9127 13.6696 58.5741 13.3923 59.4381 13.3923C59.8114 13.3923 60.1474 13.4563 60.4461 13.5843C60.7447 13.7016 61.0167 13.8989 61.2621 14.1763L59.9501 15.6803C59.8327 15.5523 59.6887 15.4563 59.5181 15.3923C59.3581 15.3283 59.1714 15.2963 58.9581 15.2963C58.5101 15.2963 58.1421 15.4403 57.8541 15.7283C57.5767 16.0056 57.4381 16.4323 57.4381 17.0083ZM64.4824 21.4563C64.0451 21.4563 63.6131 21.3976 63.1864 21.2803C62.7704 21.1629 62.3864 21.0029 62.0344 20.8003C61.6824 20.5869 61.3784 20.3309 61.1224 20.0323L62.3704 18.7683C62.6371 19.0669 62.9464 19.2909 63.2984 19.4403C63.6504 19.5896 64.0398 19.6643 64.4664 19.6643C64.8078 19.6643 65.0638 19.6163 65.2344 19.5203C65.4158 19.4243 65.5064 19.2803 65.5064 19.0883C65.5064 18.8749 65.4104 18.7096 65.2184 18.5923C65.0371 18.4749 64.7971 18.3789 64.4984 18.3043C64.1998 18.2189 63.8851 18.1283 63.5544 18.0323C63.2344 17.9256 62.9251 17.7923 62.6264 17.6323C62.3278 17.4616 62.0824 17.2323 61.8904 16.9443C61.7091 16.6456 61.6184 16.2616 61.6184 15.7923C61.6184 15.3016 61.7358 14.8749 61.9704 14.5123C62.2158 14.1496 62.5624 13.8669 63.0104 13.6643C63.4584 13.4616 63.9864 13.3603 64.5944 13.3603C65.2344 13.3603 65.8104 13.4723 66.3224 13.6963C66.8451 13.9203 67.2771 14.2563 67.6184 14.7043L66.3544 15.9683C66.1198 15.6803 65.8531 15.4723 65.5544 15.3443C65.2664 15.2163 64.9518 15.1523 64.6104 15.1523C64.3011 15.1523 64.0611 15.2003 63.8904 15.2963C63.7304 15.3923 63.6504 15.5256 63.6504 15.6963C63.6504 15.8883 63.7411 16.0376 63.9224 16.1443C64.1144 16.2509 64.3598 16.3469 64.6584 16.4323C64.9571 16.5069 65.2664 16.5976 65.5864 16.7043C65.9171 16.8003 66.2264 16.9389 66.5144 17.1203C66.8131 17.3016 67.0531 17.5416 67.2344 17.8403C67.4264 18.1389 67.5224 18.5229 67.5224 18.9923C67.5224 19.7496 67.2504 20.3523 66.7064 20.8003C66.1624 21.2376 65.4211 21.4563 64.4824 21.4563Z" fill="#EC7807"/>
<path d="M3.16194 49.2803V38.0323H5.30594V49.2803H3.16194ZM0.953938 39.9203V38.0323H5.14594V39.9203H0.953938ZM12.5889 49.2803V44.8483C12.5889 44.3896 12.4449 44.0163 12.1569 43.7283C11.8689 43.4403 11.4956 43.2963 11.0369 43.2963C10.7383 43.2963 10.4716 43.3603 10.2369 43.4883C10.0023 43.6163 9.8156 43.7976 9.67694 44.0323C9.54894 44.2669 9.48494 44.5389 9.48494 44.8483L8.66894 44.4323C8.66894 43.8243 8.79694 43.2963 9.05294 42.8483C9.30894 42.3896 9.66094 42.0323 10.1089 41.7763C10.5676 41.5203 11.0903 41.3923 11.6769 41.3923C12.2636 41.3923 12.7809 41.5203 13.2289 41.7763C13.6876 42.0323 14.0449 42.3843 14.3009 42.8323C14.5569 43.2803 14.6849 43.7976 14.6849 44.3843V49.2803H12.5889ZM7.38894 49.2803V37.7123H9.48494V49.2803H7.38894ZM16.3733 49.2803V41.5523H18.4693V49.2803H16.3733ZM18.4693 45.0083L17.6533 44.4643C17.7493 43.5149 18.0266 42.7683 18.4853 42.2243C18.944 41.6696 19.6053 41.3923 20.4693 41.3923C20.8426 41.3923 21.1786 41.4563 21.4773 41.5843C21.776 41.7016 22.048 41.8989 22.2933 42.1763L20.9813 43.6803C20.864 43.5523 20.72 43.4563 20.5493 43.3923C20.3893 43.3283 20.2026 43.2963 19.9893 43.2963C19.5413 43.2963 19.1733 43.4403 18.8853 43.7283C18.608 44.0056 18.4693 44.4323 18.4693 45.0083ZM26.3668 49.4403C25.6095 49.4403 24.9161 49.3069 24.2868 49.0403C23.6575 48.7629 23.1295 48.3683 22.7028 47.8563L24.1428 46.4323C24.3561 46.7523 24.6601 47.0083 25.0548 47.2003C25.4495 47.3923 25.8761 47.4883 26.3348 47.4883C26.7615 47.4883 27.1295 47.4136 27.4388 47.2643C27.7481 47.1043 27.9881 46.8856 28.1588 46.6083C28.3401 46.3203 28.4308 45.9896 28.4308 45.6163C28.4308 45.2216 28.3401 44.8856 28.1588 44.6083C27.9881 44.3309 27.7375 44.1176 27.4068 43.9683C27.0761 43.8189 26.6815 43.7443 26.2228 43.7443C26.0201 43.7443 25.8121 43.7603 25.5988 43.7923C25.3855 43.8136 25.2041 43.8509 25.0548 43.9043L26.0148 42.6883C26.2815 42.6029 26.5428 42.5336 26.7988 42.4803C27.0655 42.4163 27.3108 42.3843 27.5348 42.3843C28.1108 42.3843 28.6281 42.5229 29.0868 42.8003C29.5561 43.0669 29.9241 43.4509 30.1908 43.9523C30.4681 44.4429 30.6068 45.0243 30.6068 45.6963C30.6068 46.4429 30.4308 47.0989 30.0788 47.6643C29.7268 48.2189 29.2308 48.6563 28.5908 48.9763C27.9615 49.2856 27.2201 49.4403 26.3668 49.4403ZM25.0548 43.9043V42.6563L27.9348 39.3123L30.4308 39.2803L27.4548 42.6883L25.0548 43.9043ZM23.3268 39.9203V38.0323H30.4308V39.2803L28.6548 39.9203H23.3268ZM36.4917 49.4403C35.6064 49.4403 34.8064 49.2003 34.0917 48.7203C33.377 48.2403 32.8064 47.5629 32.3797 46.6883C31.9637 45.8136 31.7557 44.7949 31.7557 43.6323C31.7557 42.4696 31.9637 41.4563 32.3797 40.5923C32.7957 39.7283 33.3557 39.0563 34.0597 38.5763C34.7744 38.0963 35.569 37.8563 36.4437 37.8563C37.3397 37.8563 38.1397 38.0963 38.8437 38.5763C39.5584 39.0563 40.1237 39.7336 40.5397 40.6083C40.9557 41.4723 41.1637 42.4909 41.1637 43.6643C41.1637 44.8269 40.9557 45.8456 40.5397 46.7203C40.1237 47.5843 39.5637 48.2563 38.8597 48.7363C38.1557 49.2056 37.3664 49.4403 36.4917 49.4403ZM36.4597 47.4723C36.9717 47.4723 37.4144 47.3283 37.7877 47.0403C38.161 46.7523 38.449 46.3256 38.6517 45.7603C38.865 45.1949 38.9717 44.4909 38.9717 43.6483C38.9717 42.8056 38.865 42.1016 38.6517 41.5363C38.449 40.9709 38.1557 40.5496 37.7717 40.2723C37.3984 39.9843 36.9557 39.8403 36.4437 39.8403C35.9424 39.8403 35.505 39.9843 35.1317 40.2723C34.7584 40.5496 34.465 40.9709 34.2517 41.5363C34.049 42.0909 33.9477 42.7896 33.9477 43.6323C33.9477 44.4856 34.049 45.1949 34.2517 45.7603C34.465 46.3256 34.7584 46.7523 35.1317 47.0403C35.505 47.3283 35.9477 47.4723 36.4597 47.4723ZM42.6702 49.2803V41.5523H44.7662V49.2803H42.6702ZM47.7102 49.2803V44.7203C47.7102 44.2723 47.5662 43.9256 47.2782 43.6803C47.0009 43.4243 46.6542 43.2963 46.2382 43.2963C45.9609 43.2963 45.7102 43.3549 45.4862 43.4723C45.2622 43.5789 45.0862 43.7389 44.9582 43.9523C44.8302 44.1656 44.7662 44.4216 44.7662 44.7203L43.9502 44.3203C43.9502 43.7229 44.0782 43.2056 44.3342 42.7683C44.6009 42.3309 44.9582 41.9949 45.4062 41.7603C45.8542 41.5149 46.3609 41.3923 46.9262 41.3923C47.4595 41.3923 47.9449 41.5149 48.3822 41.7603C48.8195 41.9949 49.1662 42.3309 49.4222 42.7683C49.6782 43.1949 49.8062 43.7123 49.8062 44.3203V49.2803H47.7102ZM52.7502 49.2803V44.7203C52.7502 44.2723 52.6062 43.9256 52.3182 43.6803C52.0409 43.4243 51.6942 43.2963 51.2782 43.2963C51.0115 43.2963 50.7609 43.3549 50.5262 43.4723C50.3022 43.5789 50.1262 43.7389 49.9982 43.9523C49.8702 44.1656 49.8062 44.4216 49.8062 44.7203L48.6062 44.4323C48.6489 43.8136 48.8142 43.2803 49.1022 42.8323C49.3902 42.3736 49.7689 42.0216 50.2382 41.7763C50.7075 41.5203 51.2302 41.3923 51.8062 41.3923C52.3822 41.3923 52.8995 41.5149 53.3582 41.7603C53.8169 41.9949 54.1795 42.3363 54.4462 42.7843C54.7129 43.2323 54.8462 43.7656 54.8462 44.3843V49.2803H52.7502ZM56.5452 49.2803V41.5523H58.6572V49.2803H56.5452ZM57.6012 40.3043C57.2599 40.3043 56.9772 40.1923 56.7532 39.9683C56.5292 39.7336 56.4172 39.4456 56.4172 39.1043C56.4172 38.7736 56.5292 38.4909 56.7532 38.2563C56.9772 38.0216 57.2599 37.9043 57.6012 37.9043C57.9532 37.9043 58.2359 38.0216 58.4492 38.2563C58.6732 38.4909 58.7852 38.7736 58.7852 39.1043C58.7852 39.4456 58.6732 39.7336 58.4492 39.9683C58.2359 40.1923 57.9532 40.3043 57.6012 40.3043ZM65.7139 49.2803V44.8483C65.7139 44.3896 65.5699 44.0163 65.2819 43.7283C64.9939 43.4403 64.6206 43.2963 64.1619 43.2963C63.8633 43.2963 63.5966 43.3603 63.3619 43.4883C63.1273 43.6163 62.9406 43.7976 62.8019 44.0323C62.6739 44.2669 62.6099 44.5389 62.6099 44.8483L61.7939 44.4323C61.7939 43.8243 61.9219 43.2963 62.1779 42.8483C62.4446 42.3896 62.8073 42.0323 63.2659 41.7763C63.7353 41.5203 64.2633 41.3923 64.8499 41.3923C65.4153 41.3923 65.9219 41.5363 66.3699 41.8243C66.8179 42.1016 67.1699 42.4696 67.4259 42.9283C67.6819 43.3763 67.8099 43.8616 67.8099 44.3843V49.2803H65.7139ZM60.5139 49.2803V41.5523H62.6099V49.2803H60.5139Z" fill="#EC7807"/>
<path d="M49.1619 77.2803V66.0323H51.3059V77.2803H49.1619ZM46.9539 67.9203V66.0323H51.1459V67.9203H46.9539ZM58.5889 77.2803V72.8483C58.5889 72.3896 58.4449 72.0163 58.1569 71.7283C57.8689 71.4403 57.4956 71.2963 57.0369 71.2963C56.7383 71.2963 56.4716 71.3603 56.2369 71.4883C56.0023 71.6163 55.8156 71.7976 55.6769 72.0323C55.5489 72.2669 55.4849 72.5389 55.4849 72.8483L54.6689 72.4323C54.6689 71.8243 54.7969 71.2963 55.0529 70.8483C55.3089 70.3896 55.6609 70.0323 56.1089 69.7763C56.5676 69.5203 57.0903 69.3923 57.6769 69.3923C58.2636 69.3923 58.7809 69.5203 59.2289 69.7763C59.6876 70.0323 60.0449 70.3843 60.3009 70.8323C60.5569 71.2803 60.6849 71.7976 60.6849 72.3843V77.2803H58.5889ZM53.3889 77.2803V65.7123H55.4849V77.2803H53.3889ZM62.3733 77.2803V69.5523H64.4693V77.2803H62.3733ZM64.4693 73.0083L63.6533 72.4643C63.7493 71.5149 64.0266 70.7683 64.4853 70.2243C64.944 69.6696 65.6053 69.3923 66.4693 69.3923C66.8426 69.3923 67.1786 69.4563 67.4773 69.5843C67.776 69.7016 68.048 69.8989 68.2933 70.1763L66.9813 71.6803C66.864 71.5523 66.72 71.4563 66.5493 71.3923C66.3893 71.3283 66.2026 71.2963 65.9893 71.2963C65.5413 71.2963 65.1733 71.4403 64.8853 71.7283C64.608 72.0056 64.4693 72.4323 64.4693 73.0083Z" fill="#EC7807"/>
<path d="M25.5699 105.44C24.8126 105.44 24.1193 105.307 23.4899 105.04C22.8606 104.763 22.3326 104.368 21.9059 103.856L23.3459 102.432C23.5593 102.752 23.8633 103.008 24.2579 103.2C24.6526 103.392 25.0793 103.488 25.5379 103.488C25.9646 103.488 26.3326 103.414 26.6419 103.264C26.9513 103.104 27.1913 102.886 27.3619 102.608C27.5433 102.32 27.6339 101.99 27.6339 101.616C27.6339 101.222 27.5433 100.886 27.3619 100.608C27.1913 100.331 26.9406 100.118 26.6099 99.9683C26.2793 99.8189 25.8846 99.7443 25.4259 99.7443C25.2233 99.7443 25.0153 99.7603 24.8019 99.7923C24.5886 99.8136 24.4073 99.8509 24.2579 99.9043L25.2179 98.6883C25.4846 98.6029 25.7459 98.5336 26.0019 98.4803C26.2686 98.4163 26.5139 98.3843 26.7379 98.3843C27.3139 98.3843 27.8313 98.5229 28.2899 98.8003C28.7593 99.0669 29.1273 99.4509 29.3939 99.9523C29.6713 100.443 29.8099 101.024 29.8099 101.696C29.8099 102.443 29.6339 103.099 29.2819 103.664C28.9299 104.219 28.4339 104.656 27.7939 104.976C27.1646 105.286 26.4233 105.44 25.5699 105.44ZM24.2579 99.9043V98.6563L27.1379 95.3123L29.6339 95.2803L26.6579 98.6883L24.2579 99.9043ZM22.5299 95.9203V94.0323H29.6339V95.2803L27.8579 95.9203H22.5299ZM35.6948 105.44C34.8095 105.44 34.0095 105.2 33.2948 104.72C32.5801 104.24 32.0095 103.563 31.5828 102.688C31.1668 101.814 30.9588 100.795 30.9588 99.6323C30.9588 98.4696 31.1668 97.4563 31.5828 96.5923C31.9988 95.7283 32.5588 95.0563 33.2628 94.5763C33.9775 94.0963 34.7721 93.8563 35.6468 93.8563C36.5428 93.8563 37.3428 94.0963 38.0468 94.5763C38.7615 95.0563 39.3268 95.7336 39.7428 96.6083C40.1588 97.4723 40.3668 98.4909 40.3668 99.6643C40.3668 100.827 40.1588 101.846 39.7428 102.72C39.3268 103.584 38.7668 104.256 38.0628 104.736C37.3588 105.206 36.5695 105.44 35.6948 105.44ZM35.6628 103.472C36.1748 103.472 36.6175 103.328 36.9908 103.04C37.3641 102.752 37.6521 102.326 37.8548 101.76C38.0681 101.195 38.1748 100.491 38.1748 99.6483C38.1748 98.8056 38.0681 98.1016 37.8548 97.5363C37.6521 96.9709 37.3588 96.5496 36.9748 96.2723C36.6015 95.9843 36.1588 95.8403 35.6468 95.8403C35.1455 95.8403 34.7081 95.9843 34.3348 96.2723C33.9615 96.5496 33.6681 96.9709 33.4548 97.5363C33.2521 98.0909 33.1508 98.7896 33.1508 99.6323C33.1508 100.486 33.2521 101.195 33.4548 101.76C33.6681 102.326 33.9615 102.752 34.3348 103.04C34.7081 103.328 35.1508 103.472 35.6628 103.472ZM41.8733 105.28V97.5523H43.9693V105.28H41.8733ZM46.9133 105.28V100.72C46.9133 100.272 46.7693 99.9256 46.4813 99.6803C46.204 99.4243 45.8573 99.2963 45.4413 99.2963C45.164 99.2963 44.9133 99.3549 44.6893 99.4723C44.4653 99.5789 44.2893 99.7389 44.1613 99.9523C44.0333 100.166 43.9693 100.422 43.9693 100.72L43.1533 100.32C43.1533 99.7229 43.2813 99.2056 43.5373 98.7683C43.804 98.3309 44.1613 97.9949 44.6093 97.7603C45.0573 97.5149 45.564 97.3923 46.1293 97.3923C46.6626 97.3923 47.148 97.5149 47.5853 97.7603C48.0226 97.9949 48.3693 98.3309 48.6253 98.7683C48.8813 99.1949 49.0093 99.7123 49.0093 100.32V105.28H46.9133ZM51.9533 105.28V100.72C51.9533 100.272 51.8093 99.9256 51.5213 99.6803C51.244 99.4243 50.8973 99.2963 50.4813 99.2963C50.2146 99.2963 49.964 99.3549 49.7293 99.4723C49.5053 99.5789 49.3293 99.7389 49.2013 99.9523C49.0733 100.166 49.0093 100.422 49.0093 100.72L47.8093 100.432C47.852 99.8136 48.0173 99.2803 48.3053 98.8323C48.5933 98.3736 48.972 98.0216 49.4413 97.7763C49.9106 97.5203 50.4333 97.3923 51.0093 97.3923C51.5853 97.3923 52.1026 97.5149 52.5613 97.7603C53.02 97.9949 53.3826 98.3363 53.6493 98.7843C53.916 99.2323 54.0493 99.7656 54.0493 100.384V105.28H51.9533ZM55.7483 105.28V97.5523H57.8603V105.28H55.7483ZM56.8043 96.3043C56.463 96.3043 56.1803 96.1923 55.9563 95.9683C55.7323 95.7336 55.6203 95.4456 55.6203 95.1043C55.6203 94.7736 55.7323 94.4909 55.9563 94.2563C56.1803 94.0216 56.463 93.9043 56.8043 93.9043C57.1563 93.9043 57.439 94.0216 57.6523 94.2563C57.8763 94.4909 57.9883 94.7736 57.9883 95.1043C57.9883 95.4456 57.8763 95.7336 57.6523 95.9683C57.439 96.1923 57.1563 96.3043 56.8043 96.3043ZM64.9171 105.28V100.848C64.9171 100.39 64.7731 100.016 64.4851 99.7283C64.1971 99.4403 63.8237 99.2963 63.3651 99.2963C63.0664 99.2963 62.7997 99.3603 62.5651 99.4883C62.3304 99.6163 62.1437 99.7976 62.0051 100.032C61.8771 100.267 61.8131 100.539 61.8131 100.848L60.9971 100.432C60.9971 99.8243 61.1251 99.2963 61.3811 98.8483C61.6477 98.3896 62.0104 98.0323 62.4691 97.7763C62.9384 97.5203 63.4664 97.3923 64.0531 97.3923C64.6184 97.3923 65.1251 97.5363 65.5731 97.8243C66.0211 98.1016 66.3731 98.4696 66.6291 98.9283C66.8851 99.3763 67.0131 99.8616 67.0131 100.384V105.28H64.9171ZM59.7171 105.28V97.5523H61.8131V105.28H59.7171Z" fill="#EC7807"/>
<path d="M86.3 117.042C85.644 117.042 85.084 116.922 84.62 116.682C84.156 116.442 83.744 116.094 83.384 115.638L84.152 114.87C84.416 115.238 84.72 115.518 85.064 115.71C85.408 115.894 85.832 115.986 86.336 115.986C86.832 115.986 87.228 115.878 87.524 115.662C87.828 115.446 87.98 115.15 87.98 114.774C87.98 114.462 87.908 114.21 87.764 114.018C87.62 113.826 87.424 113.67 87.176 113.55C86.936 113.422 86.672 113.31 86.384 113.214C86.096 113.11 85.808 113.002 85.52 112.89C85.232 112.77 84.968 112.626 84.728 112.458C84.488 112.282 84.292 112.054 84.14 111.774C83.996 111.494 83.924 111.142 83.924 110.718C83.924 110.246 84.036 109.846 84.26 109.518C84.492 109.182 84.804 108.926 85.196 108.75C85.596 108.566 86.044 108.474 86.54 108.474C87.084 108.474 87.572 108.582 88.004 108.798C88.436 109.006 88.788 109.282 89.06 109.626L88.292 110.394C88.044 110.106 87.776 109.89 87.488 109.746C87.208 109.602 86.884 109.53 86.516 109.53C86.068 109.53 85.712 109.63 85.448 109.83C85.184 110.022 85.052 110.294 85.052 110.646C85.052 110.926 85.124 111.154 85.268 111.33C85.42 111.498 85.616 111.642 85.856 111.762C86.096 111.882 86.36 111.994 86.648 112.098C86.944 112.194 87.236 112.302 87.524 112.422C87.812 112.542 88.076 112.694 88.316 112.878C88.556 113.062 88.748 113.302 88.892 113.598C89.044 113.886 89.12 114.25 89.12 114.69C89.12 115.426 88.864 116.002 88.352 116.418C87.848 116.834 87.164 117.042 86.3 117.042ZM92.7402 117.042C92.2763 117.042 91.8563 116.938 91.4803 116.73C91.1123 116.514 90.8243 116.218 90.6163 115.842C90.4083 115.466 90.3043 115.03 90.3043 114.534V111.222H91.3843V114.486C91.3843 114.798 91.4363 115.07 91.5403 115.302C91.6523 115.526 91.8123 115.698 92.0203 115.818C92.2283 115.938 92.4723 115.998 92.7523 115.998C93.1763 115.998 93.5083 115.866 93.7483 115.602C93.9883 115.33 94.1083 114.958 94.1083 114.486V111.222H95.1883V114.534C95.1883 115.03 95.0843 115.466 94.8763 115.842C94.6683 116.218 94.3803 116.514 94.0123 116.73C93.6523 116.938 93.2283 117.042 92.7402 117.042ZM100.668 116.922V113.598C100.668 113.166 100.532 112.81 100.26 112.53C99.9878 112.25 99.6358 112.11 99.2038 112.11C98.9158 112.11 98.6598 112.174 98.4358 112.302C98.2118 112.43 98.0358 112.606 97.9078 112.83C97.7798 113.054 97.7158 113.31 97.7158 113.598L97.2718 113.346C97.2718 112.914 97.3678 112.53 97.5598 112.194C97.7518 111.858 98.0198 111.594 98.3638 111.402C98.7078 111.202 99.0958 111.102 99.5278 111.102C99.9598 111.102 100.34 111.21 100.668 111.426C101.004 111.642 101.268 111.926 101.46 112.278C101.652 112.622 101.748 112.99 101.748 113.382V116.922H100.668ZM96.6357 116.922V111.222H97.7158V116.922H96.6357Z" fill="#EC7807"/>
<path d="M125.996 116.922V108.594H126.788L130.316 114.39H129.776L133.304 108.594H134.096V116.922H132.968V110.574L133.232 110.646L130.448 115.218H129.656L126.872 110.646L127.124 110.574V116.922H125.996ZM138.474 117.042C137.914 117.042 137.41 116.91 136.962 116.646C136.514 116.382 136.158 116.026 135.894 115.578C135.63 115.122 135.498 114.614 135.498 114.054C135.498 113.502 135.63 113.006 135.894 112.566C136.158 112.118 136.514 111.762 136.962 111.498C137.41 111.234 137.914 111.102 138.474 111.102C139.026 111.102 139.526 111.234 139.974 111.498C140.43 111.754 140.79 112.106 141.054 112.554C141.318 113.002 141.45 113.502 141.45 114.054C141.45 114.614 141.318 115.122 141.054 115.578C140.79 116.026 140.43 116.382 139.974 116.646C139.526 116.91 139.026 117.042 138.474 117.042ZM138.474 115.998C138.834 115.998 139.154 115.914 139.434 115.746C139.714 115.578 139.934 115.35 140.094 115.062C140.254 114.766 140.334 114.43 140.334 114.054C140.334 113.686 140.25 113.358 140.082 113.07C139.922 112.782 139.702 112.558 139.422 112.398C139.15 112.23 138.834 112.146 138.474 112.146C138.114 112.146 137.794 112.23 137.514 112.398C137.234 112.558 137.014 112.782 136.854 113.07C136.694 113.358 136.614 113.686 136.614 114.054C136.614 114.43 136.694 114.766 136.854 115.062C137.014 115.35 137.234 115.578 137.514 115.746C137.794 115.914 138.114 115.998 138.474 115.998ZM146.699 116.922V113.598C146.699 113.166 146.563 112.81 146.291 112.53C146.019 112.25 145.667 112.11 145.235 112.11C144.947 112.11 144.691 112.174 144.467 112.302C144.243 112.43 144.067 112.606 143.939 112.83C143.811 113.054 143.747 113.31 143.747 113.598L143.303 113.346C143.303 112.914 143.399 112.53 143.591 112.194C143.783 111.858 144.051 111.594 144.395 111.402C144.739 111.202 145.127 111.102 145.559 111.102C145.991 111.102 146.371 111.21 146.699 111.426C147.035 111.642 147.299 111.926 147.491 112.278C147.683 112.622 147.779 112.99 147.779 113.382V116.922H146.699ZM142.667 116.922V111.222H143.747V116.922H142.667Z" fill="#EC7807"/>
<path d="M171.192 116.922V108.834H172.32V116.922H171.192ZM168.36 109.626V108.594H175.14V109.626H168.36ZM177.412 117.042C176.948 117.042 176.528 116.938 176.152 116.73C175.784 116.514 175.496 116.218 175.288 115.842C175.08 115.466 174.976 115.03 174.976 114.534V111.222H176.056V114.486C176.056 114.798 176.108 115.07 176.212 115.302C176.324 115.526 176.484 115.698 176.692 115.818C176.9 115.938 177.144 115.998 177.424 115.998C177.848 115.998 178.18 115.866 178.42 115.602C178.66 115.33 178.78 114.958 178.78 114.486V111.222H179.86V114.534C179.86 115.03 179.756 115.466 179.548 115.842C179.34 116.218 179.052 116.514 178.684 116.73C178.324 116.938 177.9 117.042 177.412 117.042ZM183.948 117.042C183.38 117.042 182.868 116.914 182.412 116.658C181.956 116.394 181.596 116.038 181.332 115.59C181.068 115.142 180.936 114.634 180.936 114.066C180.936 113.506 181.064 113.002 181.32 112.554C181.584 112.106 181.936 111.754 182.376 111.498C182.824 111.234 183.324 111.102 183.876 111.102C184.404 111.102 184.868 111.222 185.268 111.462C185.676 111.702 185.992 112.034 186.216 112.458C186.448 112.882 186.564 113.362 186.564 113.898C186.564 113.978 186.56 114.066 186.552 114.162C186.544 114.25 186.528 114.354 186.504 114.474H181.692V113.574H185.928L185.532 113.922C185.532 113.538 185.464 113.214 185.328 112.95C185.192 112.678 185 112.47 184.752 112.326C184.504 112.174 184.204 112.098 183.852 112.098C183.484 112.098 183.16 112.178 182.88 112.338C182.6 112.498 182.384 112.722 182.232 113.01C182.08 113.298 182.004 113.638 182.004 114.03C182.004 114.43 182.084 114.782 182.244 115.086C182.404 115.382 182.632 115.614 182.928 115.782C183.224 115.942 183.564 116.022 183.948 116.022C184.268 116.022 184.56 115.966 184.824 115.854C185.096 115.742 185.328 115.574 185.52 115.35L186.216 116.058C185.944 116.378 185.608 116.622 185.208 116.79C184.816 116.958 184.396 117.042 183.948 117.042Z" fill="#EC7807"/>
<path d="M213.108 116.922L210.384 108.594H211.512L213.672 115.386H213.348L215.472 108.594H216.288L218.412 115.386H218.1L220.26 108.594H221.376L218.664 116.922H217.86L215.724 110.142H216.036L213.912 116.922H213.108ZM224.33 117.042C223.762 117.042 223.25 116.914 222.794 116.658C222.338 116.394 221.978 116.038 221.714 115.59C221.45 115.142 221.318 114.634 221.318 114.066C221.318 113.506 221.446 113.002 221.702 112.554C221.966 112.106 222.318 111.754 222.758 111.498C223.206 111.234 223.706 111.102 224.258 111.102C224.786 111.102 225.25 111.222 225.65 111.462C226.058 111.702 226.374 112.034 226.598 112.458C226.83 112.882 226.946 113.362 226.946 113.898C226.946 113.978 226.942 114.066 226.934 114.162C226.926 114.25 226.91 114.354 226.886 114.474H222.074V113.574H226.31L225.914 113.922C225.914 113.538 225.846 113.214 225.71 112.95C225.574 112.678 225.382 112.47 225.134 112.326C224.886 112.174 224.586 112.098 224.234 112.098C223.866 112.098 223.542 112.178 223.262 112.338C222.982 112.498 222.766 112.722 222.614 113.01C222.462 113.298 222.386 113.638 222.386 114.03C222.386 114.43 222.466 114.782 222.626 115.086C222.786 115.382 223.014 115.614 223.31 115.782C223.606 115.942 223.946 116.022 224.33 116.022C224.65 116.022 224.942 115.966 225.206 115.854C225.478 115.742 225.71 115.574 225.902 115.35L226.598 116.058C226.326 116.378 225.99 116.622 225.59 116.79C225.198 116.958 224.778 117.042 224.33 117.042ZM230.536 117.042C230.008 117.042 229.536 116.914 229.12 116.658C228.704 116.394 228.372 116.038 228.124 115.59C227.884 115.142 227.764 114.638 227.764 114.078C227.764 113.518 227.884 113.014 228.124 112.566C228.372 112.118 228.704 111.762 229.12 111.498C229.536 111.234 230.008 111.102 230.536 111.102C230.96 111.102 231.344 111.194 231.688 111.378C232.032 111.554 232.308 111.802 232.516 112.122C232.732 112.434 232.852 112.798 232.876 113.214V114.93C232.852 115.338 232.736 115.702 232.528 116.022C232.32 116.342 232.044 116.594 231.7 116.778C231.356 116.954 230.968 117.042 230.536 117.042ZM230.716 116.022C231.076 116.022 231.388 115.938 231.652 115.77C231.924 115.602 232.136 115.374 232.288 115.086C232.44 114.79 232.516 114.454 232.516 114.078C232.516 113.686 232.436 113.346 232.276 113.058C232.124 112.77 231.912 112.542 231.64 112.374C231.376 112.206 231.064 112.122 230.704 112.122C230.344 112.122 230.028 112.206 229.756 112.374C229.484 112.542 229.268 112.774 229.108 113.07C228.956 113.358 228.88 113.69 228.88 114.066C228.88 114.45 228.956 114.79 229.108 115.086C229.268 115.374 229.484 115.602 229.756 115.77C230.036 115.938 230.356 116.022 230.716 116.022ZM233.536 116.922H232.444V115.386L232.648 113.994L232.444 112.614V108.354H233.536V116.922Z" fill="#EC7807"/>
<path d="M254.192 116.922V108.834H255.32V116.922H254.192ZM251.36 109.626V108.594H258.14V109.626H251.36ZM263.324 116.922V113.598C263.324 113.166 263.188 112.81 262.916 112.53C262.644 112.25 262.292 112.11 261.86 112.11C261.572 112.11 261.316 112.174 261.092 112.302C260.868 112.43 260.692 112.606 260.564 112.83C260.436 113.054 260.372 113.31 260.372 113.598L259.928 113.346C259.928 112.914 260.024 112.53 260.216 112.194C260.408 111.858 260.676 111.594 261.02 111.402C261.364 111.202 261.752 111.102 262.184 111.102C262.616 111.102 262.996 111.198 263.324 111.39C263.66 111.582 263.924 111.85 264.116 112.194C264.308 112.538 264.404 112.934 264.404 113.382V116.922H263.324ZM259.292 116.922V108.354H260.372V116.922H259.292ZM268.158 117.042C267.694 117.042 267.274 116.938 266.898 116.73C266.53 116.514 266.242 116.218 266.034 115.842C265.826 115.466 265.722 115.03 265.722 114.534V111.222H266.802V114.486C266.802 114.798 266.854 115.07 266.958 115.302C267.07 115.526 267.23 115.698 267.438 115.818C267.646 115.938 267.89 115.998 268.17 115.998C268.594 115.998 268.926 115.866 269.166 115.602C269.406 115.33 269.526 114.958 269.526 114.486V111.222H270.606V114.534C270.606 115.03 270.502 115.466 270.294 115.842C270.086 116.218 269.798 116.514 269.43 116.73C269.07 116.938 268.646 117.042 268.158 117.042Z" fill="#EC7807"/>
<path d="M296.984 116.751V108.423H298.112V116.751H296.984ZM297.752 113.091V112.059H302.096V113.091H297.752ZM297.752 109.455V108.423H302.3V109.455H297.752ZM303.589 116.751V111.051H304.669V116.751H303.589ZM304.669 113.499L304.261 113.319C304.261 112.591 304.429 112.011 304.765 111.579C305.101 111.147 305.585 110.931 306.217 110.931C306.505 110.931 306.765 110.983 306.997 111.087C307.229 111.183 307.445 111.347 307.645 111.579L306.937 112.311C306.817 112.183 306.685 112.091 306.541 112.035C306.397 111.979 306.229 111.951 306.037 111.951C305.637 111.951 305.309 112.079 305.053 112.335C304.797 112.591 304.669 112.979 304.669 113.499ZM308.417 116.751V111.051H309.497V116.751H308.417ZM308.957 109.911C308.757 109.911 308.593 109.847 308.465 109.719C308.337 109.583 308.273 109.415 308.273 109.215C308.273 109.023 308.337 108.863 308.465 108.735C308.593 108.599 308.757 108.531 308.957 108.531C309.157 108.531 309.321 108.599 309.449 108.735C309.577 108.863 309.641 109.023 309.641 109.215C309.641 109.415 309.577 109.583 309.449 109.719C309.321 109.847 309.157 109.911 308.957 109.911Z" fill="#EC7807"/>
<path d="M338.3 117.042C337.644 117.042 337.084 116.922 336.62 116.682C336.156 116.442 335.744 116.094 335.384 115.638L336.152 114.87C336.416 115.238 336.72 115.518 337.064 115.71C337.408 115.894 337.832 115.986 338.336 115.986C338.832 115.986 339.228 115.878 339.524 115.662C339.828 115.446 339.98 115.15 339.98 114.774C339.98 114.462 339.908 114.21 339.764 114.018C339.62 113.826 339.424 113.67 339.176 113.55C338.936 113.422 338.672 113.31 338.384 113.214C338.096 113.11 337.808 113.002 337.52 112.89C337.232 112.77 336.968 112.626 336.728 112.458C336.488 112.282 336.292 112.054 336.14 111.774C335.996 111.494 335.924 111.142 335.924 110.718C335.924 110.246 336.036 109.846 336.26 109.518C336.492 109.182 336.804 108.926 337.196 108.75C337.596 108.566 338.044 108.474 338.54 108.474C339.084 108.474 339.572 108.582 340.004 108.798C340.436 109.006 340.788 109.282 341.06 109.626L340.292 110.394C340.044 110.106 339.776 109.89 339.488 109.746C339.208 109.602 338.884 109.53 338.516 109.53C338.068 109.53 337.712 109.63 337.448 109.83C337.184 110.022 337.052 110.294 337.052 110.646C337.052 110.926 337.124 111.154 337.268 111.33C337.42 111.498 337.616 111.642 337.856 111.762C338.096 111.882 338.36 111.994 338.648 112.098C338.944 112.194 339.236 112.302 339.524 112.422C339.812 112.542 340.076 112.694 340.316 112.878C340.556 113.062 340.748 113.302 340.892 113.598C341.044 113.886 341.12 114.25 341.12 114.69C341.12 115.426 340.864 116.002 340.352 116.418C339.848 116.834 339.164 117.042 338.3 117.042ZM344.79 117.042C344.27 117.042 343.798 116.914 343.374 116.658C342.95 116.394 342.614 116.038 342.366 115.59C342.126 115.142 342.006 114.638 342.006 114.078C342.006 113.518 342.126 113.014 342.366 112.566C342.614 112.118 342.946 111.762 343.362 111.498C343.786 111.234 344.262 111.102 344.79 111.102C345.222 111.102 345.606 111.194 345.942 111.378C346.286 111.554 346.562 111.802 346.77 112.122C346.978 112.434 347.094 112.798 347.118 113.214V114.93C347.094 115.338 346.978 115.702 346.77 116.022C346.57 116.342 346.298 116.594 345.954 116.778C345.618 116.954 345.23 117.042 344.79 117.042ZM344.97 116.022C345.506 116.022 345.938 115.842 346.266 115.482C346.594 115.114 346.758 114.646 346.758 114.078C346.758 113.686 346.682 113.346 346.53 113.058C346.386 112.762 346.178 112.534 345.906 112.374C345.634 112.206 345.318 112.122 344.958 112.122C344.598 112.122 344.278 112.206 343.998 112.374C343.726 112.542 343.51 112.774 343.35 113.07C343.198 113.358 343.122 113.69 343.122 114.066C343.122 114.45 343.198 114.79 343.35 115.086C343.51 115.374 343.73 115.602 344.01 115.77C344.29 115.938 344.61 116.022 344.97 116.022ZM346.686 116.922V115.386L346.89 113.994L346.686 112.614V111.222H347.778V116.922H346.686ZM350.203 116.922V108.834H351.283V116.922H350.203ZM348.799 112.206V111.222H352.687V112.206H348.799Z" fill="#EC7807"/>
</svg>
