<svg width="51" height="51" viewBox="0 0 51 51" fill="none" xmlns="http://www.w3.org/2000/svg">
<path d="M25.6823 40.411C27.149 40.3068 28.5962 40.0728 30.024 39.7089C31.7809 40.2355 33.6347 40.3552 35.4448 40.0589C35.5167 40.0496 35.589 40.044 35.6615 40.0423C36.3073 40.0423 37.1552 40.4131 38.3906 41.1943V39.911C38.3909 39.6874 38.4512 39.468 38.5652 39.2756C38.6791 39.0832 38.8426 38.9249 39.0385 38.8173C39.576 38.5193 40.076 38.1714 40.5323 37.7923C42.3323 36.286 43.349 34.2798 43.349 32.1548C43.3483 31.452 43.2365 30.7538 43.0177 30.086C43.5594 29.086 44.001 28.0318 44.324 26.9402C45.3656 28.4818 45.9281 30.2943 45.9323 32.1548C45.9323 35.0423 44.5698 37.7381 42.2135 39.7068C41.8194 40.0348 41.4054 40.3381 40.974 40.6152V43.6193C40.974 44.6527 39.7656 45.2443 38.9135 44.6318C38.1074 44.0365 37.2731 43.4803 36.4135 42.9652C36.1664 42.8199 35.9095 42.6918 35.6448 42.5818C34.9365 42.6874 34.2156 42.7409 33.4823 42.7423C30.5406 42.7423 27.8219 41.8714 25.6823 40.411ZM10.1281 34.3985C6.41146 31.2943 4.26562 27.0527 4.26562 22.5152C4.26562 13.236 13.1365 5.81934 23.9677 5.81934C34.799 5.81934 43.6719 13.236 43.6719 22.5152C43.6719 31.7943 34.799 39.2089 23.9677 39.2089C22.7497 39.2089 21.5497 39.1166 20.3677 38.9318C19.8573 39.0506 17.8177 40.2464 14.8781 42.3652C13.8156 43.1339 12.3031 42.3923 12.3031 41.0985V35.9735C11.5415 35.5025 10.8147 34.9775 10.1281 34.4027M20.4406 35.7735C20.5281 35.7735 20.6184 35.7804 20.7115 35.7943C21.7877 35.9728 22.8768 36.062 23.9677 36.061C33.1177 36.061 40.4406 29.9381 40.4406 22.5152C40.4406 15.0923 33.1177 8.97142 23.9677 8.97142C14.8219 8.97142 7.49479 15.0943 7.49479 22.5152C7.49479 26.1048 9.20521 29.4839 12.2302 32.0131C12.9941 32.6492 13.8247 33.2193 14.7219 33.7235C15.224 34.0048 15.5344 34.5256 15.5344 35.0881V38.0443C17.8594 36.5027 19.3885 35.7735 20.4385 35.7735" fill="#EC7807"/>
<path d="M15.9831 25.349C16.6737 25.349 17.3361 25.0746 17.8245 24.5862C18.3129 24.0978 18.5872 23.4355 18.5872 22.7448C18.5872 22.0541 18.3129 21.3917 17.8245 20.9034C17.3361 20.415 16.6737 20.1406 15.9831 20.1406C15.2924 20.1406 14.63 20.415 14.1416 20.9034C13.6533 21.3917 13.3789 22.0541 13.3789 22.7448C13.3789 23.4355 13.6533 24.0978 14.1416 24.5862C14.63 25.0746 15.2924 25.349 15.9831 25.349ZM24.4456 25.349C25.1362 25.349 25.7986 25.0746 26.287 24.5862C26.7754 24.0978 27.0497 23.4355 27.0497 22.7448C27.0497 22.0541 26.7754 21.3917 26.287 20.9034C25.7986 20.415 25.1362 20.1406 24.4456 20.1406C23.7549 20.1406 23.0925 20.415 22.6041 20.9034C22.1158 21.3917 21.8414 22.0541 21.8414 22.7448C21.8414 23.4355 22.1158 24.0978 22.6041 24.5862C23.0925 25.0746 23.7549 25.349 24.4456 25.349ZM32.9102 25.351C33.6008 25.351 34.2632 25.0767 34.7516 24.5883C35.24 24.0999 35.5143 23.4375 35.5143 22.7469C35.5143 22.0562 35.24 21.3938 34.7516 20.9055C34.2632 20.4171 33.6008 20.1427 32.9102 20.1427C32.2195 20.1427 31.5571 20.4171 31.0687 20.9055C30.5804 21.3938 30.306 22.0562 30.306 22.7469C30.306 23.4375 30.5804 24.0999 31.0687 24.5883C31.5571 25.0767 32.2195 25.351 32.9102 25.351Z" fill="#EC7807"/>
</svg>
