<svg width="30" height="30" viewBox="0 0 30 30" fill="none" xmlns="http://www.w3.org/2000/svg">
<g clip-path="url(#clip0_566_4444)">
<rect width="30" height="30" rx="5" fill="#EC7807"/>
<path fill-rule="evenodd" clip-rule="evenodd" d="M15.8844 19.6334C15.65 19.8678 15.3321 19.9994 15.0007 19.9994C14.6692 19.9994 14.3513 19.8678 14.1169 19.6334L7.04567 12.5622C6.92629 12.4469 6.83106 12.309 6.76555 12.1565C6.70003 12.0039 6.66555 11.8399 6.66411 11.6739C6.66267 11.508 6.69429 11.3434 6.75715 11.1898C6.82 11.0361 6.91281 10.8966 7.03018 10.7792C7.14755 10.6618 7.28711 10.569 7.44073 10.5062C7.59435 10.4433 7.75895 10.4117 7.92492 10.4131C8.0909 10.4146 8.25492 10.4491 8.40743 10.5146C8.55993 10.5801 8.69786 10.6753 8.81317 10.7947L15.0007 16.9822L21.1882 10.7947C21.4239 10.567 21.7397 10.441 22.0674 10.4439C22.3952 10.4467 22.7087 10.5782 22.9404 10.8099C23.1722 11.0417 23.3037 11.3552 23.3065 11.6829C23.3094 12.0107 23.1834 12.3264 22.9557 12.5622L15.8844 19.6334Z" fill="white"/>
</g>
<defs>
<clipPath id="clip0_566_4444">
<rect width="30" height="30" rx="5" fill="white"/>
</clipPath>
</defs>
</svg>
