<svg width="183" height="209" viewBox="0 0 183 209" fill="none" xmlns="http://www.w3.org/2000/svg">
<path d="M32.132 24.7266V7.78256H35.9V24.7266H32.132ZM42.62 24.7266V7.78256H46.412V24.7266H42.62ZM34.388 17.6466V14.3826H43.868V17.6466H34.388ZM55.0872 24.9906C53.8233 24.9906 52.6953 24.7346 51.7033 24.2226C50.7273 23.6946 49.9593 22.9666 49.3993 22.0386C48.8393 21.1106 48.5593 20.0626 48.5593 18.8946C48.5593 17.7266 48.8313 16.6866 49.3753 15.7746C49.9353 14.8466 50.6873 14.1186 51.6313 13.5906C52.5753 13.0626 53.6393 12.7986 54.8233 12.7986C55.9753 12.7986 56.9913 13.0466 57.8713 13.5426C58.7513 14.0386 59.4393 14.7266 59.9353 15.6066C60.4473 16.4866 60.7032 17.4946 60.7032 18.6306C60.7032 18.8386 60.6873 19.0626 60.6553 19.3026C60.6393 19.5266 60.5993 19.7906 60.5353 20.0946L50.4793 20.1186V17.5986L58.9753 17.5746L57.3913 18.6306C57.3753 17.9586 57.2713 17.4066 57.0793 16.9746C56.8873 16.5266 56.5993 16.1906 56.2153 15.9666C55.8473 15.7266 55.3913 15.6066 54.8473 15.6066C54.2713 15.6066 53.7673 15.7426 53.3353 16.0146C52.9193 16.2706 52.5913 16.6386 52.3513 17.1186C52.1273 17.5986 52.0153 18.1826 52.0153 18.8706C52.0153 19.5586 52.1353 20.1506 52.3753 20.6466C52.6313 21.1266 52.9833 21.5026 53.4313 21.7746C53.8953 22.0306 54.4393 22.1586 55.0633 22.1586C55.6393 22.1586 56.1593 22.0626 56.6233 21.8706C57.0873 21.6626 57.4953 21.3586 57.8473 20.9586L59.8633 22.9746C59.2873 23.6466 58.5913 24.1506 57.7753 24.4866C56.9593 24.8226 56.0633 24.9906 55.0872 24.9906ZM67.3477 24.9666C66.2757 24.9666 65.3157 24.7026 64.4677 24.1746C63.6357 23.6466 62.9717 22.9266 62.4757 22.0146C61.9957 21.1026 61.7557 20.0626 61.7557 18.8946C61.7557 17.7266 61.9957 16.6866 62.4757 15.7746C62.9717 14.8626 63.6357 14.1426 64.4677 13.6146C65.3157 13.0866 66.2757 12.8226 67.3477 12.8226C68.1317 12.8226 68.8357 12.9746 69.4597 13.2786C70.0997 13.5826 70.6197 14.0066 71.0197 14.5506C71.4197 15.0786 71.6437 15.6866 71.6917 16.3746V21.4146C71.6437 22.1026 71.4197 22.7186 71.0197 23.2626C70.6357 23.7906 70.1237 24.2066 69.4837 24.5106C68.8437 24.8146 68.1317 24.9666 67.3477 24.9666ZM68.0917 21.6546C68.8757 21.6546 69.5077 21.3986 69.9877 20.8866C70.4677 20.3586 70.7077 19.6946 70.7077 18.8946C70.7077 18.3506 70.5957 17.8706 70.3717 17.4546C70.1637 17.0386 69.8597 16.7186 69.4597 16.4946C69.0757 16.2546 68.6277 16.1346 68.1157 16.1346C67.6037 16.1346 67.1477 16.2546 66.7477 16.4946C66.3637 16.7186 66.0517 17.0386 65.8117 17.4546C65.5877 17.8706 65.4757 18.3506 65.4757 18.8946C65.4757 19.4226 65.5877 19.8946 65.8117 20.3106C66.0357 20.7266 66.3477 21.0546 66.7477 21.2946C67.1477 21.5346 67.5957 21.6546 68.0917 21.6546ZM70.5637 24.7266V21.5826L71.1157 18.7506L70.5637 15.9186V13.0626H74.1637V24.7266H70.5637ZM76.7491 24.7266V13.0626H80.4211V24.7266H76.7491ZM80.4211 18.3186L78.8851 17.1186C79.1891 15.7586 79.7011 14.7026 80.4211 13.9506C81.1411 13.1986 82.1411 12.8226 83.4211 12.8226C83.9811 12.8226 84.4691 12.9106 84.8851 13.0866C85.3171 13.2466 85.6931 13.5026 86.0131 13.8546L83.8291 16.6146C83.6691 16.4386 83.4691 16.3026 83.2291 16.2066C82.9891 16.1106 82.7171 16.0626 82.4131 16.0626C81.8051 16.0626 81.3171 16.2546 80.9491 16.6386C80.5971 17.0066 80.4211 17.5666 80.4211 18.3186ZM88.7645 24.7266V8.23856H92.4365V24.7266H88.7645ZM86.1245 16.1826V13.0626H95.0765V16.1826H86.1245ZM104.481 17.7426V14.9586H108.057C108.809 14.9586 109.385 14.7666 109.785 14.3826C110.201 13.9986 110.409 13.4786 110.409 12.8226C110.409 12.2146 110.209 11.7106 109.809 11.3106C109.409 10.9106 108.833 10.7106 108.081 10.7106H104.481V7.78256H108.513C109.633 7.78256 110.617 7.99856 111.465 8.43056C112.313 8.84656 112.977 9.43056 113.457 10.1826C113.937 10.9346 114.177 11.7986 114.177 12.7746C114.177 13.7666 113.937 14.6386 113.457 15.3906C112.977 16.1266 112.305 16.7026 111.441 17.1186C110.577 17.5346 109.561 17.7426 108.393 17.7426H104.481ZM101.601 24.7266V7.78256H105.369V24.7266H101.601ZM110.817 24.7266L105.537 17.4306L108.993 16.4946L115.281 24.7266H110.817ZM121.16 24.9666C120.088 24.9666 119.128 24.7026 118.28 24.1746C117.448 23.6466 116.784 22.9266 116.288 22.0146C115.808 21.1026 115.568 20.0626 115.568 18.8946C115.568 17.7266 115.808 16.6866 116.288 15.7746C116.784 14.8626 117.448 14.1426 118.28 13.6146C119.128 13.0866 120.088 12.8226 121.16 12.8226C121.944 12.8226 122.648 12.9746 123.272 13.2786C123.912 13.5826 124.432 14.0066 124.832 14.5506C125.232 15.0786 125.456 15.6866 125.504 16.3746V21.4146C125.456 22.1026 125.232 22.7186 124.832 23.2626C124.448 23.7906 123.936 24.2066 123.296 24.5106C122.656 24.8146 121.944 24.9666 121.16 24.9666ZM121.904 21.6546C122.688 21.6546 123.32 21.3986 123.8 20.8866C124.28 20.3586 124.52 19.6946 124.52 18.8946C124.52 18.3506 124.408 17.8706 124.184 17.4546C123.976 17.0386 123.672 16.7186 123.272 16.4946C122.888 16.2546 122.44 16.1346 121.928 16.1346C121.416 16.1346 120.96 16.2546 120.56 16.4946C120.176 16.7186 119.864 17.0386 119.624 17.4546C119.4 17.8706 119.288 18.3506 119.288 18.8946C119.288 19.4226 119.4 19.8946 119.624 20.3106C119.848 20.7266 120.16 21.0546 120.56 21.2946C120.96 21.5346 121.408 21.6546 121.904 21.6546ZM124.376 24.7266V21.5826L124.928 18.7506L124.376 15.9186V13.0626H127.976V24.7266H124.376ZM132.218 24.7266V8.23856H135.89V24.7266H132.218ZM129.578 16.1826V13.0626H138.53V16.1826H129.578ZM145.673 24.9906C144.409 24.9906 143.281 24.7346 142.289 24.2226C141.313 23.6946 140.545 22.9666 139.985 22.0386C139.425 21.1106 139.145 20.0626 139.145 18.8946C139.145 17.7266 139.417 16.6866 139.961 15.7746C140.521 14.8466 141.273 14.1186 142.217 13.5906C143.161 13.0626 144.225 12.7986 145.409 12.7986C146.561 12.7986 147.577 13.0466 148.457 13.5426C149.337 14.0386 150.025 14.7266 150.521 15.6066C151.033 16.4866 151.289 17.4946 151.289 18.6306C151.289 18.8386 151.273 19.0626 151.241 19.3026C151.225 19.5266 151.185 19.7906 151.121 20.0946L141.065 20.1186V17.5986L149.561 17.5746L147.977 18.6306C147.961 17.9586 147.857 17.4066 147.665 16.9746C147.473 16.5266 147.185 16.1906 146.801 15.9666C146.433 15.7266 145.977 15.6066 145.433 15.6066C144.857 15.6066 144.353 15.7426 143.921 16.0146C143.505 16.2706 143.177 16.6386 142.937 17.1186C142.713 17.5986 142.601 18.1826 142.601 18.8706C142.601 19.5586 142.721 20.1506 142.961 20.6466C143.217 21.1266 143.569 21.5026 144.017 21.7746C144.481 22.0306 145.025 22.1586 145.649 22.1586C146.225 22.1586 146.745 22.0626 147.209 21.8706C147.673 21.6626 148.081 21.3586 148.433 20.9586L150.449 22.9746C149.873 23.6466 149.177 24.1506 148.361 24.4866C147.545 24.8226 146.649 24.9906 145.673 24.9906Z" fill="white"/>
<path d="M113.221 113.938C112.357 113.938 111.573 113.762 110.869 113.41C110.181 113.042 109.629 112.538 109.213 111.898C108.797 111.258 108.565 110.53 108.517 109.714V106.282C108.565 105.45 108.797 104.722 109.213 104.098C109.645 103.458 110.205 102.962 110.893 102.61C111.597 102.242 112.373 102.058 113.221 102.058C114.261 102.058 115.197 102.322 116.029 102.85C116.877 103.378 117.541 104.09 118.021 104.986C118.501 105.882 118.741 106.89 118.741 108.01C118.741 109.13 118.501 110.138 118.021 111.034C117.541 111.93 116.877 112.642 116.029 113.17C115.197 113.682 114.261 113.938 113.221 113.938ZM107.221 113.698V96.5622H109.381V105.082L108.973 107.842L109.381 110.626V113.698H107.221ZM112.861 111.898C113.581 111.898 114.213 111.73 114.757 111.394C115.301 111.058 115.733 110.602 116.053 110.026C116.373 109.434 116.533 108.754 116.533 107.986C116.533 107.234 116.373 106.562 116.053 105.97C115.733 105.378 115.301 104.922 114.757 104.602C114.213 104.266 113.589 104.098 112.885 104.098C112.165 104.098 111.533 104.266 110.989 104.602C110.445 104.922 110.021 105.378 109.717 105.97C109.413 106.562 109.261 107.242 109.261 108.01C109.261 108.762 109.405 109.434 109.693 110.026C109.997 110.602 110.421 111.058 110.965 111.394C111.525 111.73 112.157 111.898 112.861 111.898ZM127.189 113.938C126.325 113.938 125.541 113.762 124.837 113.41C124.149 113.042 123.597 112.538 123.181 111.898C122.765 111.258 122.533 110.53 122.485 109.714V106.282C122.533 105.45 122.765 104.722 123.181 104.098C123.613 103.458 124.173 102.962 124.861 102.61C125.565 102.242 126.341 102.058 127.189 102.058C128.229 102.058 129.165 102.322 129.997 102.85C130.845 103.378 131.509 104.09 131.989 104.986C132.469 105.882 132.709 106.89 132.709 108.01C132.709 109.13 132.469 110.138 131.989 111.034C131.509 111.93 130.845 112.642 129.997 113.17C129.165 113.682 128.229 113.938 127.189 113.938ZM121.189 118.474V102.298H123.349V105.298L122.941 108.058L123.349 110.842V118.474H121.189ZM126.829 111.898C127.549 111.898 128.181 111.73 128.725 111.394C129.269 111.058 129.701 110.602 130.021 110.026C130.341 109.434 130.501 108.754 130.501 107.986C130.501 107.234 130.341 106.562 130.021 105.97C129.701 105.378 129.269 104.922 128.725 104.602C128.181 104.266 127.557 104.098 126.853 104.098C126.133 104.098 125.501 104.266 124.957 104.602C124.413 104.922 123.989 105.378 123.685 105.97C123.381 106.562 123.229 107.242 123.229 108.01C123.229 108.762 123.373 109.434 123.661 110.026C123.965 110.602 124.389 111.058 124.933 111.394C125.493 111.73 126.125 111.898 126.829 111.898ZM135.158 113.698V102.298H137.318V113.698H135.158ZM142.862 113.698V106.81C142.862 105.962 142.598 105.298 142.07 104.818C141.558 104.322 140.91 104.074 140.126 104.074C139.598 104.074 139.126 104.186 138.71 104.41C138.294 104.634 137.958 104.946 137.702 105.346C137.446 105.746 137.318 106.226 137.318 106.786L136.43 106.354C136.43 105.49 136.614 104.738 136.982 104.098C137.366 103.458 137.886 102.962 138.542 102.61C139.198 102.242 139.934 102.058 140.75 102.058C141.55 102.058 142.27 102.234 142.91 102.586C143.566 102.938 144.078 103.434 144.446 104.074C144.83 104.714 145.022 105.474 145.022 106.354V113.698H142.862ZM150.566 113.698V106.81C150.566 105.962 150.302 105.298 149.774 104.818C149.262 104.322 148.622 104.074 147.854 104.074C147.326 104.074 146.846 104.186 146.414 104.41C145.998 104.634 145.662 104.946 145.406 105.346C145.15 105.746 145.022 106.226 145.022 106.786L143.798 106.354C143.846 105.474 144.078 104.722 144.494 104.098C144.926 103.458 145.478 102.962 146.15 102.61C146.822 102.242 147.558 102.058 148.358 102.058C149.19 102.058 149.934 102.234 150.59 102.586C151.246 102.938 151.766 103.434 152.15 104.074C152.55 104.714 152.75 105.482 152.75 106.378V113.698H150.566Z" fill="white"/>
<path d="M61.0265 99.0193C61.0265 101.815 60.3698 104.156 59.0565 106.041C57.7432 107.927 55.9745 109.346 53.7504 110.299C51.5262 111.231 49.0479 111.697 46.3153 111.697C43.5405 111.697 41.0303 111.231 38.785 110.299C36.5609 109.346 34.7921 107.927 33.4788 106.041C32.1867 104.156 31.5406 101.815 31.5406 99.0193C31.5406 97.1977 31.9113 95.5348 32.6527 94.0309C33.4153 92.5269 34.4638 91.2348 35.7983 90.1545C37.1328 89.0742 38.6897 88.2375 40.469 87.6444C42.2483 87.0513 44.1759 86.7548 46.2518 86.7548C48.9843 86.7548 51.4627 87.2737 53.6868 88.3117C55.9321 89.3496 57.7115 90.79 59.0248 92.6329C60.3593 94.4545 61.0265 96.5834 61.0265 99.0193ZM59.279 99.1782C59.279 96.9541 58.6964 95.0265 57.5314 93.3954C56.3664 91.7644 54.7989 90.504 52.8289 89.6144C50.859 88.7035 48.6666 88.2481 46.2518 88.2481C43.8158 88.2481 41.6129 88.7035 39.6429 89.6144C37.6729 90.504 36.116 91.7644 34.9722 93.3954C33.8283 95.0265 33.2564 96.9541 33.2564 99.1782C33.2564 101.508 33.8283 103.478 34.9722 105.088C36.116 106.698 37.6729 107.916 39.6429 108.742C41.634 109.568 43.8582 109.981 46.3153 109.981C48.7301 109.981 50.9119 109.568 52.8607 108.742C54.8307 107.916 56.3876 106.698 57.5314 105.088C58.6964 103.478 59.279 101.508 59.279 99.1782ZM59.692 76.5554C59.692 78.822 59.0883 80.8237 57.8809 82.5606C56.6735 84.2976 55.0531 85.6533 53.0196 86.6277C51.0072 87.602 48.7513 88.0892 46.2518 88.0892C43.7099 88.0892 41.4222 87.602 39.3887 86.6277C37.3764 85.6533 35.7771 84.2976 34.5909 82.5606C33.4259 80.8237 32.8434 78.822 32.8434 76.5554C32.8434 73.8653 33.4259 71.6094 34.5909 69.7877C35.7771 67.9448 37.3764 66.5468 39.3887 65.5936C41.401 64.6404 43.6675 64.1637 46.1882 64.1637C48.6878 64.1637 50.9543 64.6404 52.9878 65.5936C55.0213 66.5468 56.6417 67.9448 57.8491 69.7877C59.0777 71.6094 59.692 73.8653 59.692 76.5554ZM57.9762 76.3966C57.9762 74.3419 57.4467 72.5308 56.3876 70.9633C55.3284 69.3746 53.9092 68.1354 52.1299 67.2458C50.3506 66.3349 48.37 65.8795 46.1882 65.8795C43.9853 65.8795 42.0047 66.3032 40.2466 67.1505C38.4885 67.9978 37.101 69.2052 36.0843 70.7726C35.0675 72.3401 34.5591 74.2148 34.5591 76.3966C34.5591 78.4936 35.0675 80.3047 36.0843 81.8298C37.101 83.3338 38.4885 84.4988 40.2466 85.3249C42.0259 86.1299 44.0276 86.5323 46.2518 86.5323C48.4336 86.5323 50.4035 86.1299 52.1617 85.3249C53.941 84.4988 55.3496 83.3338 56.3876 81.8298C57.4467 80.3047 57.9762 78.4936 57.9762 76.3966ZM73.5453 109.981H74.562C77.8877 109.981 80.7579 109.483 83.1727 108.488C85.6086 107.471 87.6104 106.02 89.1779 104.135C90.7666 102.25 91.9422 99.9726 92.7047 97.3036C93.4673 94.6134 93.8486 91.5949 93.8486 88.2481V82.4018C93.8486 79.6481 93.552 77.2439 92.9589 75.1892C92.387 73.1133 91.5503 71.3869 90.4488 70.0101C89.3473 68.6332 88.0023 67.6059 86.4136 66.928C84.8249 66.229 83.0244 65.8795 81.0121 65.8795C79.1692 65.8795 77.5064 66.2926 76.0236 67.1187C74.5409 67.9236 73.2805 69.0357 72.2426 70.4549C71.2046 71.853 70.3997 73.431 69.8278 75.1892C69.277 76.9261 69.0017 78.7372 69.0017 80.6225C69.0017 82.4018 69.2559 84.1175 69.7642 85.7698C70.2938 87.422 71.0564 88.9048 72.0519 90.2181C73.0687 91.5314 74.2867 92.5693 75.7059 93.3319C77.1463 94.0944 78.7879 94.4757 80.6308 94.4757C82.9608 94.4757 84.9732 94.0415 86.6678 93.173C88.3835 92.3045 89.7922 91.203 90.8936 89.8686C92.0163 88.5341 92.853 87.136 93.4038 85.6744C93.9545 84.2129 94.2299 82.8784 94.2299 81.671L95.2466 81.6074C95.2466 83.7257 94.8759 85.6744 94.1345 87.4538C93.3932 89.2331 92.3552 90.7794 91.0207 92.0927C89.6863 93.3848 88.1293 94.391 86.35 95.1112C84.5919 95.8314 82.6855 96.1915 80.6308 96.1915C78.5973 96.1915 76.7544 95.7784 75.1022 94.9523C73.4711 94.1262 72.0731 92.993 70.9081 91.5526C69.743 90.091 68.8428 88.4282 68.2073 86.5641C67.593 84.7001 67.2859 82.7195 67.2859 80.6225C67.2859 78.3771 67.6036 76.2695 68.2391 74.2995C68.8958 72.3084 69.8172 70.5608 71.0034 69.0569C72.2108 67.5317 73.6512 66.3349 75.3246 65.4665C76.998 64.598 78.8515 64.1637 80.885 64.1637C83.1939 64.1637 85.2591 64.545 87.0808 65.3076C88.9025 66.049 90.4382 67.1822 91.688 68.7074C92.9589 70.2113 93.9227 72.1071 94.5794 74.3948C95.236 76.6613 95.5644 79.3197 95.5644 82.37V87.5491C95.5644 90.6205 95.289 93.4272 94.7382 95.9691C94.1875 98.4898 93.3614 100.735 92.2599 102.705C91.1584 104.654 89.771 106.295 88.0976 107.63C86.4242 108.964 84.4542 109.981 82.1877 110.68C79.9424 111.358 77.4005 111.697 74.562 111.697H73.4817L73.5453 109.981Z" fill="white"/>
<path d="M-0.0078125 185.901H19.2661L23.138 177.813L28.5158 193.645L35.8295 147.396L43.1433 208.273L47.4025 185.901H53.9418L60.094 171.274L67.0635 187.837L71.2797 180.911L74.3773 185.901H112.108L115.205 177.813L119.034 193.645L127.509 147.396L135.21 208.273L139.47 187.837H145.235L152.161 171.274L157.969 187.837L161.024 180.911L164.508 185.901H183.008" stroke="#EC7807" stroke-width="2.03351"/>
</svg>
