<svg width="447" height="224" viewBox="0 0 447 224" fill="none" xmlns="http://www.w3.org/2000/svg">
<mask id="path-1-inside-1_566_4405" fill="white">
<path d="M447 223.5C447 194.15 441.219 165.087 429.987 137.97C418.755 110.854 402.292 86.2155 381.538 65.4616C360.784 44.7077 336.146 28.2448 309.03 17.0129C281.913 5.781 252.85 -1.28295e-06 223.5 0C194.15 1.28295e-06 165.087 5.781 137.97 17.0129C110.854 28.2449 86.2155 44.7077 65.4616 65.4616C44.7077 86.2155 28.2448 110.854 17.0129 137.97C5.78099 165.087 -2.5659e-06 194.15 0 223.5L223.5 223.5H447Z"/>
</mask>
<path d="M447 223.5C447 194.15 441.219 165.087 429.987 137.97C418.755 110.854 402.292 86.2155 381.538 65.4616C360.784 44.7077 336.146 28.2448 309.03 17.0129C281.913 5.781 252.85 -1.28295e-06 223.5 0C194.15 1.28295e-06 165.087 5.781 137.97 17.0129C110.854 28.2449 86.2155 44.7077 65.4616 65.4616C44.7077 86.2155 28.2448 110.854 17.0129 137.97C5.78099 165.087 -2.5659e-06 194.15 0 223.5L223.5 223.5H447Z" stroke="#EC7807" stroke-width="2" mask="url(#path-1-inside-1_566_4405)"/>
<path d="M424 222C424 195.736 418.827 169.728 408.776 145.463C398.725 121.198 383.993 99.1504 365.421 80.5786C346.85 62.0069 324.802 47.275 300.537 37.2241C276.272 27.1732 250.264 22 224 22C197.736 22 171.728 27.1732 147.463 37.2241C123.198 47.275 101.15 62.0069 82.5786 80.5787C64.0069 99.1504 49.275 121.198 39.2241 145.463C29.1731 169.728 24 195.736 24 222L224 222H424Z" fill="url(#paint0_linear_566_4405)"/>
<defs>
<linearGradient id="paint0_linear_566_4405" x1="224" y1="22" x2="224" y2="222" gradientUnits="userSpaceOnUse">
<stop stop-color="#EC7807"/>
<stop offset="0.45" stop-color="#412000"/>
</linearGradient>
</defs>
</svg>
