<svg width="311" height="139" viewBox="0 0 311 139" fill="none" xmlns="http://www.w3.org/2000/svg">
<path d="M46.9607 40.5332V37.2092C46.9607 36.7772 46.8247 36.4212 46.5527 36.1412C46.2807 35.8612 45.9287 35.7212 45.4967 35.7212C45.2087 35.7212 44.9527 35.7852 44.7287 35.9132C44.5047 36.0412 44.3287 36.2172 44.2007 36.4412C44.0727 36.6652 44.0087 36.9212 44.0087 37.2092L43.5647 36.9572C43.5647 36.5252 43.6607 36.1412 43.8527 35.8052C44.0447 35.4692 44.3127 35.2052 44.6567 35.0132C45.0007 34.8132 45.3887 34.7132 45.8207 34.7132C46.2527 34.7132 46.6327 34.8092 46.9607 35.0012C47.2967 35.1932 47.5607 35.4612 47.7527 35.8052C47.9447 36.1492 48.0407 36.5452 48.0407 36.9932V40.5332H46.9607ZM42.9287 40.5332V31.9652H44.0087V40.5332H42.9287ZM49.5029 40.5332V34.8332H50.5829V40.5332H49.5029ZM50.5829 37.2812L50.1749 37.1012C50.1749 36.3732 50.3429 35.7932 50.6789 35.3612C51.0149 34.9292 51.4989 34.7132 52.1309 34.7132C52.4189 34.7132 52.6789 34.7652 52.9109 34.8692C53.1429 34.9652 53.3589 35.1292 53.5589 35.3612L52.8509 36.0932C52.7309 35.9652 52.5989 35.8732 52.4549 35.8172C52.3109 35.7612 52.1429 35.7332 51.9509 35.7332C51.5509 35.7332 51.2229 35.8612 50.9669 36.1172C50.7109 36.3732 50.5829 36.7612 50.5829 37.2812ZM56.0024 40.6532C55.6824 40.6532 55.3784 40.6132 55.0904 40.5332C54.8104 40.4452 54.5504 40.3252 54.3104 40.1732C54.0704 40.0132 53.8624 39.8252 53.6864 39.6092L54.3824 38.9132C54.5904 39.1692 54.8304 39.3612 55.1024 39.4892C55.3744 39.6092 55.6784 39.6692 56.0144 39.6692C56.3504 39.6692 56.6104 39.6132 56.7944 39.5012C56.9784 39.3812 57.0704 39.2172 57.0704 39.0092C57.0704 38.8012 56.9944 38.6412 56.8424 38.5292C56.6984 38.4092 56.5104 38.3132 56.2784 38.2412C56.0464 38.1612 55.7984 38.0852 55.5344 38.0132C55.2784 37.9332 55.0344 37.8332 54.8024 37.7132C54.5704 37.5932 54.3784 37.4292 54.2264 37.2212C54.0824 37.0132 54.0104 36.7372 54.0104 36.3932C54.0104 36.0492 54.0944 35.7532 54.2624 35.5052C54.4304 35.2492 54.6624 35.0532 54.9584 34.9172C55.2624 34.7812 55.6264 34.7132 56.0504 34.7132C56.4984 34.7132 56.8944 34.7932 57.2384 34.9532C57.5904 35.1052 57.8784 35.3372 58.1024 35.6492L57.4064 36.3452C57.2464 36.1372 57.0464 35.9772 56.8064 35.8652C56.5744 35.7532 56.3104 35.6972 56.0144 35.6972C55.7024 35.6972 55.4624 35.7532 55.2944 35.8652C55.1344 35.9692 55.0544 36.1172 55.0544 36.3092C55.0544 36.5012 55.1264 36.6492 55.2704 36.7532C55.4144 36.8572 55.6024 36.9452 55.8344 37.0172C56.0744 37.0892 56.3224 37.1652 56.5784 37.2452C56.8344 37.3172 57.0784 37.4172 57.3104 37.5452C57.5424 37.6732 57.7304 37.8452 57.8744 38.0612C58.0264 38.2772 58.1024 38.5612 58.1024 38.9132C58.1024 39.4492 57.9104 39.8732 57.5264 40.1852C57.1504 40.4972 56.6424 40.6532 56.0024 40.6532Z" fill="#606060"/>
<path d="M25.6836 40.4645C23.8436 40.4645 22.2169 40.1178 20.8036 39.4245C19.4169 38.7311 18.3369 37.7711 17.5636 36.5445C16.7903 35.3178 16.4036 33.9311 16.4036 32.3845C16.4036 31.1311 16.6436 29.9845 17.1236 28.9445C17.6036 27.9045 18.3103 27.0245 19.2436 26.3045C20.1769 25.5578 21.2703 25.0245 22.5236 24.7045L22.6436 25.7845C21.5769 25.4911 20.6703 25.0245 19.9236 24.3845C19.1769 23.7178 18.6036 22.9445 18.2036 22.0645C17.8303 21.1578 17.6436 20.1978 17.6436 19.1845C17.6436 17.7445 17.9903 16.4778 18.6836 15.3845C19.3769 14.2911 20.3236 13.4378 21.5236 12.8245C22.7503 12.1845 24.1369 11.8645 25.6836 11.8645C27.2569 11.8645 28.6436 12.1845 29.8436 12.8245C31.0436 13.4378 31.9903 14.2911 32.6836 15.3845C33.3769 16.4778 33.7236 17.7445 33.7236 19.1845C33.7236 20.1978 33.5236 21.1578 33.1236 22.0645C32.7503 22.9445 32.1903 23.7178 31.4436 24.3845C30.7236 25.0245 29.8303 25.4911 28.7636 25.7845L28.8436 24.7045C30.1236 25.0245 31.2169 25.5578 32.1236 26.3045C33.0569 27.0245 33.7636 27.9045 34.2436 28.9445C34.7503 29.9845 35.0036 31.1311 35.0036 32.3845C35.0036 33.9311 34.6169 35.3178 33.8436 36.5445C33.0703 37.7711 31.9769 38.7311 30.5636 39.4245C29.1769 40.1178 27.5503 40.4645 25.6836 40.4645ZM25.6836 37.0645C26.8036 37.0645 27.7769 36.8511 28.6036 36.4245C29.4569 35.9711 30.1236 35.3578 30.6036 34.5845C31.1103 33.8111 31.3636 32.9178 31.3636 31.9045C31.3636 30.9178 31.1103 30.0378 30.6036 29.2645C30.1236 28.4911 29.4569 27.8911 28.6036 27.4645C27.7769 27.0111 26.8036 26.7845 25.6836 26.7845C24.5903 26.7845 23.6169 27.0111 22.7636 27.4645C21.9103 27.8911 21.2303 28.4911 20.7236 29.2645C20.2436 30.0378 20.0036 30.9178 20.0036 31.9045C20.0036 32.9178 20.2436 33.8111 20.7236 34.5845C21.2303 35.3578 21.9103 35.9711 22.7636 36.4245C23.6169 36.8511 24.5903 37.0645 25.6836 37.0645ZM25.6836 23.8645C27.0169 23.8645 28.1103 23.4511 28.9636 22.6245C29.8169 21.7978 30.2436 20.7311 30.2436 19.4245C30.2436 18.1445 29.8169 17.1045 28.9636 16.3045C28.1103 15.4778 27.0169 15.0645 25.6836 15.0645C24.3769 15.0645 23.2969 15.4778 22.4436 16.3045C21.5903 17.1045 21.1636 18.1445 21.1636 19.4245C21.1636 20.7311 21.5903 21.7978 22.4436 22.6245C23.2969 23.4511 24.3769 23.8645 25.6836 23.8645Z" fill="#606060"/>
<path d="M26.6022 62.0645V53.9765H27.7302V62.0645H26.6022ZM23.7702 54.7685V53.7365H30.5502V54.7685H23.7702ZM32.7241 62.1845C32.1641 62.1845 31.6601 62.0525 31.2121 61.7885C30.7641 61.5245 30.4081 61.1685 30.1441 60.7205C29.8801 60.2645 29.7481 59.7565 29.7481 59.1965C29.7481 58.6445 29.8801 58.1485 30.1441 57.7085C30.4081 57.2605 30.7641 56.9045 31.2121 56.6405C31.6601 56.3765 32.1641 56.2445 32.7241 56.2445C33.2761 56.2445 33.7761 56.3765 34.2241 56.6405C34.6801 56.8965 35.0401 57.2485 35.3041 57.6965C35.5681 58.1445 35.7001 58.6445 35.7001 59.1965C35.7001 59.7565 35.5681 60.2645 35.3041 60.7205C35.0401 61.1685 34.6801 61.5245 34.2241 61.7885C33.7761 62.0525 33.2761 62.1845 32.7241 62.1845ZM32.7241 61.1405C33.0841 61.1405 33.4041 61.0565 33.6841 60.8885C33.9641 60.7205 34.1841 60.4925 34.3441 60.2045C34.5041 59.9085 34.5841 59.5725 34.5841 59.1965C34.5841 58.8285 34.5001 58.5005 34.3321 58.2125C34.1721 57.9245 33.9521 57.7005 33.6721 57.5405C33.4001 57.3725 33.0841 57.2885 32.7241 57.2885C32.3641 57.2885 32.0441 57.3725 31.7641 57.5405C31.4841 57.7005 31.2641 57.9245 31.1041 58.2125C30.9441 58.5005 30.8641 58.8285 30.8641 59.1965C30.8641 59.5725 30.9441 59.9085 31.1041 60.2045C31.2641 60.4925 31.4841 60.7205 31.7641 60.8885C32.0441 61.0565 32.3641 61.1405 32.7241 61.1405ZM37.6172 62.0645V53.9765H38.6972V62.0645H37.6172ZM36.2132 57.3485V56.3645H40.1012V57.3485H36.2132ZM43.4074 62.1845C42.8874 62.1845 42.4154 62.0565 41.9914 61.8005C41.5674 61.5365 41.2314 61.1805 40.9834 60.7325C40.7434 60.2845 40.6234 59.7805 40.6234 59.2205C40.6234 58.6605 40.7434 58.1565 40.9834 57.7085C41.2314 57.2605 41.5634 56.9045 41.9794 56.6405C42.4034 56.3765 42.8794 56.2445 43.4074 56.2445C43.8394 56.2445 44.2234 56.3365 44.5594 56.5205C44.9034 56.6965 45.1794 56.9445 45.3874 57.2645C45.5954 57.5765 45.7114 57.9405 45.7354 58.3565V60.0725C45.7114 60.4805 45.5954 60.8445 45.3874 61.1645C45.1874 61.4845 44.9154 61.7365 44.5714 61.9205C44.2354 62.0965 43.8474 62.1845 43.4074 62.1845ZM43.5874 61.1645C44.1234 61.1645 44.5554 60.9845 44.8834 60.6245C45.2114 60.2565 45.3754 59.7885 45.3754 59.2205C45.3754 58.8285 45.2994 58.4885 45.1474 58.2005C45.0034 57.9045 44.7954 57.6765 44.5234 57.5165C44.2514 57.3485 43.9354 57.2645 43.5754 57.2645C43.2154 57.2645 42.8954 57.3485 42.6154 57.5165C42.3434 57.6845 42.1274 57.9165 41.9674 58.2125C41.8154 58.5005 41.7394 58.8325 41.7394 59.2085C41.7394 59.5925 41.8154 59.9325 41.9674 60.2285C42.1274 60.5165 42.3474 60.7445 42.6274 60.9125C42.9074 61.0805 43.2274 61.1645 43.5874 61.1645ZM45.3034 62.0645V60.5285L45.5074 59.1365L45.3034 57.7565V56.3645H46.3954V62.0645H45.3034ZM47.9678 62.0645V53.4965H49.0478V62.0645H47.9678Z" fill="#606060"/>
<path d="M152.859 40.5332V37.2092C152.859 36.7772 152.723 36.4212 152.451 36.1412C152.179 35.8612 151.827 35.7212 151.395 35.7212C151.107 35.7212 150.851 35.7852 150.627 35.9132C150.403 36.0412 150.227 36.2172 150.099 36.4412C149.971 36.6652 149.907 36.9212 149.907 37.2092L149.463 36.9572C149.463 36.5252 149.559 36.1412 149.751 35.8052C149.943 35.4692 150.211 35.2052 150.555 35.0132C150.899 34.8132 151.287 34.7132 151.719 34.7132C152.151 34.7132 152.531 34.8092 152.859 35.0012C153.195 35.1932 153.459 35.4612 153.651 35.8052C153.843 36.1492 153.939 36.5452 153.939 36.9932V40.5332H152.859ZM148.827 40.5332V31.9652H149.907V40.5332H148.827ZM155.401 40.5332V34.8332H156.481V40.5332H155.401ZM156.481 37.2812L156.073 37.1012C156.073 36.3732 156.241 35.7932 156.577 35.3612C156.913 34.9292 157.397 34.7132 158.029 34.7132C158.317 34.7132 158.577 34.7652 158.809 34.8692C159.041 34.9652 159.257 35.1292 159.457 35.3612L158.749 36.0932C158.629 35.9652 158.497 35.8732 158.353 35.8172C158.209 35.7612 158.041 35.7332 157.849 35.7332C157.449 35.7332 157.121 35.8612 156.865 36.1172C156.609 36.3732 156.481 36.7612 156.481 37.2812ZM161.901 40.6532C161.581 40.6532 161.277 40.6132 160.989 40.5332C160.709 40.4452 160.449 40.3252 160.209 40.1732C159.969 40.0132 159.761 39.8252 159.585 39.6092L160.281 38.9132C160.489 39.1692 160.729 39.3612 161.001 39.4892C161.273 39.6092 161.577 39.6692 161.913 39.6692C162.249 39.6692 162.509 39.6132 162.693 39.5012C162.877 39.3812 162.969 39.2172 162.969 39.0092C162.969 38.8012 162.893 38.6412 162.741 38.5292C162.597 38.4092 162.409 38.3132 162.177 38.2412C161.945 38.1612 161.697 38.0852 161.433 38.0132C161.177 37.9332 160.933 37.8332 160.701 37.7132C160.469 37.5932 160.277 37.4292 160.125 37.2212C159.981 37.0132 159.909 36.7372 159.909 36.3932C159.909 36.0492 159.993 35.7532 160.161 35.5052C160.329 35.2492 160.561 35.0532 160.857 34.9172C161.161 34.7812 161.525 34.7132 161.949 34.7132C162.397 34.7132 162.793 34.7932 163.137 34.9532C163.489 35.1052 163.777 35.3372 164.001 35.6492L163.305 36.3452C163.145 36.1372 162.945 35.9772 162.705 35.8652C162.473 35.7532 162.209 35.6972 161.913 35.6972C161.601 35.6972 161.361 35.7532 161.193 35.8652C161.033 35.9692 160.953 36.1172 160.953 36.3092C160.953 36.5012 161.025 36.6492 161.169 36.7532C161.313 36.8572 161.501 36.9452 161.733 37.0172C161.973 37.0892 162.221 37.1652 162.477 37.2452C162.733 37.3172 162.977 37.4172 163.209 37.5452C163.441 37.6732 163.629 37.8452 163.773 38.0612C163.925 38.2772 164.001 38.5612 164.001 38.9132C164.001 39.4492 163.809 39.8732 163.425 40.1852C163.049 40.4972 162.541 40.6532 161.901 40.6532Z" fill="#EC7807"/>
<path d="M131.862 40.4645C130.022 40.4645 128.369 40.0378 126.902 39.1845C125.462 38.3311 124.315 37.1845 123.462 35.7445C122.609 34.3045 122.182 32.7045 122.182 30.9445C122.182 28.4911 123.035 26.0511 124.742 23.6245L132.902 12.3045H137.262L128.902 23.7045L127.542 24.4245C127.862 23.8645 128.249 23.3978 128.702 23.0245C129.155 22.6245 129.715 22.3178 130.382 22.1045C131.049 21.8911 131.835 21.7845 132.742 21.7845C134.369 21.7845 135.835 22.1711 137.142 22.9445C138.475 23.7178 139.542 24.7845 140.342 26.1445C141.169 27.4778 141.582 29.0378 141.582 30.8245C141.582 32.5845 141.142 34.1978 140.262 35.6645C139.409 37.1311 138.235 38.3045 136.742 39.1845C135.275 40.0378 133.649 40.4645 131.862 40.4645ZM131.862 36.9445C132.982 36.9445 133.982 36.6778 134.862 36.1445C135.769 35.5845 136.475 34.8511 136.982 33.9445C137.515 33.0111 137.782 31.9711 137.782 30.8245C137.782 29.6778 137.515 28.6511 136.982 27.7445C136.475 26.8111 135.769 26.0778 134.862 25.5445C133.982 25.0111 132.982 24.7445 131.862 24.7445C130.742 24.7445 129.729 25.0111 128.822 25.5445C127.942 26.0778 127.235 26.8111 126.702 27.7445C126.195 28.6511 125.942 29.6778 125.942 30.8245C125.942 31.9711 126.195 33.0111 126.702 33.9445C127.235 34.8778 127.942 35.6111 128.822 36.1445C129.729 36.6778 130.742 36.9445 131.862 36.9445Z" fill="#EC7807"/>
<path d="M114.293 62.0645V53.7365H115.421V62.0645H114.293ZM115.061 62.0645V61.0325H119.525V62.0645H115.061ZM120.734 62.0645V56.3645H121.814V62.0645H120.734ZM121.274 55.2245C121.074 55.2245 120.91 55.1605 120.782 55.0325C120.654 54.8965 120.59 54.7285 120.59 54.5285C120.59 54.3365 120.654 54.1765 120.782 54.0485C120.91 53.9125 121.074 53.8445 121.274 53.8445C121.474 53.8445 121.638 53.9125 121.766 54.0485C121.894 54.1765 121.958 54.3365 121.958 54.5285C121.958 54.7285 121.894 54.8965 121.766 55.0325C121.638 55.1605 121.474 55.2245 121.274 55.2245ZM125.769 64.5725C125.185 64.5725 124.665 64.4645 124.209 64.2485C123.761 64.0325 123.401 63.7285 123.129 63.3365L123.825 62.6285C124.057 62.9245 124.333 63.1485 124.653 63.3005C124.973 63.4605 125.353 63.5405 125.793 63.5405C126.377 63.5405 126.837 63.3845 127.173 63.0725C127.517 62.7685 127.689 62.3565 127.689 61.8365V60.4205L127.881 59.1365L127.689 57.8645V56.3645H128.769V61.8365C128.769 62.3805 128.641 62.8565 128.385 63.2645C128.137 63.6725 127.785 63.9925 127.329 64.2245C126.881 64.4565 126.361 64.5725 125.769 64.5725ZM125.769 61.9685C125.249 61.9685 124.781 61.8445 124.365 61.5965C123.957 61.3485 123.633 61.0085 123.393 60.5765C123.153 60.1365 123.033 59.6445 123.033 59.1005C123.033 58.5565 123.153 58.0725 123.393 57.6485C123.633 57.2165 123.957 56.8765 124.365 56.6285C124.781 56.3725 125.249 56.2445 125.769 56.2445C126.217 56.2445 126.613 56.3325 126.957 56.5085C127.301 56.6845 127.573 56.9325 127.773 57.2525C127.981 57.5645 128.093 57.9325 128.109 58.3565V59.8685C128.085 60.2845 127.969 60.6525 127.761 60.9725C127.561 61.2845 127.289 61.5285 126.945 61.7045C126.601 61.8805 126.209 61.9685 125.769 61.9685ZM125.985 60.9485C126.337 60.9485 126.645 60.8725 126.909 60.7205C127.181 60.5685 127.389 60.3565 127.533 60.0845C127.677 59.8045 127.749 59.4805 127.749 59.1125C127.749 58.7445 127.673 58.4245 127.521 58.1525C127.377 57.8725 127.173 57.6565 126.909 57.5045C126.645 57.3445 126.333 57.2645 125.973 57.2645C125.613 57.2645 125.297 57.3445 125.025 57.5045C124.753 57.6565 124.537 57.8725 124.377 58.1525C124.225 58.4245 124.149 58.7405 124.149 59.1005C124.149 59.4605 124.225 59.7805 124.377 60.0605C124.537 60.3405 124.753 60.5605 125.025 60.7205C125.305 60.8725 125.625 60.9485 125.985 60.9485ZM134.387 62.0645V58.7405C134.387 58.3085 134.251 57.9525 133.979 57.6725C133.707 57.3925 133.355 57.2525 132.923 57.2525C132.635 57.2525 132.379 57.3165 132.155 57.4445C131.931 57.5725 131.755 57.7485 131.627 57.9725C131.499 58.1965 131.435 58.4525 131.435 58.7405L130.991 58.4885C130.991 58.0565 131.087 57.6725 131.279 57.3365C131.471 57.0005 131.739 56.7365 132.083 56.5445C132.427 56.3445 132.815 56.2445 133.247 56.2445C133.679 56.2445 134.059 56.3405 134.387 56.5325C134.723 56.7245 134.987 56.9925 135.179 57.3365C135.371 57.6805 135.467 58.0765 135.467 58.5245V62.0645H134.387ZM130.354 62.0645V53.4965H131.435V62.0645H130.354ZM137.734 62.0645V53.9765H138.814V62.0645H137.734ZM136.33 57.3485V56.3645H140.218V57.3485H136.33ZM146.28 62.1845C145.624 62.1845 145.064 62.0645 144.6 61.8245C144.136 61.5845 143.724 61.2365 143.364 60.7805L144.132 60.0125C144.396 60.3805 144.7 60.6605 145.044 60.8525C145.388 61.0365 145.812 61.1285 146.316 61.1285C146.812 61.1285 147.208 61.0205 147.504 60.8045C147.808 60.5885 147.96 60.2925 147.96 59.9165C147.96 59.6045 147.888 59.3525 147.744 59.1605C147.6 58.9685 147.404 58.8125 147.156 58.6925C146.916 58.5645 146.652 58.4525 146.364 58.3565C146.076 58.2525 145.788 58.1445 145.5 58.0325C145.212 57.9125 144.948 57.7685 144.708 57.6005C144.468 57.4245 144.272 57.1965 144.12 56.9165C143.976 56.6365 143.904 56.2845 143.904 55.8605C143.904 55.3885 144.016 54.9885 144.24 54.6605C144.472 54.3245 144.784 54.0685 145.176 53.8925C145.576 53.7085 146.024 53.6165 146.52 53.6165C147.064 53.6165 147.552 53.7245 147.984 53.9405C148.416 54.1485 148.768 54.4245 149.04 54.7685L148.272 55.5365C148.024 55.2485 147.756 55.0325 147.468 54.8885C147.188 54.7445 146.864 54.6725 146.496 54.6725C146.048 54.6725 145.692 54.7725 145.428 54.9725C145.164 55.1645 145.032 55.4365 145.032 55.7885C145.032 56.0685 145.104 56.2965 145.248 56.4725C145.4 56.6405 145.596 56.7845 145.836 56.9045C146.076 57.0245 146.34 57.1365 146.628 57.2405C146.924 57.3365 147.216 57.4445 147.504 57.5645C147.792 57.6845 148.056 57.8365 148.296 58.0205C148.536 58.2045 148.728 58.4445 148.872 58.7405C149.024 59.0285 149.1 59.3925 149.1 59.8325C149.1 60.5685 148.844 61.1445 148.332 61.5605C147.828 61.9765 147.144 62.1845 146.28 62.1845ZM150.429 62.0645V53.4965H151.509V62.0645H150.429ZM155.729 62.1845C155.161 62.1845 154.649 62.0565 154.193 61.8005C153.737 61.5365 153.377 61.1805 153.113 60.7325C152.849 60.2845 152.717 59.7765 152.717 59.2085C152.717 58.6485 152.845 58.1445 153.101 57.6965C153.365 57.2485 153.717 56.8965 154.157 56.6405C154.605 56.3765 155.105 56.2445 155.657 56.2445C156.185 56.2445 156.649 56.3645 157.049 56.6045C157.457 56.8445 157.773 57.1765 157.997 57.6005C158.229 58.0245 158.345 58.5045 158.345 59.0405C158.345 59.1205 158.341 59.2085 158.333 59.3045C158.325 59.3925 158.309 59.4965 158.285 59.6165H153.473V58.7165H157.709L157.313 59.0645C157.313 58.6805 157.245 58.3565 157.109 58.0925C156.973 57.8205 156.781 57.6125 156.533 57.4685C156.285 57.3165 155.985 57.2405 155.633 57.2405C155.265 57.2405 154.941 57.3205 154.661 57.4805C154.381 57.6405 154.165 57.8645 154.013 58.1525C153.861 58.4405 153.785 58.7805 153.785 59.1725C153.785 59.5725 153.865 59.9245 154.025 60.2285C154.185 60.5245 154.413 60.7565 154.709 60.9245C155.005 61.0845 155.345 61.1645 155.729 61.1645C156.049 61.1645 156.341 61.1085 156.605 60.9965C156.877 60.8845 157.109 60.7165 157.301 60.4925L157.997 61.2005C157.725 61.5205 157.389 61.7645 156.989 61.9325C156.597 62.1005 156.177 62.1845 155.729 62.1845ZM162.162 62.1845C161.594 62.1845 161.082 62.0565 160.626 61.8005C160.17 61.5365 159.81 61.1805 159.546 60.7325C159.282 60.2845 159.15 59.7765 159.15 59.2085C159.15 58.6485 159.278 58.1445 159.534 57.6965C159.798 57.2485 160.15 56.8965 160.59 56.6405C161.038 56.3765 161.538 56.2445 162.09 56.2445C162.618 56.2445 163.082 56.3645 163.482 56.6045C163.89 56.8445 164.206 57.1765 164.43 57.6005C164.662 58.0245 164.778 58.5045 164.778 59.0405C164.778 59.1205 164.774 59.2085 164.766 59.3045C164.758 59.3925 164.742 59.4965 164.718 59.6165H159.906V58.7165H164.142L163.746 59.0645C163.746 58.6805 163.678 58.3565 163.542 58.0925C163.406 57.8205 163.214 57.6125 162.966 57.4685C162.718 57.3165 162.418 57.2405 162.066 57.2405C161.698 57.2405 161.374 57.3205 161.094 57.4805C160.814 57.6405 160.598 57.8645 160.446 58.1525C160.294 58.4405 160.218 58.7805 160.218 59.1725C160.218 59.5725 160.298 59.9245 160.458 60.2285C160.618 60.5245 160.846 60.7565 161.142 60.9245C161.438 61.0845 161.778 61.1645 162.162 61.1645C162.482 61.1645 162.774 61.1085 163.038 60.9965C163.31 60.8845 163.542 60.7165 163.734 60.4925L164.43 61.2005C164.158 61.5205 163.822 61.7645 163.422 61.9325C163.03 62.1005 162.61 62.1845 162.162 62.1845ZM168.956 62.1845C168.524 62.1845 168.132 62.0965 167.78 61.9205C167.436 61.7365 167.16 61.4845 166.952 61.1645C166.744 60.8445 166.628 60.4805 166.604 60.0725V58.3565C166.628 57.9405 166.744 57.5765 166.952 57.2645C167.168 56.9445 167.448 56.6965 167.792 56.5205C168.144 56.3365 168.532 56.2445 168.956 56.2445C169.476 56.2445 169.944 56.3765 170.36 56.6405C170.784 56.9045 171.116 57.2605 171.356 57.7085C171.596 58.1565 171.716 58.6605 171.716 59.2205C171.716 59.7805 171.596 60.2845 171.356 60.7325C171.116 61.1805 170.784 61.5365 170.36 61.8005C169.944 62.0565 169.476 62.1845 168.956 62.1845ZM165.956 64.4525V56.3645H167.036V57.8645L166.832 59.2445L167.036 60.6365V64.4525H165.956ZM168.776 61.1645C169.136 61.1645 169.452 61.0805 169.724 60.9125C169.996 60.7445 170.212 60.5165 170.372 60.2285C170.532 59.9325 170.612 59.5925 170.612 59.2085C170.612 58.8325 170.532 58.4965 170.372 58.2005C170.212 57.9045 169.996 57.6765 169.724 57.5165C169.452 57.3485 169.14 57.2645 168.788 57.2645C168.428 57.2645 168.112 57.3485 167.84 57.5165C167.568 57.6765 167.356 57.9045 167.204 58.2005C167.052 58.4965 166.976 58.8365 166.976 59.2205C166.976 59.5965 167.048 59.9325 167.192 60.2285C167.344 60.5165 167.556 60.7445 167.828 60.9125C168.108 61.0805 168.424 61.1645 168.776 61.1645Z" fill="#EC7807"/>
<path d="M275.871 40.5332V37.2092C275.871 36.7772 275.735 36.4212 275.463 36.1412C275.191 35.8612 274.839 35.7212 274.407 35.7212C274.119 35.7212 273.863 35.7852 273.639 35.9132C273.415 36.0412 273.239 36.2172 273.111 36.4412C272.983 36.6652 272.919 36.9212 272.919 37.2092L272.475 36.9572C272.475 36.5252 272.571 36.1412 272.763 35.8052C272.955 35.4692 273.223 35.2052 273.567 35.0132C273.911 34.8132 274.299 34.7132 274.731 34.7132C275.163 34.7132 275.543 34.8092 275.871 35.0012C276.207 35.1932 276.471 35.4612 276.663 35.8052C276.855 36.1492 276.951 36.5452 276.951 36.9932V40.5332H275.871ZM271.839 40.5332V31.9652H272.919V40.5332H271.839ZM278.413 40.5332V34.8332H279.493V40.5332H278.413ZM279.493 37.2812L279.085 37.1012C279.085 36.3732 279.253 35.7932 279.589 35.3612C279.925 34.9292 280.409 34.7132 281.041 34.7132C281.329 34.7132 281.589 34.7652 281.821 34.8692C282.053 34.9652 282.269 35.1292 282.469 35.3612L281.761 36.0932C281.641 35.9652 281.509 35.8732 281.365 35.8172C281.221 35.7612 281.053 35.7332 280.861 35.7332C280.461 35.7332 280.133 35.8612 279.877 36.1172C279.621 36.3732 279.493 36.7612 279.493 37.2812ZM284.913 40.6532C284.593 40.6532 284.289 40.6132 284.001 40.5332C283.721 40.4452 283.461 40.3252 283.221 40.1732C282.981 40.0132 282.773 39.8252 282.597 39.6092L283.293 38.9132C283.501 39.1692 283.741 39.3612 284.013 39.4892C284.285 39.6092 284.589 39.6692 284.925 39.6692C285.261 39.6692 285.521 39.6132 285.705 39.5012C285.889 39.3812 285.981 39.2172 285.981 39.0092C285.981 38.8012 285.905 38.6412 285.753 38.5292C285.609 38.4092 285.421 38.3132 285.189 38.2412C284.957 38.1612 284.709 38.0852 284.445 38.0132C284.189 37.9332 283.945 37.8332 283.713 37.7132C283.481 37.5932 283.289 37.4292 283.137 37.2212C282.993 37.0132 282.921 36.7372 282.921 36.3932C282.921 36.0492 283.005 35.7532 283.173 35.5052C283.341 35.2492 283.573 35.0532 283.869 34.9172C284.173 34.7812 284.537 34.7132 284.961 34.7132C285.409 34.7132 285.805 34.7932 286.149 34.9532C286.501 35.1052 286.789 35.3372 287.013 35.6492L286.317 36.3452C286.157 36.1372 285.957 35.9772 285.717 35.8652C285.485 35.7532 285.221 35.6972 284.925 35.6972C284.613 35.6972 284.373 35.7532 284.205 35.8652C284.045 35.9692 283.965 36.1172 283.965 36.3092C283.965 36.5012 284.037 36.6492 284.181 36.7532C284.325 36.8572 284.513 36.9452 284.745 37.0172C284.985 37.0892 285.233 37.1652 285.489 37.2452C285.745 37.3172 285.989 37.4172 286.221 37.5452C286.453 37.6732 286.641 37.8452 286.785 38.0612C286.937 38.2772 287.013 38.5612 287.013 38.9132C287.013 39.4492 286.821 39.8732 286.437 40.1852C286.061 40.4972 285.553 40.6532 284.913 40.6532Z" fill="#FF0000"/>
<path d="M244.914 37.7845L255.154 26.9845C256.194 25.9178 257.007 24.9978 257.594 24.2245C258.18 23.4245 258.594 22.6911 258.834 22.0245C259.1 21.3578 259.234 20.6645 259.234 19.9445C259.234 18.5311 258.78 17.4245 257.874 16.6245C256.967 15.8245 255.794 15.4245 254.354 15.4245C252.94 15.4245 251.7 15.7711 250.634 16.4645C249.567 17.1311 248.62 18.1711 247.794 19.5845L245.154 17.3845C246.247 15.5711 247.567 14.2111 249.114 13.3045C250.66 12.3711 252.447 11.9045 254.474 11.9045C256.18 11.9045 257.66 12.2378 258.914 12.9045C260.194 13.5711 261.18 14.5045 261.874 15.7045C262.567 16.9045 262.914 18.3045 262.914 19.9045C262.914 21.0511 262.767 22.0778 262.474 22.9845C262.207 23.8911 261.714 24.8245 260.994 25.7845C260.3 26.7178 259.327 27.8378 258.074 29.1445L249.794 37.6645L244.914 37.7845ZM244.914 40.0645V37.7845L248.114 36.7045H263.554V40.0645H244.914Z" fill="#FF0000"/>
<path d="M237.048 62.0645V61.0325H239.364C239.98 61.0325 240.52 60.9005 240.984 60.6365C241.448 60.3645 241.808 59.9925 242.064 59.5205C242.328 59.0485 242.46 58.5045 242.46 57.8885C242.46 57.2805 242.328 56.7405 242.064 56.2685C241.8 55.7965 241.436 55.4285 240.972 55.1645C240.508 54.9005 239.972 54.7685 239.364 54.7685H237.06V53.7365H239.388C239.996 53.7365 240.556 53.8405 241.068 54.0485C241.588 54.2565 242.036 54.5485 242.412 54.9245C242.796 55.3005 243.092 55.7405 243.3 56.2445C243.516 56.7485 243.624 57.3005 243.624 57.9005C243.624 58.4925 243.516 59.0445 243.3 59.5565C243.092 60.0605 242.8 60.5005 242.424 60.8765C242.048 61.2525 241.6 61.5445 241.08 61.7525C240.568 61.9605 240.012 62.0645 239.412 62.0645H237.048ZM236.304 62.0645V53.7365H237.432V62.0645H236.304ZM247.635 62.1845C247.067 62.1845 246.555 62.0565 246.099 61.8005C245.643 61.5365 245.283 61.1805 245.019 60.7325C244.755 60.2845 244.623 59.7765 244.623 59.2085C244.623 58.6485 244.751 58.1445 245.007 57.6965C245.271 57.2485 245.623 56.8965 246.063 56.6405C246.511 56.3765 247.011 56.2445 247.563 56.2445C248.091 56.2445 248.555 56.3645 248.955 56.6045C249.363 56.8445 249.679 57.1765 249.903 57.6005C250.135 58.0245 250.251 58.5045 250.251 59.0405C250.251 59.1205 250.247 59.2085 250.239 59.3045C250.231 59.3925 250.215 59.4965 250.191 59.6165H245.379V58.7165H249.615L249.219 59.0645C249.219 58.6805 249.151 58.3565 249.015 58.0925C248.879 57.8205 248.687 57.6125 248.439 57.4685C248.191 57.3165 247.891 57.2405 247.539 57.2405C247.171 57.2405 246.847 57.3205 246.567 57.4805C246.287 57.6405 246.071 57.8645 245.919 58.1525C245.767 58.4405 245.691 58.7805 245.691 59.1725C245.691 59.5725 245.771 59.9245 245.931 60.2285C246.091 60.5245 246.319 60.7565 246.615 60.9245C246.911 61.0845 247.251 61.1645 247.635 61.1645C247.955 61.1645 248.247 61.1085 248.511 60.9965C248.783 60.8845 249.015 60.7165 249.207 60.4925L249.903 61.2005C249.631 61.5205 249.295 61.7645 248.895 61.9325C248.503 62.1005 248.083 62.1845 247.635 62.1845ZM254.069 62.1845C253.501 62.1845 252.989 62.0565 252.533 61.8005C252.077 61.5365 251.717 61.1805 251.453 60.7325C251.189 60.2845 251.057 59.7765 251.057 59.2085C251.057 58.6485 251.185 58.1445 251.441 57.6965C251.705 57.2485 252.057 56.8965 252.497 56.6405C252.945 56.3765 253.445 56.2445 253.997 56.2445C254.525 56.2445 254.989 56.3645 255.389 56.6045C255.797 56.8445 256.113 57.1765 256.337 57.6005C256.569 58.0245 256.685 58.5045 256.685 59.0405C256.685 59.1205 256.681 59.2085 256.673 59.3045C256.665 59.3925 256.649 59.4965 256.625 59.6165H251.813V58.7165H256.049L255.653 59.0645C255.653 58.6805 255.585 58.3565 255.449 58.0925C255.313 57.8205 255.121 57.6125 254.873 57.4685C254.625 57.3165 254.325 57.2405 253.973 57.2405C253.605 57.2405 253.281 57.3205 253.001 57.4805C252.721 57.6405 252.505 57.8645 252.353 58.1525C252.201 58.4405 252.125 58.7805 252.125 59.1725C252.125 59.5725 252.205 59.9245 252.365 60.2285C252.525 60.5245 252.753 60.7565 253.049 60.9245C253.345 61.0845 253.685 61.1645 254.069 61.1645C254.389 61.1645 254.681 61.1085 254.945 60.9965C255.217 60.8845 255.449 60.7165 255.641 60.4925L256.337 61.2005C256.065 61.5205 255.729 61.7645 255.329 61.9325C254.937 62.1005 254.517 62.1845 254.069 62.1845ZM260.862 62.1845C260.43 62.1845 260.038 62.0965 259.686 61.9205C259.342 61.7365 259.066 61.4845 258.858 61.1645C258.65 60.8445 258.534 60.4805 258.51 60.0725V58.3565C258.534 57.9405 258.65 57.5765 258.858 57.2645C259.074 56.9445 259.354 56.6965 259.698 56.5205C260.05 56.3365 260.438 56.2445 260.862 56.2445C261.382 56.2445 261.85 56.3765 262.266 56.6405C262.69 56.9045 263.022 57.2605 263.262 57.7085C263.502 58.1565 263.622 58.6605 263.622 59.2205C263.622 59.7805 263.502 60.2845 263.262 60.7325C263.022 61.1805 262.69 61.5365 262.266 61.8005C261.85 62.0565 261.382 62.1845 260.862 62.1845ZM257.862 64.4525V56.3645H258.942V57.8645L258.738 59.2445L258.942 60.6365V64.4525H257.862ZM260.682 61.1645C261.042 61.1645 261.358 61.0805 261.63 60.9125C261.902 60.7445 262.118 60.5165 262.278 60.2285C262.438 59.9325 262.518 59.5925 262.518 59.2085C262.518 58.8325 262.438 58.4965 262.278 58.2005C262.118 57.9045 261.902 57.6765 261.63 57.5165C261.358 57.3485 261.046 57.2645 260.694 57.2645C260.334 57.2645 260.018 57.3485 259.746 57.5165C259.474 57.6765 259.262 57.9045 259.11 58.2005C258.958 58.4965 258.882 58.8365 258.882 59.2205C258.882 59.5965 258.954 59.9325 259.098 60.2285C259.25 60.5165 259.462 60.7445 259.734 60.9125C260.014 61.0805 260.33 61.1645 260.682 61.1645ZM269.851 62.1845C269.195 62.1845 268.635 62.0645 268.171 61.8245C267.707 61.5845 267.295 61.2365 266.935 60.7805L267.703 60.0125C267.967 60.3805 268.271 60.6605 268.615 60.8525C268.959 61.0365 269.383 61.1285 269.887 61.1285C270.383 61.1285 270.779 61.0205 271.075 60.8045C271.379 60.5885 271.531 60.2925 271.531 59.9165C271.531 59.6045 271.459 59.3525 271.315 59.1605C271.171 58.9685 270.975 58.8125 270.727 58.6925C270.487 58.5645 270.223 58.4525 269.935 58.3565C269.647 58.2525 269.359 58.1445 269.071 58.0325C268.783 57.9125 268.519 57.7685 268.279 57.6005C268.039 57.4245 267.843 57.1965 267.691 56.9165C267.547 56.6365 267.475 56.2845 267.475 55.8605C267.475 55.3885 267.587 54.9885 267.811 54.6605C268.043 54.3245 268.355 54.0685 268.747 53.8925C269.147 53.7085 269.595 53.6165 270.091 53.6165C270.635 53.6165 271.123 53.7245 271.555 53.9405C271.987 54.1485 272.339 54.4245 272.611 54.7685L271.843 55.5365C271.595 55.2485 271.327 55.0325 271.039 54.8885C270.759 54.7445 270.435 54.6725 270.067 54.6725C269.619 54.6725 269.263 54.7725 268.999 54.9725C268.735 55.1645 268.603 55.4365 268.603 55.7885C268.603 56.0685 268.675 56.2965 268.819 56.4725C268.971 56.6405 269.167 56.7845 269.407 56.9045C269.647 57.0245 269.911 57.1365 270.199 57.2405C270.495 57.3365 270.787 57.4445 271.075 57.5645C271.363 57.6845 271.627 57.8365 271.867 58.0205C272.107 58.2045 272.299 58.4445 272.443 58.7405C272.595 59.0285 272.671 59.3925 272.671 59.8325C272.671 60.5685 272.415 61.1445 271.903 61.5605C271.399 61.9765 270.715 62.1845 269.851 62.1845ZM273.999 62.0645V53.4965H275.079V62.0645H273.999ZM279.299 62.1845C278.731 62.1845 278.219 62.0565 277.763 61.8005C277.307 61.5365 276.947 61.1805 276.683 60.7325C276.419 60.2845 276.287 59.7765 276.287 59.2085C276.287 58.6485 276.415 58.1445 276.671 57.6965C276.935 57.2485 277.287 56.8965 277.727 56.6405C278.175 56.3765 278.675 56.2445 279.227 56.2445C279.755 56.2445 280.219 56.3645 280.619 56.6045C281.027 56.8445 281.343 57.1765 281.567 57.6005C281.799 58.0245 281.915 58.5045 281.915 59.0405C281.915 59.1205 281.911 59.2085 281.903 59.3045C281.895 59.3925 281.879 59.4965 281.855 59.6165H277.043V58.7165H281.279L280.883 59.0645C280.883 58.6805 280.815 58.3565 280.679 58.0925C280.543 57.8205 280.351 57.6125 280.103 57.4685C279.855 57.3165 279.555 57.2405 279.203 57.2405C278.835 57.2405 278.511 57.3205 278.231 57.4805C277.951 57.6405 277.735 57.8645 277.583 58.1525C277.431 58.4405 277.355 58.7805 277.355 59.1725C277.355 59.5725 277.435 59.9245 277.595 60.2285C277.755 60.5245 277.983 60.7565 278.279 60.9245C278.575 61.0845 278.915 61.1645 279.299 61.1645C279.619 61.1645 279.911 61.1085 280.175 60.9965C280.447 60.8845 280.679 60.7165 280.871 60.4925L281.567 61.2005C281.295 61.5205 280.959 61.7645 280.559 61.9325C280.167 62.1005 279.747 62.1845 279.299 62.1845ZM285.733 62.1845C285.165 62.1845 284.653 62.0565 284.197 61.8005C283.741 61.5365 283.381 61.1805 283.117 60.7325C282.853 60.2845 282.721 59.7765 282.721 59.2085C282.721 58.6485 282.849 58.1445 283.105 57.6965C283.369 57.2485 283.721 56.8965 284.161 56.6405C284.609 56.3765 285.109 56.2445 285.661 56.2445C286.189 56.2445 286.653 56.3645 287.053 56.6045C287.461 56.8445 287.777 57.1765 288.001 57.6005C288.233 58.0245 288.349 58.5045 288.349 59.0405C288.349 59.1205 288.345 59.2085 288.337 59.3045C288.329 59.3925 288.313 59.4965 288.289 59.6165H283.477V58.7165H287.713L287.317 59.0645C287.317 58.6805 287.249 58.3565 287.113 58.0925C286.977 57.8205 286.785 57.6125 286.537 57.4685C286.289 57.3165 285.989 57.2405 285.637 57.2405C285.269 57.2405 284.945 57.3205 284.665 57.4805C284.385 57.6405 284.169 57.8645 284.017 58.1525C283.865 58.4405 283.789 58.7805 283.789 59.1725C283.789 59.5725 283.869 59.9245 284.029 60.2285C284.189 60.5245 284.417 60.7565 284.713 60.9245C285.009 61.0845 285.349 61.1645 285.733 61.1645C286.053 61.1645 286.345 61.1085 286.609 60.9965C286.881 60.8845 287.113 60.7165 287.305 60.4925L288.001 61.2005C287.729 61.5205 287.393 61.7645 286.993 61.9325C286.601 62.1005 286.181 62.1845 285.733 62.1845ZM292.526 62.1845C292.094 62.1845 291.702 62.0965 291.35 61.9205C291.006 61.7365 290.73 61.4845 290.522 61.1645C290.314 60.8445 290.198 60.4805 290.174 60.0725V58.3565C290.198 57.9405 290.314 57.5765 290.522 57.2645C290.738 56.9445 291.018 56.6965 291.362 56.5205C291.714 56.3365 292.102 56.2445 292.526 56.2445C293.046 56.2445 293.514 56.3765 293.93 56.6405C294.354 56.9045 294.686 57.2605 294.926 57.7085C295.166 58.1565 295.286 58.6605 295.286 59.2205C295.286 59.7805 295.166 60.2845 294.926 60.7325C294.686 61.1805 294.354 61.5365 293.93 61.8005C293.514 62.0565 293.046 62.1845 292.526 62.1845ZM289.526 64.4525V56.3645H290.606V57.8645L290.402 59.2445L290.606 60.6365V64.4525H289.526ZM292.346 61.1645C292.706 61.1645 293.022 61.0805 293.294 60.9125C293.566 60.7445 293.782 60.5165 293.942 60.2285C294.102 59.9325 294.182 59.5925 294.182 59.2085C294.182 58.8325 294.102 58.4965 293.942 58.2005C293.782 57.9045 293.566 57.6765 293.294 57.5165C293.022 57.3485 292.71 57.2645 292.358 57.2645C291.998 57.2645 291.682 57.3485 291.41 57.5165C291.138 57.6765 290.926 57.9045 290.774 58.2005C290.622 58.4965 290.546 58.8365 290.546 59.2205C290.546 59.5965 290.618 59.9325 290.762 60.2285C290.914 60.5165 291.126 60.7445 291.398 60.9125C291.678 61.0805 291.994 61.1645 292.346 61.1645Z" fill="#FF0000"/>
<rect x="0.953125" y="75.2324" width="309.093" height="14.2346" rx="7.11728" fill="#606060"/>
<rect x="56.875" y="99.6338" width="197.25" height="14.2346" rx="7.11728" fill="#EC7807"/>
<rect x="108.73" y="124.036" width="93.5414" height="14.2346" rx="7.11728" fill="#FF0000"/>
</svg>
