<svg width="399" height="150" viewBox="0 0 399 150" fill="none" xmlns="http://www.w3.org/2000/svg">
<path d="M175.22 25.0296C173.828 25.0296 172.628 24.8056 171.62 24.3576C170.628 23.8936 169.716 23.1976 168.884 22.2696L171.332 19.8456C171.876 20.4696 172.476 20.9576 173.132 21.3096C173.804 21.6456 174.58 21.8136 175.46 21.8136C176.26 21.8136 176.876 21.6696 177.308 21.3816C177.756 21.0936 177.98 20.6936 177.98 20.1816C177.98 19.7176 177.836 19.3416 177.548 19.0536C177.26 18.7656 176.876 18.5176 176.396 18.3096C175.932 18.1016 175.412 17.9016 174.836 17.7096C174.276 17.5176 173.716 17.3016 173.156 17.0616C172.596 16.8056 172.076 16.4936 171.596 16.1256C171.132 15.7416 170.756 15.2696 170.468 14.7096C170.18 14.1336 170.036 13.4136 170.036 12.5496C170.036 11.5096 170.284 10.6136 170.78 9.86162C171.292 9.10962 171.996 8.54162 172.892 8.15762C173.788 7.75762 174.82 7.55762 175.988 7.55762C177.172 7.55762 178.252 7.76562 179.228 8.18162C180.22 8.59762 181.036 9.16562 181.676 9.88562L179.228 12.3096C178.716 11.7816 178.196 11.3896 177.668 11.1336C177.156 10.8776 176.572 10.7496 175.916 10.7496C175.26 10.7496 174.74 10.8776 174.356 11.1336C173.972 11.3736 173.78 11.7256 173.78 12.1896C173.78 12.6216 173.924 12.9736 174.212 13.2456C174.5 13.5016 174.876 13.7256 175.34 13.9176C175.82 14.1096 176.34 14.3016 176.9 14.4936C177.476 14.6856 178.044 14.9096 178.604 15.1656C179.164 15.4216 179.676 15.7496 180.14 16.1496C180.62 16.5336 181.004 17.0296 181.292 17.6376C181.58 18.2296 181.724 18.9656 181.724 19.8456C181.724 21.4616 181.148 22.7336 179.996 23.6616C178.844 24.5736 177.252 25.0296 175.22 25.0296ZM185.444 24.7656V8.27762H189.116V24.7656H185.444ZM182.804 16.2216V13.1016H191.756V16.2216H182.804ZM198.9 25.0296C197.636 25.0296 196.508 24.7736 195.516 24.2616C194.54 23.7336 193.772 23.0056 193.212 22.0776C192.652 21.1496 192.372 20.1016 192.372 18.9336C192.372 17.7656 192.644 16.7256 193.188 15.8136C193.748 14.8856 194.5 14.1576 195.444 13.6296C196.388 13.1016 197.452 12.8376 198.636 12.8376C199.788 12.8376 200.804 13.0856 201.684 13.5816C202.564 14.0776 203.252 14.7656 203.748 15.6456C204.26 16.5256 204.516 17.5336 204.516 18.6696C204.516 18.8776 204.5 19.1016 204.468 19.3416C204.452 19.5656 204.412 19.8296 204.348 20.1336L194.292 20.1576V17.6376L202.788 17.6136L201.204 18.6696C201.188 17.9976 201.084 17.4456 200.892 17.0136C200.7 16.5656 200.412 16.2296 200.028 16.0056C199.66 15.7656 199.204 15.6456 198.66 15.6456C198.084 15.6456 197.58 15.7816 197.148 16.0536C196.732 16.3096 196.404 16.6776 196.164 17.1576C195.94 17.6376 195.828 18.2216 195.828 18.9096C195.828 19.5976 195.948 20.1896 196.188 20.6856C196.444 21.1656 196.796 21.5416 197.244 21.8136C197.708 22.0696 198.252 22.1976 198.876 22.1976C199.452 22.1976 199.972 22.1016 200.436 21.9096C200.9 21.7016 201.308 21.3976 201.66 20.9976L203.676 23.0136C203.1 23.6856 202.404 24.1896 201.588 24.5256C200.772 24.8616 199.876 25.0296 198.9 25.0296ZM213.008 25.0056C212.224 25.0056 211.504 24.8536 210.848 24.5496C210.192 24.2456 209.656 23.8296 209.24 23.3016C208.824 22.7576 208.584 22.1416 208.52 21.4536V16.5336C208.584 15.8456 208.824 15.2216 209.24 14.6616C209.656 14.1016 210.192 13.6616 210.848 13.3416C211.504 13.0216 212.224 12.8616 213.008 12.8616C214.112 12.8616 215.088 13.1256 215.936 13.6536C216.8 14.1816 217.472 14.9016 217.952 15.8136C218.448 16.7256 218.696 17.7656 218.696 18.9336C218.696 20.1016 218.448 21.1416 217.952 22.0536C217.472 22.9656 216.8 23.6856 215.936 24.2136C215.088 24.7416 214.112 25.0056 213.008 25.0056ZM206.288 29.6856V13.1016H209.96V16.1016L209.36 18.9336L209.912 21.7656V29.6856H206.288ZM212.336 21.6936C212.864 21.6936 213.32 21.5736 213.704 21.3336C214.104 21.0936 214.416 20.7656 214.64 20.3496C214.864 19.9336 214.976 19.4616 214.976 18.9336C214.976 18.3896 214.864 17.9096 214.64 17.4936C214.416 17.0776 214.104 16.7576 213.704 16.5336C213.32 16.2936 212.872 16.1736 212.36 16.1736C211.848 16.1736 211.392 16.2936 210.992 16.5336C210.608 16.7576 210.304 17.0776 210.08 17.4936C209.856 17.9096 209.744 18.3896 209.744 18.9336C209.744 19.4616 209.848 19.9336 210.056 20.3496C210.28 20.7656 210.592 21.0936 210.992 21.3336C211.392 21.5736 211.84 21.6936 212.336 21.6936ZM224.81 25.0536C224.122 25.0536 223.442 24.9656 222.77 24.7896C222.114 24.6136 221.498 24.3656 220.922 24.0456C220.362 23.7096 219.882 23.3256 219.482 22.8936L221.57 20.7816C221.954 21.1976 222.41 21.5256 222.938 21.7656C223.466 21.9896 224.042 22.1016 224.666 22.1016C225.098 22.1016 225.426 22.0376 225.65 21.9096C225.89 21.7816 226.01 21.6056 226.01 21.3816C226.01 21.0936 225.866 20.8776 225.578 20.7336C225.306 20.5736 224.954 20.4376 224.522 20.3256C224.09 20.1976 223.634 20.0616 223.154 19.9176C222.674 19.7736 222.218 19.5736 221.786 19.3176C221.354 19.0616 221.002 18.7096 220.73 18.2616C220.458 17.7976 220.322 17.2136 220.322 16.5096C220.322 15.7576 220.514 15.1096 220.898 14.5656C221.282 14.0056 221.826 13.5656 222.53 13.2456C223.234 12.9256 224.058 12.7656 225.002 12.7656C225.994 12.7656 226.906 12.9416 227.738 13.2936C228.586 13.6296 229.274 14.1336 229.802 14.8056L227.714 16.9176C227.346 16.4856 226.93 16.1816 226.466 16.0056C226.018 15.8296 225.578 15.7416 225.146 15.7416C224.73 15.7416 224.418 15.8056 224.21 15.9336C224.002 16.0456 223.898 16.2136 223.898 16.4376C223.898 16.6776 224.034 16.8696 224.306 17.0136C224.578 17.1576 224.93 17.2856 225.362 17.3976C225.794 17.5096 226.25 17.6456 226.73 17.8056C227.21 17.9656 227.666 18.1816 228.098 18.4536C228.53 18.7256 228.882 19.0936 229.154 19.5576C229.426 20.0056 229.562 20.5976 229.562 21.3336C229.562 22.4696 229.13 23.3736 228.266 24.0456C227.418 24.7176 226.266 25.0536 224.81 25.0536Z" fill="white"/>
<path d="M32.0883 66.7656V55.7576H34.2803V66.7656H32.0883ZM28.5043 57.4536V55.5176H37.8643V57.4536H28.5043ZM40.853 66.9256C40.0743 66.9256 39.3703 66.7496 38.741 66.3976C38.1223 66.035 37.6263 65.5496 37.253 64.9416C36.8903 64.323 36.709 63.635 36.709 62.8776C36.709 62.1203 36.8903 61.443 37.253 60.8456C37.6156 60.2376 38.1116 59.7576 38.741 59.4056C39.3703 59.043 40.069 58.8616 40.837 58.8616C41.6263 58.8616 42.3303 59.043 42.949 59.4056C43.5783 59.7576 44.0743 60.2376 44.437 60.8456C44.7996 61.443 44.981 62.1203 44.981 62.8776C44.981 63.635 44.7996 64.323 44.437 64.9416C44.0743 65.5496 43.5783 66.035 42.949 66.3976C42.3303 66.7496 41.6316 66.9256 40.853 66.9256ZM40.837 64.9736C41.2316 64.9736 41.5783 64.8883 41.877 64.7176C42.1863 64.5363 42.421 64.291 42.581 63.9816C42.7516 63.6616 42.837 63.299 42.837 62.8936C42.837 62.4883 42.7516 62.131 42.581 61.8216C42.4103 61.5123 42.1756 61.2723 41.877 61.1016C41.5783 60.9203 41.2316 60.8296 40.837 60.8296C40.453 60.8296 40.1116 60.9203 39.813 61.1016C39.5143 61.2723 39.2796 61.5123 39.109 61.8216C38.9383 62.131 38.853 62.4883 38.853 62.8936C38.853 63.299 38.9383 63.6616 39.109 63.9816C39.2796 64.291 39.5143 64.5363 39.813 64.7176C40.1116 64.8883 40.453 64.9736 40.837 64.9736ZM49.5943 66.9256C48.8797 66.9256 48.2397 66.7496 47.6743 66.3976C47.109 66.0456 46.661 65.5656 46.3303 64.9576C46.0103 64.3496 45.8503 63.667 45.8503 62.9096C45.8503 62.1416 46.0103 61.4536 46.3303 60.8456C46.661 60.2376 47.1037 59.7576 47.6583 59.4056C48.2237 59.0536 48.869 58.8776 49.5943 58.8776C50.149 58.8776 50.645 58.9896 51.0823 59.2136C51.5303 59.4376 51.8877 59.7523 52.1543 60.1576C52.4317 60.5523 52.581 61.0003 52.6023 61.5016V64.2536C52.581 64.755 52.437 65.2083 52.1703 65.6136C51.9037 66.019 51.5463 66.339 51.0983 66.5736C50.6503 66.8083 50.149 66.9256 49.5943 66.9256ZM49.9463 64.9896C50.341 64.9896 50.6823 64.9043 50.9703 64.7336C51.269 64.5523 51.4983 64.307 51.6583 63.9976C51.829 63.6776 51.9143 63.3096 51.9143 62.8936C51.9143 62.4883 51.829 62.131 51.6583 61.8216C51.4983 61.5016 51.269 61.2563 50.9703 61.0856C50.6823 60.9043 50.3463 60.8136 49.9623 60.8136C49.5677 60.8136 49.221 60.9043 48.9223 61.0856C48.6343 61.267 48.405 61.5123 48.2343 61.8216C48.0743 62.131 47.9943 62.4883 47.9943 62.8936C47.9943 63.3096 48.0743 63.6776 48.2343 63.9976C48.405 64.307 48.6397 64.5523 48.9383 64.7336C49.237 64.9043 49.573 64.9896 49.9463 64.9896ZM53.8823 66.7656H51.8023V64.6856L52.1383 62.7976L51.7863 60.9416V55.1976H53.8823V66.7656ZM58.9686 66.9256C58.2646 66.9256 57.6299 66.7496 57.0646 66.3976C56.4993 66.0456 56.0566 65.5656 55.7366 64.9576C55.4166 64.3496 55.2566 63.667 55.2566 62.9096C55.2566 62.1416 55.4166 61.4536 55.7366 60.8456C56.0566 60.2376 56.4993 59.7576 57.0646 59.4056C57.6299 59.0536 58.2646 58.8776 58.9686 58.8776C59.5233 58.8776 60.0193 58.9896 60.4566 59.2136C60.8939 59.4376 61.2406 59.7523 61.4966 60.1576C61.7633 60.5523 61.9073 61.0003 61.9286 61.5016V64.2856C61.9073 64.7976 61.7633 65.251 61.4966 65.6456C61.2406 66.0403 60.8939 66.355 60.4566 66.5896C60.0193 66.8136 59.5233 66.9256 58.9686 66.9256ZM59.3526 64.9896C59.9393 64.9896 60.4139 64.7976 60.7766 64.4136C61.1393 64.019 61.3206 63.5123 61.3206 62.8936C61.3206 62.4883 61.2353 62.131 61.0646 61.8216C60.9046 61.5016 60.6753 61.2563 60.3766 61.0856C60.0886 60.9043 59.7473 60.8136 59.3526 60.8136C58.9686 60.8136 58.6273 60.9043 58.3286 61.0856C58.0406 61.2563 57.8113 61.5016 57.6406 61.8216C57.4806 62.131 57.4006 62.4883 57.4006 62.8936C57.4006 63.3096 57.4806 63.6776 57.6406 63.9976C57.8113 64.307 58.0406 64.5523 58.3286 64.7336C58.6273 64.9043 58.9686 64.9896 59.3526 64.9896ZM61.2086 66.7656V64.6856L61.5446 62.7976L61.2086 60.9416V59.0376H63.2886V66.7656H61.2086ZM67.5748 66.8296L64.3428 59.0376H66.6148L68.7588 64.9896H67.9908L70.2148 59.0376H72.5028L69.0628 66.8296H67.5748ZM65.4308 69.9976L67.7828 65.0216L69.0628 66.8296L67.6548 69.9976H65.4308Z" fill="white"/>
<rect x="93.4883" y="50.7656" width="300" height="15" rx="7.5" fill="#606060"/>
<rect x="93.4883" y="50.7656" width="200" height="15" rx="7.5" fill="#EC7807"/>
<path d="M96.8723 87.12C96.3203 87.12 95.8243 86.992 95.3843 86.736C94.9523 86.48 94.6083 86.136 94.3523 85.704C94.0963 85.272 93.9683 84.792 93.9683 84.264C93.9683 83.528 94.2243 82.796 94.7363 82.068L97.1843 78.672H98.4923L95.9843 82.092L95.5763 82.308C95.6723 82.14 95.7883 82 95.9243 81.888C96.0603 81.768 96.2283 81.676 96.4283 81.612C96.6283 81.548 96.8643 81.516 97.1363 81.516C97.6243 81.516 98.0643 81.632 98.4563 81.864C98.8563 82.096 99.1763 82.416 99.4163 82.824C99.6643 83.224 99.7883 83.692 99.7883 84.228C99.7883 84.756 99.6563 85.24 99.3923 85.68C99.1363 86.12 98.7843 86.472 98.3363 86.736C97.8963 86.992 97.4083 87.12 96.8723 87.12ZM96.8723 86.064C97.2083 86.064 97.5083 85.984 97.7723 85.824C98.0443 85.656 98.2563 85.436 98.4083 85.164C98.5683 84.884 98.6483 84.572 98.6483 84.228C98.6483 83.884 98.5683 83.576 98.4083 83.304C98.2563 83.024 98.0443 82.804 97.7723 82.644C97.5083 82.484 97.2083 82.404 96.8723 82.404C96.5363 82.404 96.2323 82.484 95.9603 82.644C95.6963 82.804 95.4843 83.024 95.3243 83.304C95.1723 83.576 95.0963 83.884 95.0963 84.228C95.0963 84.572 95.1723 84.884 95.3243 85.164C95.4843 85.444 95.6963 85.664 95.9603 85.824C96.2323 85.984 96.5363 86.064 96.8723 86.064ZM104.222 87.12C103.598 87.12 103.026 86.944 102.506 86.592C101.994 86.24 101.586 85.744 101.282 85.104C100.978 84.456 100.826 83.696 100.826 82.824C100.826 81.952 100.974 81.196 101.27 80.556C101.574 79.916 101.982 79.424 102.494 79.08C103.006 78.728 103.57 78.552 104.186 78.552C104.818 78.552 105.39 78.728 105.902 79.08C106.414 79.424 106.818 79.916 107.114 80.556C107.418 81.196 107.57 81.956 107.57 82.836C107.57 83.708 107.418 84.468 107.114 85.116C106.818 85.756 106.414 86.252 105.902 86.604C105.398 86.948 104.838 87.12 104.222 87.12ZM104.198 86.052C104.638 86.052 105.022 85.932 105.35 85.692C105.686 85.444 105.95 85.08 106.142 84.6C106.334 84.12 106.43 83.528 106.43 82.824C106.43 82.12 106.334 81.532 106.142 81.06C105.95 80.58 105.686 80.22 105.35 79.98C105.014 79.732 104.626 79.608 104.186 79.608C103.754 79.608 103.37 79.732 103.034 79.98C102.698 80.22 102.434 80.58 102.242 81.06C102.058 81.532 101.966 82.12 101.966 82.824C101.966 83.528 102.058 84.12 102.242 84.6C102.434 85.08 102.698 85.444 103.034 85.692C103.37 85.932 103.758 86.052 104.198 86.052ZM112.097 87.12C111.473 87.12 110.901 86.944 110.381 86.592C109.869 86.24 109.461 85.744 109.157 85.104C108.853 84.456 108.701 83.696 108.701 82.824C108.701 81.952 108.849 81.196 109.145 80.556C109.449 79.916 109.857 79.424 110.369 79.08C110.881 78.728 111.445 78.552 112.061 78.552C112.693 78.552 113.265 78.728 113.777 79.08C114.289 79.424 114.693 79.916 114.989 80.556C115.293 81.196 115.445 81.956 115.445 82.836C115.445 83.708 115.293 84.468 114.989 85.116C114.693 85.756 114.289 86.252 113.777 86.604C113.273 86.948 112.713 87.12 112.097 87.12ZM112.073 86.052C112.513 86.052 112.897 85.932 113.225 85.692C113.561 85.444 113.825 85.08 114.017 84.6C114.209 84.12 114.305 83.528 114.305 82.824C114.305 82.12 114.209 81.532 114.017 81.06C113.825 80.58 113.561 80.22 113.225 79.98C112.889 79.732 112.501 79.608 112.061 79.608C111.629 79.608 111.245 79.732 110.909 79.98C110.573 80.22 110.309 80.58 110.117 81.06C109.933 81.532 109.841 82.12 109.841 82.824C109.841 83.528 109.933 84.12 110.117 84.6C110.309 85.08 110.573 85.444 110.909 85.692C111.245 85.932 111.633 86.052 112.073 86.052ZM119.972 87.12C119.348 87.12 118.776 86.944 118.256 86.592C117.744 86.24 117.336 85.744 117.032 85.104C116.728 84.456 116.576 83.696 116.576 82.824C116.576 81.952 116.724 81.196 117.02 80.556C117.324 79.916 117.732 79.424 118.244 79.08C118.756 78.728 119.32 78.552 119.936 78.552C120.568 78.552 121.14 78.728 121.652 79.08C122.164 79.424 122.568 79.916 122.864 80.556C123.168 81.196 123.32 81.956 123.32 82.836C123.32 83.708 123.168 84.468 122.864 85.116C122.568 85.756 122.164 86.252 121.652 86.604C121.148 86.948 120.588 87.12 119.972 87.12ZM119.948 86.052C120.388 86.052 120.772 85.932 121.1 85.692C121.436 85.444 121.7 85.08 121.892 84.6C122.084 84.12 122.18 83.528 122.18 82.824C122.18 82.12 122.084 81.532 121.892 81.06C121.7 80.58 121.436 80.22 121.1 79.98C120.764 79.732 120.376 79.608 119.936 79.608C119.504 79.608 119.12 79.732 118.784 79.98C118.448 80.22 118.184 80.58 117.992 81.06C117.808 81.532 117.716 82.12 117.716 82.824C117.716 83.528 117.808 84.12 117.992 84.6C118.184 85.08 118.448 85.444 118.784 85.692C119.12 85.932 119.508 86.052 119.948 86.052Z" fill="#EC7807"/>
<path d="M327.68 87V78.912H328.808V87H327.68ZM324.848 79.704V78.672H331.628V79.704H324.848ZM333.622 87.12C333.102 87.12 332.63 86.992 332.206 86.736C331.782 86.472 331.446 86.116 331.198 85.668C330.958 85.22 330.838 84.716 330.838 84.156C330.838 83.596 330.958 83.092 331.198 82.644C331.446 82.196 331.778 81.84 332.194 81.576C332.618 81.312 333.094 81.18 333.622 81.18C334.054 81.18 334.438 81.272 334.774 81.456C335.118 81.632 335.394 81.88 335.602 82.2C335.81 82.512 335.926 82.876 335.95 83.292V85.008C335.926 85.416 335.81 85.78 335.602 86.1C335.402 86.42 335.13 86.672 334.786 86.856C334.45 87.032 334.062 87.12 333.622 87.12ZM333.802 86.1C334.338 86.1 334.77 85.92 335.098 85.56C335.426 85.192 335.59 84.724 335.59 84.156C335.59 83.764 335.514 83.424 335.362 83.136C335.218 82.84 335.01 82.612 334.738 82.452C334.466 82.284 334.15 82.2 333.79 82.2C333.43 82.2 333.11 82.284 332.83 82.452C332.558 82.62 332.342 82.852 332.182 83.148C332.03 83.436 331.954 83.768 331.954 84.144C331.954 84.528 332.03 84.868 332.182 85.164C332.342 85.452 332.562 85.68 332.842 85.848C333.122 86.016 333.442 86.1 333.802 86.1ZM335.518 87V85.464L335.722 84.072L335.518 82.692V81.3H336.61V87H335.518ZM338.183 87V81.3H339.263V87H338.183ZM339.263 83.748L338.855 83.568C338.855 82.84 339.023 82.26 339.359 81.828C339.695 81.396 340.179 81.18 340.811 81.18C341.099 81.18 341.359 81.232 341.591 81.336C341.823 81.432 342.039 81.596 342.239 81.828L341.531 82.56C341.411 82.432 341.279 82.34 341.135 82.284C340.991 82.228 340.823 82.2 340.631 82.2C340.231 82.2 339.903 82.328 339.647 82.584C339.391 82.84 339.263 83.228 339.263 83.748ZM345.176 89.508C344.592 89.508 344.072 89.4 343.616 89.184C343.168 88.968 342.808 88.664 342.536 88.272L343.232 87.564C343.464 87.86 343.74 88.084 344.06 88.236C344.38 88.396 344.76 88.476 345.2 88.476C345.784 88.476 346.244 88.32 346.58 88.008C346.924 87.704 347.096 87.292 347.096 86.772V85.356L347.288 84.072L347.096 82.8V81.3H348.176V86.772C348.176 87.316 348.048 87.792 347.792 88.2C347.544 88.608 347.192 88.928 346.736 89.16C346.288 89.392 345.768 89.508 345.176 89.508ZM345.176 86.904C344.656 86.904 344.188 86.78 343.772 86.532C343.364 86.284 343.04 85.944 342.8 85.512C342.56 85.072 342.44 84.58 342.44 84.036C342.44 83.492 342.56 83.008 342.8 82.584C343.04 82.152 343.364 81.812 343.772 81.564C344.188 81.308 344.656 81.18 345.176 81.18C345.624 81.18 346.02 81.268 346.364 81.444C346.708 81.62 346.98 81.868 347.18 82.188C347.388 82.5 347.5 82.868 347.516 83.292V84.804C347.492 85.22 347.376 85.588 347.168 85.908C346.968 86.22 346.696 86.464 346.352 86.64C346.008 86.816 345.616 86.904 345.176 86.904ZM345.392 85.884C345.744 85.884 346.052 85.808 346.316 85.656C346.588 85.504 346.796 85.292 346.94 85.02C347.084 84.74 347.156 84.416 347.156 84.048C347.156 83.68 347.08 83.36 346.928 83.088C346.784 82.808 346.58 82.592 346.316 82.44C346.052 82.28 345.74 82.2 345.38 82.2C345.02 82.2 344.704 82.28 344.432 82.44C344.16 82.592 343.944 82.808 343.784 83.088C343.632 83.36 343.556 83.676 343.556 84.036C343.556 84.396 343.632 84.716 343.784 84.996C343.944 85.276 344.16 85.496 344.432 85.656C344.712 85.808 345.032 85.884 345.392 85.884ZM352.401 87.12C351.833 87.12 351.321 86.992 350.865 86.736C350.409 86.472 350.049 86.116 349.785 85.668C349.521 85.22 349.389 84.712 349.389 84.144C349.389 83.584 349.517 83.08 349.773 82.632C350.037 82.184 350.389 81.832 350.829 81.576C351.277 81.312 351.777 81.18 352.329 81.18C352.857 81.18 353.321 81.3 353.721 81.54C354.129 81.78 354.445 82.112 354.669 82.536C354.901 82.96 355.017 83.44 355.017 83.976C355.017 84.056 355.013 84.144 355.005 84.24C354.997 84.328 354.981 84.432 354.957 84.552H350.145V83.652H354.381L353.985 84C353.985 83.616 353.917 83.292 353.781 83.028C353.645 82.756 353.453 82.548 353.205 82.404C352.957 82.252 352.657 82.176 352.305 82.176C351.937 82.176 351.613 82.256 351.333 82.416C351.053 82.576 350.837 82.8 350.685 83.088C350.533 83.376 350.457 83.716 350.457 84.108C350.457 84.508 350.537 84.86 350.697 85.164C350.857 85.46 351.085 85.692 351.381 85.86C351.677 86.02 352.017 86.1 352.401 86.1C352.721 86.1 353.013 86.044 353.277 85.932C353.549 85.82 353.781 85.652 353.973 85.428L354.669 86.136C354.397 86.456 354.061 86.7 353.661 86.868C353.269 87.036 352.849 87.12 352.401 87.12ZM356.895 87V78.912H357.975V87H356.895ZM355.491 82.284V81.3H359.379V82.284H355.491ZM364.217 87V78.672H365.333V87H364.217ZM362.513 79.68V78.672H365.213V79.68H362.513ZM370.261 87.12C369.637 87.12 369.065 86.944 368.545 86.592C368.033 86.24 367.625 85.744 367.321 85.104C367.017 84.456 366.865 83.696 366.865 82.824C366.865 81.952 367.013 81.196 367.309 80.556C367.613 79.916 368.021 79.424 368.533 79.08C369.045 78.728 369.609 78.552 370.225 78.552C370.857 78.552 371.429 78.728 371.941 79.08C372.453 79.424 372.857 79.916 373.153 80.556C373.457 81.196 373.609 81.956 373.609 82.836C373.609 83.708 373.457 84.468 373.153 85.116C372.857 85.756 372.453 86.252 371.941 86.604C371.437 86.948 370.877 87.12 370.261 87.12ZM370.237 86.052C370.677 86.052 371.061 85.932 371.389 85.692C371.725 85.444 371.989 85.08 372.181 84.6C372.373 84.12 372.469 83.528 372.469 82.824C372.469 82.12 372.373 81.532 372.181 81.06C371.989 80.58 371.725 80.22 371.389 79.98C371.053 79.732 370.665 79.608 370.225 79.608C369.793 79.608 369.409 79.732 369.073 79.98C368.737 80.22 368.473 80.58 368.281 81.06C368.097 81.532 368.005 82.12 368.005 82.824C368.005 83.528 368.097 84.12 368.281 84.6C368.473 85.08 368.737 85.444 369.073 85.692C369.409 85.932 369.797 86.052 370.237 86.052ZM378.136 87.12C377.512 87.12 376.94 86.944 376.42 86.592C375.908 86.24 375.5 85.744 375.196 85.104C374.892 84.456 374.74 83.696 374.74 82.824C374.74 81.952 374.888 81.196 375.184 80.556C375.488 79.916 375.896 79.424 376.408 79.08C376.92 78.728 377.484 78.552 378.1 78.552C378.732 78.552 379.304 78.728 379.816 79.08C380.328 79.424 380.732 79.916 381.028 80.556C381.332 81.196 381.484 81.956 381.484 82.836C381.484 83.708 381.332 84.468 381.028 85.116C380.732 85.756 380.328 86.252 379.816 86.604C379.312 86.948 378.752 87.12 378.136 87.12ZM378.112 86.052C378.552 86.052 378.936 85.932 379.264 85.692C379.6 85.444 379.864 85.08 380.056 84.6C380.248 84.12 380.344 83.528 380.344 82.824C380.344 82.12 380.248 81.532 380.056 81.06C379.864 80.58 379.6 80.22 379.264 79.98C378.928 79.732 378.54 79.608 378.1 79.608C377.668 79.608 377.284 79.732 376.948 79.98C376.612 80.22 376.348 80.58 376.156 81.06C375.972 81.532 375.88 82.12 375.88 82.824C375.88 83.528 375.972 84.12 376.156 84.6C376.348 85.08 376.612 85.444 376.948 85.692C377.284 85.932 377.672 86.052 378.112 86.052ZM386.011 87.12C385.387 87.12 384.815 86.944 384.295 86.592C383.783 86.24 383.375 85.744 383.071 85.104C382.767 84.456 382.615 83.696 382.615 82.824C382.615 81.952 382.763 81.196 383.059 80.556C383.363 79.916 383.771 79.424 384.283 79.08C384.795 78.728 385.359 78.552 385.975 78.552C386.607 78.552 387.179 78.728 387.691 79.08C388.203 79.424 388.607 79.916 388.903 80.556C389.207 81.196 389.359 81.956 389.359 82.836C389.359 83.708 389.207 84.468 388.903 85.116C388.607 85.756 388.203 86.252 387.691 86.604C387.187 86.948 386.627 87.12 386.011 87.12ZM385.987 86.052C386.427 86.052 386.811 85.932 387.139 85.692C387.475 85.444 387.739 85.08 387.931 84.6C388.123 84.12 388.219 83.528 388.219 82.824C388.219 82.12 388.123 81.532 387.931 81.06C387.739 80.58 387.475 80.22 387.139 79.98C386.803 79.732 386.415 79.608 385.975 79.608C385.543 79.608 385.159 79.732 384.823 79.98C384.487 80.22 384.223 80.58 384.031 81.06C383.847 81.532 383.755 82.12 383.755 82.824C383.755 83.528 383.847 84.12 384.031 84.6C384.223 85.08 384.487 85.444 384.823 85.692C385.159 85.932 385.547 86.052 385.987 86.052ZM393.886 87.12C393.262 87.12 392.69 86.944 392.17 86.592C391.658 86.24 391.25 85.744 390.946 85.104C390.642 84.456 390.49 83.696 390.49 82.824C390.49 81.952 390.638 81.196 390.934 80.556C391.238 79.916 391.646 79.424 392.158 79.08C392.67 78.728 393.234 78.552 393.85 78.552C394.482 78.552 395.054 78.728 395.566 79.08C396.078 79.424 396.482 79.916 396.778 80.556C397.082 81.196 397.234 81.956 397.234 82.836C397.234 83.708 397.082 84.468 396.778 85.116C396.482 85.756 396.078 86.252 395.566 86.604C395.062 86.948 394.502 87.12 393.886 87.12ZM393.862 86.052C394.302 86.052 394.686 85.932 395.014 85.692C395.35 85.444 395.614 85.08 395.806 84.6C395.998 84.12 396.094 83.528 396.094 82.824C396.094 82.12 395.998 81.532 395.806 81.06C395.614 80.58 395.35 80.22 395.014 79.98C394.678 79.732 394.29 79.608 393.85 79.608C393.418 79.608 393.034 79.732 392.698 79.98C392.362 80.22 392.098 80.58 391.906 81.06C391.722 81.532 391.63 82.12 391.63 82.824C391.63 83.528 391.722 84.12 391.906 84.6C392.098 85.08 392.362 85.444 392.698 85.692C393.034 85.932 393.422 86.052 393.862 86.052Z" fill="#EC7807"/>
<path d="M5.12828 121.664L0.776281 114.752H3.28828L6.66428 120.288H5.22428L8.60028 114.752H11.0803L6.68028 121.664H5.12828ZM4.84028 126V120.496H7.03228V126H4.84028ZM13.6592 126.16C12.8485 126.16 12.1285 125.989 11.4992 125.648C10.8698 125.296 10.3685 124.816 9.99516 124.208C9.63249 123.6 9.45116 122.907 9.45116 122.128C9.45116 121.36 9.62716 120.677 9.97916 120.08C10.3418 119.472 10.8325 118.992 11.4512 118.64C12.0698 118.277 12.7578 118.096 13.5152 118.096C14.2618 118.096 14.9178 118.267 15.4832 118.608C16.0592 118.939 16.5072 119.397 16.8272 119.984C17.1578 120.56 17.3232 121.216 17.3232 121.952C17.3232 122.091 17.3125 122.235 17.2912 122.384C17.2805 122.523 17.2538 122.683 17.2112 122.864L10.7152 122.88V121.312L16.2352 121.296L15.3872 121.952C15.3658 121.493 15.2805 121.109 15.1312 120.8C14.9925 120.491 14.7845 120.256 14.5072 120.096C14.2405 119.925 13.9098 119.84 13.5152 119.84C13.0992 119.84 12.7365 119.936 12.4272 120.128C12.1178 120.309 11.8778 120.571 11.7072 120.912C11.5472 121.243 11.4672 121.637 11.4672 122.096C11.4672 122.565 11.5525 122.976 11.7232 123.328C11.9045 123.669 12.1605 123.936 12.4912 124.128C12.8218 124.309 13.2058 124.4 13.6432 124.4C14.0378 124.4 14.3952 124.336 14.7152 124.208C15.0352 124.069 15.3125 123.867 15.5472 123.6L16.7792 124.832C16.4058 125.269 15.9472 125.6 15.4032 125.824C14.8698 126.048 14.2885 126.16 13.6592 126.16ZM21.2754 126.176C20.8381 126.176 20.4061 126.117 19.9794 126C19.5634 125.883 19.1794 125.723 18.8274 125.52C18.4754 125.307 18.1714 125.051 17.9154 124.752L19.1634 123.488C19.4301 123.787 19.7394 124.011 20.0914 124.16C20.4434 124.309 20.8327 124.384 21.2594 124.384C21.6007 124.384 21.8567 124.336 22.0274 124.24C22.2087 124.144 22.2994 124 22.2994 123.808C22.2994 123.595 22.2034 123.429 22.0114 123.312C21.8301 123.195 21.5901 123.099 21.2914 123.024C20.9927 122.939 20.6781 122.848 20.3474 122.752C20.0274 122.645 19.7181 122.512 19.4194 122.352C19.1207 122.181 18.8754 121.952 18.6834 121.664C18.5021 121.365 18.4114 120.981 18.4114 120.512C18.4114 120.021 18.5287 119.595 18.7634 119.232C19.0087 118.869 19.3554 118.587 19.8034 118.384C20.2514 118.181 20.7794 118.08 21.3874 118.08C22.0274 118.08 22.6034 118.192 23.1154 118.416C23.6381 118.64 24.0701 118.976 24.4114 119.424L23.1474 120.688C22.9127 120.4 22.6461 120.192 22.3474 120.064C22.0594 119.936 21.7447 119.872 21.4034 119.872C21.0941 119.872 20.8541 119.92 20.6834 120.016C20.5234 120.112 20.4434 120.245 20.4434 120.416C20.4434 120.608 20.5341 120.757 20.7154 120.864C20.9074 120.971 21.1527 121.067 21.4514 121.152C21.7501 121.227 22.0594 121.317 22.3794 121.424C22.7101 121.52 23.0194 121.659 23.3074 121.84C23.6061 122.021 23.8461 122.261 24.0274 122.56C24.2194 122.859 24.3154 123.243 24.3154 123.712C24.3154 124.469 24.0434 125.072 23.4994 125.52C22.9554 125.957 22.2141 126.176 21.2754 126.176ZM26.8648 126V115.056H28.9608V126H26.8648ZM25.0568 120.112V118.272H30.7688V120.112H25.0568ZM35.456 126.16C34.6454 126.16 33.9254 125.989 33.296 125.648C32.6667 125.296 32.1654 124.816 31.792 124.208C31.4294 123.6 31.248 122.907 31.248 122.128C31.248 121.36 31.424 120.677 31.776 120.08C32.1387 119.472 32.6294 118.992 33.248 118.64C33.8667 118.277 34.5547 118.096 35.312 118.096C36.0587 118.096 36.7147 118.267 37.28 118.608C37.856 118.939 38.304 119.397 38.624 119.984C38.9547 120.56 39.12 121.216 39.12 121.952C39.12 122.091 39.1094 122.235 39.088 122.384C39.0774 122.523 39.0507 122.683 39.008 122.864L32.512 122.88V121.312L38.032 121.296L37.184 121.952C37.1627 121.493 37.0774 121.109 36.928 120.8C36.7894 120.491 36.5814 120.256 36.304 120.096C36.0374 119.925 35.7067 119.84 35.312 119.84C34.896 119.84 34.5334 119.936 34.224 120.128C33.9147 120.309 33.6747 120.571 33.504 120.912C33.344 121.243 33.264 121.637 33.264 122.096C33.264 122.565 33.3494 122.976 33.52 123.328C33.7014 123.669 33.9574 123.936 34.288 124.128C34.6187 124.309 35.0027 124.4 35.44 124.4C35.8347 124.4 36.192 124.336 36.512 124.208C36.832 124.069 37.1094 123.867 37.344 123.6L38.576 124.832C38.2027 125.269 37.744 125.6 37.2 125.824C36.6667 126.048 36.0854 126.16 35.456 126.16ZM40.4163 126V118.272H42.5123V126H40.4163ZM42.5123 121.728L41.6963 121.184C41.7923 120.235 42.0696 119.488 42.5283 118.944C42.9869 118.389 43.6483 118.112 44.5123 118.112C44.8856 118.112 45.2216 118.176 45.5203 118.304C45.8189 118.421 46.0909 118.619 46.3363 118.896L45.0243 120.4C44.9069 120.272 44.7629 120.176 44.5923 120.112C44.4323 120.048 44.2456 120.016 44.0323 120.016C43.5843 120.016 43.2163 120.16 42.9283 120.448C42.6509 120.725 42.5123 121.152 42.5123 121.728ZM50.1178 126.16C49.4031 126.16 48.7631 125.984 48.1978 125.632C47.6324 125.28 47.1844 124.8 46.8538 124.192C46.5338 123.584 46.3738 122.901 46.3738 122.144C46.3738 121.376 46.5338 120.688 46.8538 120.08C47.1844 119.472 47.6271 118.992 48.1818 118.64C48.7471 118.288 49.3924 118.112 50.1178 118.112C50.6724 118.112 51.1684 118.224 51.6058 118.448C52.0538 118.672 52.4111 118.987 52.6778 119.392C52.9551 119.787 53.1044 120.235 53.1258 120.736V123.488C53.1044 123.989 52.9604 124.443 52.6938 124.848C52.4271 125.253 52.0698 125.573 51.6218 125.808C51.1738 126.043 50.6724 126.16 50.1178 126.16ZM50.4698 124.224C50.8644 124.224 51.2058 124.139 51.4938 123.968C51.7924 123.787 52.0218 123.541 52.1818 123.232C52.3524 122.912 52.4378 122.544 52.4378 122.128C52.4378 121.723 52.3524 121.365 52.1818 121.056C52.0218 120.736 51.7924 120.491 51.4938 120.32C51.2058 120.139 50.8698 120.048 50.4858 120.048C50.0911 120.048 49.7444 120.139 49.4458 120.32C49.1578 120.501 48.9284 120.747 48.7578 121.056C48.5978 121.365 48.5178 121.723 48.5178 122.128C48.5178 122.544 48.5978 122.912 48.7578 123.232C48.9284 123.541 49.1631 123.787 49.4618 123.968C49.7604 124.139 50.0964 124.224 50.4698 124.224ZM54.4058 126H52.3258V123.92L52.6618 122.032L52.3098 120.176V114.432H54.4058V126ZM59.492 126.16C58.788 126.16 58.1534 125.984 57.588 125.632C57.0227 125.28 56.58 124.8 56.26 124.192C55.94 123.584 55.78 122.901 55.78 122.144C55.78 121.376 55.94 120.688 56.26 120.08C56.58 119.472 57.0227 118.992 57.588 118.64C58.1534 118.288 58.788 118.112 59.492 118.112C60.0467 118.112 60.5427 118.224 60.98 118.448C61.4174 118.672 61.764 118.987 62.02 119.392C62.2867 119.787 62.4307 120.235 62.452 120.736V123.52C62.4307 124.032 62.2867 124.485 62.02 124.88C61.764 125.275 61.4174 125.589 60.98 125.824C60.5427 126.048 60.0467 126.16 59.492 126.16ZM59.876 124.224C60.4627 124.224 60.9374 124.032 61.3 123.648C61.6627 123.253 61.844 122.747 61.844 122.128C61.844 121.723 61.7587 121.365 61.588 121.056C61.428 120.736 61.1987 120.491 60.9 120.32C60.612 120.139 60.2707 120.048 59.876 120.048C59.492 120.048 59.1507 120.139 58.852 120.32C58.564 120.491 58.3347 120.736 58.164 121.056C58.004 121.365 57.924 121.723 57.924 122.128C57.924 122.544 58.004 122.912 58.164 123.232C58.3347 123.541 58.564 123.787 58.852 123.968C59.1507 124.139 59.492 124.224 59.876 124.224ZM61.732 126V123.92L62.068 122.032L61.732 120.176V118.272H63.812V126H61.732ZM68.0983 126.064L64.8663 118.272H67.1383L69.2823 124.224H68.5143L70.7383 118.272H73.0263L69.5863 126.064H68.0983ZM65.9543 129.232L68.3063 124.256L69.5863 126.064L68.1783 129.232H65.9543Z" fill="white"/>
<rect x="93.4883" y="110" width="300" height="15" rx="7.5" fill="#0AAA07"/>
<path d="M95.5643 146.234V137.906H96.6803V146.234H95.5643ZM93.8603 138.914V137.906H96.5603V138.914H93.8603ZM101.608 146.354C100.984 146.354 100.412 146.178 99.8924 145.826C99.3804 145.474 98.9724 144.978 98.6684 144.338C98.3644 143.69 98.2124 142.93 98.2124 142.058C98.2124 141.186 98.3604 140.43 98.6564 139.79C98.9604 139.15 99.3684 138.658 99.8804 138.314C100.392 137.962 100.956 137.786 101.572 137.786C102.204 137.786 102.776 137.962 103.288 138.314C103.8 138.658 104.204 139.15 104.5 139.79C104.804 140.43 104.956 141.19 104.956 142.07C104.956 142.942 104.804 143.702 104.5 144.35C104.204 144.99 103.8 145.486 103.288 145.838C102.784 146.182 102.224 146.354 101.608 146.354ZM101.584 145.286C102.024 145.286 102.408 145.166 102.736 144.926C103.072 144.678 103.336 144.314 103.528 143.834C103.72 143.354 103.816 142.762 103.816 142.058C103.816 141.354 103.72 140.766 103.528 140.294C103.336 139.814 103.072 139.454 102.736 139.214C102.4 138.966 102.012 138.842 101.572 138.842C101.14 138.842 100.756 138.966 100.42 139.214C100.084 139.454 99.8204 139.814 99.6284 140.294C99.4444 140.766 99.3524 141.354 99.3524 142.058C99.3524 142.762 99.4444 143.354 99.6284 143.834C99.8204 144.314 100.084 144.678 100.42 144.926C100.756 145.166 101.144 145.286 101.584 145.286ZM109.483 146.354C108.859 146.354 108.287 146.178 107.767 145.826C107.255 145.474 106.847 144.978 106.543 144.338C106.239 143.69 106.087 142.93 106.087 142.058C106.087 141.186 106.235 140.43 106.531 139.79C106.835 139.15 107.243 138.658 107.755 138.314C108.267 137.962 108.831 137.786 109.447 137.786C110.079 137.786 110.651 137.962 111.163 138.314C111.675 138.658 112.079 139.15 112.375 139.79C112.679 140.43 112.831 141.19 112.831 142.07C112.831 142.942 112.679 143.702 112.375 144.35C112.079 144.99 111.675 145.486 111.163 145.838C110.659 146.182 110.099 146.354 109.483 146.354ZM109.459 145.286C109.899 145.286 110.283 145.166 110.611 144.926C110.947 144.678 111.211 144.314 111.403 143.834C111.595 143.354 111.691 142.762 111.691 142.058C111.691 141.354 111.595 140.766 111.403 140.294C111.211 139.814 110.947 139.454 110.611 139.214C110.275 138.966 109.887 138.842 109.447 138.842C109.015 138.842 108.631 138.966 108.295 139.214C107.959 139.454 107.695 139.814 107.503 140.294C107.319 140.766 107.227 141.354 107.227 142.058C107.227 142.762 107.319 143.354 107.503 143.834C107.695 144.314 107.959 144.678 108.295 144.926C108.631 145.166 109.019 145.286 109.459 145.286ZM117.358 146.354C116.734 146.354 116.162 146.178 115.642 145.826C115.13 145.474 114.722 144.978 114.418 144.338C114.114 143.69 113.962 142.93 113.962 142.058C113.962 141.186 114.11 140.43 114.406 139.79C114.71 139.15 115.118 138.658 115.63 138.314C116.142 137.962 116.706 137.786 117.322 137.786C117.954 137.786 118.526 137.962 119.038 138.314C119.55 138.658 119.954 139.15 120.25 139.79C120.554 140.43 120.706 141.19 120.706 142.07C120.706 142.942 120.554 143.702 120.25 144.35C119.954 144.99 119.55 145.486 119.038 145.838C118.534 146.182 117.974 146.354 117.358 146.354ZM117.334 145.286C117.774 145.286 118.158 145.166 118.486 144.926C118.822 144.678 119.086 144.314 119.278 143.834C119.47 143.354 119.566 142.762 119.566 142.058C119.566 141.354 119.47 140.766 119.278 140.294C119.086 139.814 118.822 139.454 118.486 139.214C118.15 138.966 117.762 138.842 117.322 138.842C116.89 138.842 116.506 138.966 116.17 139.214C115.834 139.454 115.57 139.814 115.378 140.294C115.194 140.766 115.102 141.354 115.102 142.058C115.102 142.762 115.194 143.354 115.378 143.834C115.57 144.314 115.834 144.678 116.17 144.926C116.506 145.166 116.894 145.286 117.334 145.286ZM125.233 146.354C124.609 146.354 124.037 146.178 123.517 145.826C123.005 145.474 122.597 144.978 122.293 144.338C121.989 143.69 121.837 142.93 121.837 142.058C121.837 141.186 121.985 140.43 122.281 139.79C122.585 139.15 122.993 138.658 123.505 138.314C124.017 137.962 124.581 137.786 125.197 137.786C125.829 137.786 126.401 137.962 126.913 138.314C127.425 138.658 127.829 139.15 128.125 139.79C128.429 140.43 128.581 141.19 128.581 142.07C128.581 142.942 128.429 143.702 128.125 144.35C127.829 144.99 127.425 145.486 126.913 145.838C126.409 146.182 125.849 146.354 125.233 146.354ZM125.209 145.286C125.649 145.286 126.033 145.166 126.361 144.926C126.697 144.678 126.961 144.314 127.153 143.834C127.345 143.354 127.441 142.762 127.441 142.058C127.441 141.354 127.345 140.766 127.153 140.294C126.961 139.814 126.697 139.454 126.361 139.214C126.025 138.966 125.637 138.842 125.197 138.842C124.765 138.842 124.381 138.966 124.045 139.214C123.709 139.454 123.445 139.814 123.253 140.294C123.069 140.766 122.977 141.354 122.977 142.058C122.977 142.762 123.069 143.354 123.253 143.834C123.445 144.314 123.709 144.678 124.045 144.926C124.381 145.166 124.769 145.286 125.209 145.286Z" fill="#0AAA07"/>
<path d="M324.68 146.234V138.146H325.808V146.234H324.68ZM321.848 138.938V137.906H328.628V138.938H321.848ZM330.622 146.354C330.102 146.354 329.63 146.226 329.206 145.97C328.782 145.706 328.446 145.35 328.198 144.902C327.958 144.454 327.838 143.95 327.838 143.39C327.838 142.83 327.958 142.326 328.198 141.878C328.446 141.43 328.778 141.074 329.194 140.81C329.618 140.546 330.094 140.414 330.622 140.414C331.054 140.414 331.438 140.506 331.774 140.69C332.118 140.866 332.394 141.114 332.602 141.434C332.81 141.746 332.926 142.11 332.95 142.526V144.242C332.926 144.65 332.81 145.014 332.602 145.334C332.402 145.654 332.13 145.906 331.786 146.09C331.45 146.266 331.062 146.354 330.622 146.354ZM330.802 145.334C331.338 145.334 331.77 145.154 332.098 144.794C332.426 144.426 332.59 143.958 332.59 143.39C332.59 142.998 332.514 142.658 332.362 142.37C332.218 142.074 332.01 141.846 331.738 141.686C331.466 141.518 331.15 141.434 330.79 141.434C330.43 141.434 330.11 141.518 329.83 141.686C329.558 141.854 329.342 142.086 329.182 142.382C329.03 142.67 328.954 143.002 328.954 143.378C328.954 143.762 329.03 144.102 329.182 144.398C329.342 144.686 329.562 144.914 329.842 145.082C330.122 145.25 330.442 145.334 330.802 145.334ZM332.518 146.234V144.698L332.722 143.306L332.518 141.926V140.534H333.61V146.234H332.518ZM335.183 146.234V140.534H336.263V146.234H335.183ZM336.263 142.982L335.855 142.802C335.855 142.074 336.023 141.494 336.359 141.062C336.695 140.63 337.179 140.414 337.811 140.414C338.099 140.414 338.359 140.466 338.591 140.57C338.823 140.666 339.039 140.83 339.239 141.062L338.531 141.794C338.411 141.666 338.279 141.574 338.135 141.518C337.991 141.462 337.823 141.434 337.631 141.434C337.231 141.434 336.903 141.562 336.647 141.818C336.391 142.074 336.263 142.462 336.263 142.982ZM342.176 148.742C341.592 148.742 341.072 148.634 340.616 148.418C340.168 148.202 339.808 147.898 339.536 147.506L340.232 146.798C340.464 147.094 340.74 147.318 341.06 147.47C341.38 147.63 341.76 147.71 342.2 147.71C342.784 147.71 343.244 147.554 343.58 147.242C343.924 146.938 344.096 146.526 344.096 146.006V144.59L344.288 143.306L344.096 142.034V140.534H345.176V146.006C345.176 146.55 345.048 147.026 344.792 147.434C344.544 147.842 344.192 148.162 343.736 148.394C343.288 148.626 342.768 148.742 342.176 148.742ZM342.176 146.138C341.656 146.138 341.188 146.014 340.772 145.766C340.364 145.518 340.04 145.178 339.8 144.746C339.56 144.306 339.44 143.814 339.44 143.27C339.44 142.726 339.56 142.242 339.8 141.818C340.04 141.386 340.364 141.046 340.772 140.798C341.188 140.542 341.656 140.414 342.176 140.414C342.624 140.414 343.02 140.502 343.364 140.678C343.708 140.854 343.98 141.102 344.18 141.422C344.388 141.734 344.5 142.102 344.516 142.526V144.038C344.492 144.454 344.376 144.822 344.168 145.142C343.968 145.454 343.696 145.698 343.352 145.874C343.008 146.05 342.616 146.138 342.176 146.138ZM342.392 145.118C342.744 145.118 343.052 145.042 343.316 144.89C343.588 144.738 343.796 144.526 343.94 144.254C344.084 143.974 344.156 143.65 344.156 143.282C344.156 142.914 344.08 142.594 343.928 142.322C343.784 142.042 343.58 141.826 343.316 141.674C343.052 141.514 342.74 141.434 342.38 141.434C342.02 141.434 341.704 141.514 341.432 141.674C341.16 141.826 340.944 142.042 340.784 142.322C340.632 142.594 340.556 142.91 340.556 143.27C340.556 143.63 340.632 143.95 340.784 144.23C340.944 144.51 341.16 144.73 341.432 144.89C341.712 145.042 342.032 145.118 342.392 145.118ZM349.401 146.354C348.833 146.354 348.321 146.226 347.865 145.97C347.409 145.706 347.049 145.35 346.785 144.902C346.521 144.454 346.389 143.946 346.389 143.378C346.389 142.818 346.517 142.314 346.773 141.866C347.037 141.418 347.389 141.066 347.829 140.81C348.277 140.546 348.777 140.414 349.329 140.414C349.857 140.414 350.321 140.534 350.721 140.774C351.129 141.014 351.445 141.346 351.669 141.77C351.901 142.194 352.017 142.674 352.017 143.21C352.017 143.29 352.013 143.378 352.005 143.474C351.997 143.562 351.981 143.666 351.957 143.786H347.145V142.886H351.381L350.985 143.234C350.985 142.85 350.917 142.526 350.781 142.262C350.645 141.99 350.453 141.782 350.205 141.638C349.957 141.486 349.657 141.41 349.305 141.41C348.937 141.41 348.613 141.49 348.333 141.65C348.053 141.81 347.837 142.034 347.685 142.322C347.533 142.61 347.457 142.95 347.457 143.342C347.457 143.742 347.537 144.094 347.697 144.398C347.857 144.694 348.085 144.926 348.381 145.094C348.677 145.254 349.017 145.334 349.401 145.334C349.721 145.334 350.013 145.278 350.277 145.166C350.549 145.054 350.781 144.886 350.973 144.662L351.669 145.37C351.397 145.69 351.061 145.934 350.661 146.102C350.269 146.27 349.849 146.354 349.401 146.354ZM353.895 146.234V138.146H354.975V146.234H353.895ZM352.491 141.518V140.534H356.379V141.518H352.491ZM361.217 146.234V137.906H362.333V146.234H361.217ZM359.513 138.914V137.906H362.213V138.914H359.513ZM367.261 146.354C366.637 146.354 366.065 146.178 365.545 145.826C365.033 145.474 364.625 144.978 364.321 144.338C364.017 143.69 363.865 142.93 363.865 142.058C363.865 141.186 364.013 140.43 364.309 139.79C364.613 139.15 365.021 138.658 365.533 138.314C366.045 137.962 366.609 137.786 367.225 137.786C367.857 137.786 368.429 137.962 368.941 138.314C369.453 138.658 369.857 139.15 370.153 139.79C370.457 140.43 370.609 141.19 370.609 142.07C370.609 142.942 370.457 143.702 370.153 144.35C369.857 144.99 369.453 145.486 368.941 145.838C368.437 146.182 367.877 146.354 367.261 146.354ZM367.237 145.286C367.677 145.286 368.061 145.166 368.389 144.926C368.725 144.678 368.989 144.314 369.181 143.834C369.373 143.354 369.469 142.762 369.469 142.058C369.469 141.354 369.373 140.766 369.181 140.294C368.989 139.814 368.725 139.454 368.389 139.214C368.053 138.966 367.665 138.842 367.225 138.842C366.793 138.842 366.409 138.966 366.073 139.214C365.737 139.454 365.473 139.814 365.281 140.294C365.097 140.766 365.005 141.354 365.005 142.058C365.005 142.762 365.097 143.354 365.281 143.834C365.473 144.314 365.737 144.678 366.073 144.926C366.409 145.166 366.797 145.286 367.237 145.286ZM375.136 146.354C374.512 146.354 373.94 146.178 373.42 145.826C372.908 145.474 372.5 144.978 372.196 144.338C371.892 143.69 371.74 142.93 371.74 142.058C371.74 141.186 371.888 140.43 372.184 139.79C372.488 139.15 372.896 138.658 373.408 138.314C373.92 137.962 374.484 137.786 375.1 137.786C375.732 137.786 376.304 137.962 376.816 138.314C377.328 138.658 377.732 139.15 378.028 139.79C378.332 140.43 378.484 141.19 378.484 142.07C378.484 142.942 378.332 143.702 378.028 144.35C377.732 144.99 377.328 145.486 376.816 145.838C376.312 146.182 375.752 146.354 375.136 146.354ZM375.112 145.286C375.552 145.286 375.936 145.166 376.264 144.926C376.6 144.678 376.864 144.314 377.056 143.834C377.248 143.354 377.344 142.762 377.344 142.058C377.344 141.354 377.248 140.766 377.056 140.294C376.864 139.814 376.6 139.454 376.264 139.214C375.928 138.966 375.54 138.842 375.1 138.842C374.668 138.842 374.284 138.966 373.948 139.214C373.612 139.454 373.348 139.814 373.156 140.294C372.972 140.766 372.88 141.354 372.88 142.058C372.88 142.762 372.972 143.354 373.156 143.834C373.348 144.314 373.612 144.678 373.948 144.926C374.284 145.166 374.672 145.286 375.112 145.286ZM383.011 146.354C382.387 146.354 381.815 146.178 381.295 145.826C380.783 145.474 380.375 144.978 380.071 144.338C379.767 143.69 379.615 142.93 379.615 142.058C379.615 141.186 379.763 140.43 380.059 139.79C380.363 139.15 380.771 138.658 381.283 138.314C381.795 137.962 382.359 137.786 382.975 137.786C383.607 137.786 384.179 137.962 384.691 138.314C385.203 138.658 385.607 139.15 385.903 139.79C386.207 140.43 386.359 141.19 386.359 142.07C386.359 142.942 386.207 143.702 385.903 144.35C385.607 144.99 385.203 145.486 384.691 145.838C384.187 146.182 383.627 146.354 383.011 146.354ZM382.987 145.286C383.427 145.286 383.811 145.166 384.139 144.926C384.475 144.678 384.739 144.314 384.931 143.834C385.123 143.354 385.219 142.762 385.219 142.058C385.219 141.354 385.123 140.766 384.931 140.294C384.739 139.814 384.475 139.454 384.139 139.214C383.803 138.966 383.415 138.842 382.975 138.842C382.543 138.842 382.159 138.966 381.823 139.214C381.487 139.454 381.223 139.814 381.031 140.294C380.847 140.766 380.755 141.354 380.755 142.058C380.755 142.762 380.847 143.354 381.031 143.834C381.223 144.314 381.487 144.678 381.823 144.926C382.159 145.166 382.547 145.286 382.987 145.286ZM390.886 146.354C390.262 146.354 389.69 146.178 389.17 145.826C388.658 145.474 388.25 144.978 387.946 144.338C387.642 143.69 387.49 142.93 387.49 142.058C387.49 141.186 387.638 140.43 387.934 139.79C388.238 139.15 388.646 138.658 389.158 138.314C389.67 137.962 390.234 137.786 390.85 137.786C391.482 137.786 392.054 137.962 392.566 138.314C393.078 138.658 393.482 139.15 393.778 139.79C394.082 140.43 394.234 141.19 394.234 142.07C394.234 142.942 394.082 143.702 393.778 144.35C393.482 144.99 393.078 145.486 392.566 145.838C392.062 146.182 391.502 146.354 390.886 146.354ZM390.862 145.286C391.302 145.286 391.686 145.166 392.014 144.926C392.35 144.678 392.614 144.314 392.806 143.834C392.998 143.354 393.094 142.762 393.094 142.058C393.094 141.354 392.998 140.766 392.806 140.294C392.614 139.814 392.35 139.454 392.014 139.214C391.678 138.966 391.29 138.842 390.85 138.842C390.418 138.842 390.034 138.966 389.698 139.214C389.362 139.454 389.098 139.814 388.906 140.294C388.722 140.766 388.63 141.354 388.63 142.058C388.63 142.762 388.722 143.354 388.906 143.834C389.098 144.314 389.362 144.678 389.698 144.926C390.034 145.166 390.422 145.286 390.862 145.286Z" fill="#0AAA07"/>
</svg>
