<svg width="206" height="181" viewBox="0 0 206 181" fill="none" xmlns="http://www.w3.org/2000/svg">
<path d="M67.404 24.5V7.988H70.692V24.5H67.404ZM62.028 10.532V7.628H76.068V10.532H62.028ZM79.9509 24.74C78.8949 24.74 77.9429 24.476 77.0949 23.948C76.2469 23.42 75.5829 22.7 75.1029 21.788C74.6229 20.876 74.3829 19.852 74.3829 18.716C74.3829 17.564 74.6229 16.532 75.1029 15.62C75.5829 14.708 76.2469 13.988 77.0949 13.46C77.9429 12.932 78.8949 12.668 79.9509 12.668C80.7829 12.668 81.5269 12.836 82.1829 13.172C82.8389 13.508 83.3589 13.98 83.7429 14.588C84.1429 15.18 84.3589 15.852 84.3909 16.604V20.78C84.3589 21.548 84.1429 22.228 83.7429 22.82C83.3589 23.412 82.8389 23.884 82.1829 24.236C81.5269 24.572 80.7829 24.74 79.9509 24.74ZM80.5269 21.836C81.4069 21.836 82.1189 21.548 82.6629 20.972C83.2069 20.38 83.4789 19.62 83.4789 18.692C83.4789 18.084 83.3509 17.548 83.0949 17.084C82.8549 16.604 82.5109 16.236 82.0629 15.98C81.6309 15.708 81.1189 15.572 80.5269 15.572C79.9509 15.572 79.4389 15.708 78.9909 15.98C78.5589 16.236 78.2149 16.604 77.9589 17.084C77.7189 17.548 77.5989 18.084 77.5989 18.692C77.5989 19.316 77.7189 19.868 77.9589 20.348C78.2149 20.812 78.5589 21.18 78.9909 21.452C79.4389 21.708 79.9509 21.836 80.5269 21.836ZM83.3109 24.5V21.38L83.8149 18.548L83.3109 15.764V12.908H86.4309V24.5H83.3109ZM89.2123 24.5V12.908H92.3563V24.5H89.2123ZM92.3563 18.092L91.1323 17.276C91.2763 15.852 91.6923 14.732 92.3803 13.916C93.0683 13.084 94.0603 12.668 95.3563 12.668C95.9163 12.668 96.4203 12.764 96.8683 12.956C97.3163 13.132 97.7243 13.428 98.0923 13.844L96.1243 16.1C95.9483 15.908 95.7323 15.764 95.4763 15.668C95.2363 15.572 94.9563 15.524 94.6363 15.524C93.9643 15.524 93.4123 15.74 92.9803 16.172C92.5643 16.588 92.3563 17.228 92.3563 18.092ZM103.717 29.636C102.485 29.636 101.397 29.412 100.453 28.964C99.5086 28.532 98.7566 27.916 98.1966 27.116L100.189 25.124C100.637 25.652 101.133 26.052 101.677 26.324C102.237 26.612 102.909 26.756 103.693 26.756C104.669 26.756 105.437 26.508 105.997 26.012C106.573 25.516 106.861 24.828 106.861 23.948V21.044L107.389 18.5L106.885 15.956V12.908H110.005V23.9C110.005 25.052 109.733 26.052 109.189 26.9C108.661 27.764 107.925 28.436 106.981 28.916C106.037 29.396 104.949 29.636 103.717 29.636ZM103.573 24.188C102.533 24.188 101.597 23.94 100.765 23.444C99.9326 22.932 99.2766 22.236 98.7966 21.356C98.3326 20.476 98.1006 19.492 98.1006 18.404C98.1006 17.316 98.3326 16.34 98.7966 15.476C99.2766 14.612 99.9326 13.932 100.765 13.436C101.597 12.924 102.533 12.668 103.573 12.668C104.437 12.668 105.197 12.836 105.853 13.172C106.525 13.508 107.053 13.972 107.437 14.564C107.821 15.14 108.029 15.82 108.061 16.604V20.252C108.029 21.02 107.813 21.708 107.413 22.316C107.029 22.908 106.501 23.372 105.829 23.708C105.173 24.028 104.421 24.188 103.573 24.188ZM104.197 21.332C104.773 21.332 105.269 21.212 105.685 20.972C106.117 20.716 106.453 20.372 106.693 19.94C106.933 19.492 107.053 18.988 107.053 18.428C107.053 17.852 106.933 17.348 106.693 16.916C106.453 16.484 106.117 16.148 105.685 15.908C105.269 15.652 104.773 15.524 104.197 15.524C103.621 15.524 103.117 15.652 102.685 15.908C102.253 16.148 101.917 16.492 101.677 16.94C101.437 17.372 101.317 17.868 101.317 18.428C101.317 18.972 101.437 19.468 101.677 19.916C101.917 20.348 102.253 20.692 102.685 20.948C103.117 21.204 103.621 21.332 104.197 21.332ZM118.311 24.74C117.095 24.74 116.015 24.484 115.071 23.972C114.127 23.444 113.375 22.724 112.815 21.812C112.271 20.9 111.999 19.86 111.999 18.692C111.999 17.54 112.263 16.516 112.791 15.62C113.335 14.708 114.071 13.988 114.999 13.46C115.927 12.916 116.959 12.644 118.095 12.644C119.215 12.644 120.199 12.9 121.047 13.412C121.911 13.908 122.583 14.596 123.063 15.476C123.559 16.34 123.807 17.324 123.807 18.428C123.807 18.636 123.791 18.852 123.759 19.076C123.743 19.284 123.703 19.524 123.639 19.796L113.895 19.82V17.468L122.175 17.444L120.903 18.428C120.871 17.74 120.743 17.164 120.519 16.7C120.311 16.236 119.999 15.884 119.583 15.644C119.183 15.388 118.687 15.26 118.095 15.26C117.471 15.26 116.927 15.404 116.463 15.692C115.999 15.964 115.639 16.356 115.383 16.868C115.143 17.364 115.023 17.956 115.023 18.644C115.023 19.348 115.151 19.964 115.407 20.492C115.679 21.004 116.063 21.404 116.559 21.692C117.055 21.964 117.631 22.1 118.287 22.1C118.879 22.1 119.415 22.004 119.895 21.812C120.375 21.604 120.791 21.3 121.143 20.9L122.991 22.748C122.431 23.404 121.743 23.9 120.927 24.236C120.127 24.572 119.255 24.74 118.311 24.74ZM127.174 24.5V8.084H130.318V24.5H127.174ZM124.462 15.668V12.908H133.03V15.668H124.462ZM138.548 24.764C137.892 24.764 137.244 24.676 136.604 24.5C135.98 24.324 135.404 24.084 134.876 23.78C134.348 23.46 133.892 23.076 133.508 22.628L135.38 20.732C135.78 21.18 136.244 21.516 136.772 21.74C137.3 21.964 137.884 22.076 138.524 22.076C139.036 22.076 139.42 22.004 139.676 21.86C139.948 21.716 140.084 21.5 140.084 21.212C140.084 20.892 139.94 20.644 139.652 20.468C139.38 20.292 139.02 20.148 138.572 20.036C138.124 19.908 137.652 19.772 137.156 19.628C136.676 19.468 136.212 19.268 135.764 19.028C135.316 18.772 134.948 18.428 134.66 17.996C134.388 17.548 134.252 16.972 134.252 16.268C134.252 15.532 134.428 14.892 134.78 14.348C135.148 13.804 135.668 13.38 136.34 13.076C137.012 12.772 137.804 12.62 138.716 12.62C139.676 12.62 140.54 12.788 141.308 13.124C142.092 13.46 142.74 13.964 143.252 14.636L141.356 16.532C141.004 16.1 140.604 15.788 140.156 15.596C139.724 15.404 139.252 15.308 138.74 15.308C138.276 15.308 137.916 15.38 137.66 15.524C137.42 15.668 137.3 15.868 137.3 16.124C137.3 16.412 137.436 16.636 137.708 16.796C137.996 16.956 138.364 17.1 138.812 17.228C139.26 17.34 139.724 17.476 140.204 17.636C140.7 17.78 141.164 17.988 141.596 18.26C142.044 18.532 142.404 18.892 142.676 19.34C142.964 19.788 143.108 20.364 143.108 21.068C143.108 22.204 142.7 23.108 141.884 23.78C141.068 24.436 139.956 24.764 138.548 24.764Z" fill="white"/>
<path d="M0.82 66.5L5.348 55.252H7.124L11.636 66.5H9.316L5.828 57.268H6.628L3.092 66.5H0.82ZM3.22 64.404V62.58H9.268V64.404H3.22ZM16.0916 66.66C15.3023 66.66 14.593 66.484 13.9636 66.132C13.3343 65.78 12.8383 65.3 12.4756 64.692C12.113 64.084 11.9316 63.4013 11.9316 62.644C11.9316 61.876 12.113 61.188 12.4756 60.58C12.8383 59.972 13.3343 59.492 13.9636 59.14C14.6036 58.7773 15.313 58.596 16.0916 58.596C16.6996 58.596 17.2596 58.708 17.7716 58.932C18.2836 59.156 18.7263 59.476 19.0996 59.892L17.7556 61.252C17.553 61.028 17.3076 60.8573 17.0196 60.74C16.7423 60.6227 16.433 60.564 16.0916 60.564C15.7076 60.564 15.361 60.6547 15.0516 60.836C14.753 61.0067 14.513 61.2467 14.3316 61.556C14.161 61.8547 14.0756 62.212 14.0756 62.628C14.0756 63.0333 14.161 63.396 14.3316 63.716C14.513 64.0253 14.753 64.2707 15.0516 64.452C15.361 64.6227 15.7076 64.708 16.0916 64.708C16.4436 64.708 16.7583 64.6493 17.0356 64.532C17.3236 64.404 17.569 64.2227 17.7716 63.988L19.1316 65.348C18.737 65.7747 18.2836 66.1 17.7716 66.324C17.2596 66.548 16.6996 66.66 16.0916 66.66ZM21.3296 66.5V55.556H23.4256V66.5H21.3296ZM19.5216 60.612V58.772H25.2336V60.612H19.5216ZM26.4124 66.5V58.772H28.5244V66.5H26.4124ZM27.4684 57.524C27.127 57.524 26.8444 57.412 26.6204 57.188C26.3964 56.9533 26.2844 56.6653 26.2844 56.324C26.2844 55.9933 26.3964 55.7107 26.6204 55.476C26.8444 55.2413 27.127 55.124 27.4684 55.124C27.8204 55.124 28.103 55.2413 28.3164 55.476C28.5404 55.7107 28.6524 55.9933 28.6524 56.324C28.6524 56.6653 28.5404 56.9533 28.3164 57.188C28.103 57.412 27.8204 57.524 27.4684 57.524ZM32.8931 66.5L29.4851 58.772H31.7891L34.2371 65.14H33.1011L35.5651 58.772H37.7891L34.3971 66.5H32.8931ZM42.2178 66.66C41.4071 66.66 40.6871 66.4893 40.0578 66.148C39.4284 65.796 38.9271 65.316 38.5538 64.708C38.1911 64.1 38.0098 63.4067 38.0098 62.628C38.0098 61.86 38.1858 61.1773 38.5378 60.58C38.9004 59.972 39.3911 59.492 40.0098 59.14C40.6284 58.7773 41.3164 58.596 42.0738 58.596C42.8204 58.596 43.4764 58.7667 44.0418 59.108C44.6178 59.4387 45.0658 59.8973 45.3858 60.484C45.7164 61.06 45.8818 61.716 45.8818 62.452C45.8818 62.5907 45.8711 62.7347 45.8498 62.884C45.8391 63.0227 45.8124 63.1827 45.7698 63.364L39.2738 63.38V61.812L44.7938 61.796L43.9458 62.452C43.9244 61.9933 43.8391 61.6093 43.6898 61.3C43.5511 60.9907 43.3431 60.756 43.0658 60.596C42.7991 60.4253 42.4684 60.34 42.0738 60.34C41.6578 60.34 41.2951 60.436 40.9858 60.628C40.6764 60.8093 40.4364 61.0707 40.2658 61.412C40.1058 61.7427 40.0258 62.1373 40.0258 62.596C40.0258 63.0653 40.1111 63.476 40.2818 63.828C40.4631 64.1693 40.7191 64.436 41.0498 64.628C41.3804 64.8093 41.7644 64.9 42.2018 64.9C42.5964 64.9 42.9538 64.836 43.2738 64.708C43.5938 64.5693 43.8711 64.3667 44.1058 64.1L45.3378 65.332C44.9644 65.7693 44.5058 66.1 43.9618 66.324C43.4284 66.548 42.8471 66.66 42.2178 66.66ZM53.061 66.5V55.492H55.253V66.5H53.061ZM49.477 57.188V55.252H58.837V57.188H49.477ZM60.1155 66.5V58.772H62.2275V66.5H60.1155ZM61.1715 57.524C60.8302 57.524 60.5475 57.412 60.3235 57.188C60.0995 56.9533 59.9875 56.6653 59.9875 56.324C59.9875 55.9933 60.0995 55.7107 60.3235 55.476C60.5475 55.2413 60.8302 55.124 61.1715 55.124C61.5235 55.124 61.8062 55.2413 62.0195 55.476C62.2435 55.7107 62.3555 55.9933 62.3555 56.324C62.3555 56.6653 62.2435 56.9533 62.0195 57.188C61.8062 57.412 61.5235 57.524 61.1715 57.524ZM64.0843 66.5V58.772H66.1803V66.5H64.0843ZM69.1243 66.5V61.94C69.1243 61.492 68.9803 61.1453 68.6923 60.9C68.4149 60.644 68.0683 60.516 67.6523 60.516C67.3749 60.516 67.1243 60.5747 66.9003 60.692C66.6763 60.7987 66.5003 60.9587 66.3723 61.172C66.2443 61.3853 66.1803 61.6413 66.1803 61.94L65.3643 61.54C65.3643 60.9427 65.4923 60.4253 65.7483 59.988C66.0149 59.5507 66.3723 59.2147 66.8203 58.98C67.2683 58.7347 67.7749 58.612 68.3403 58.612C68.8736 58.612 69.3589 58.7347 69.7963 58.98C70.2336 59.2147 70.5803 59.5507 70.8363 59.988C71.0923 60.4147 71.2203 60.932 71.2203 61.54V66.5H69.1243ZM74.1643 66.5V61.94C74.1643 61.492 74.0203 61.1453 73.7323 60.9C73.4549 60.644 73.1083 60.516 72.6923 60.516C72.4256 60.516 72.1749 60.5747 71.9403 60.692C71.7163 60.7987 71.5403 60.9587 71.4123 61.172C71.2843 61.3853 71.2203 61.6413 71.2203 61.94L70.0203 61.652C70.0629 61.0333 70.2283 60.5 70.5163 60.052C70.8043 59.5933 71.1829 59.2413 71.6523 58.996C72.1216 58.74 72.6443 58.612 73.2203 58.612C73.7963 58.612 74.3136 58.7347 74.7723 58.98C75.2309 59.2147 75.5936 59.556 75.8603 60.004C76.1269 60.452 76.2603 60.9853 76.2603 61.604V66.5H74.1643ZM84.7003 66.66C83.9323 66.66 83.2389 66.4893 82.6203 66.148C82.0123 65.796 81.5269 65.3267 81.1643 64.74C80.8123 64.1427 80.6363 63.4813 80.6363 62.756C80.6363 61.764 80.9776 60.7667 81.6603 59.764L84.7803 55.252H87.2763L83.8683 60.02L83.0683 60.244C83.1856 59.9987 83.3243 59.7853 83.4843 59.604C83.6549 59.4227 83.8736 59.284 84.1403 59.188C84.4069 59.092 84.7429 59.044 85.1483 59.044C85.8203 59.044 86.4283 59.204 86.9723 59.524C87.5163 59.8333 87.9536 60.2653 88.2843 60.82C88.6149 61.364 88.7803 61.9933 88.7803 62.708C88.7803 63.444 88.5989 64.1107 88.2362 64.708C87.8736 65.3053 87.3829 65.78 86.7643 66.132C86.1456 66.484 85.4576 66.66 84.7003 66.66ZM84.7003 64.708C85.0736 64.708 85.4043 64.6227 85.6923 64.452C85.9803 64.2707 86.2096 64.0307 86.3803 63.732C86.5509 63.4227 86.6363 63.076 86.6363 62.692C86.6363 62.308 86.5509 61.9667 86.3803 61.668C86.2096 61.3587 85.9803 61.1187 85.6923 60.948C85.4043 60.7773 85.0736 60.692 84.7003 60.692C84.3269 60.692 83.9909 60.7827 83.6923 60.964C83.4043 61.1347 83.1749 61.3693 83.0043 61.668C82.8443 61.9667 82.7643 62.308 82.7643 62.692C82.7643 63.076 82.8443 63.4227 83.0043 63.732C83.1749 64.0307 83.4043 64.2707 83.6923 64.452C83.9909 64.6227 84.3269 64.708 84.7003 64.708ZM94.562 66.66C93.6767 66.66 92.8767 66.42 92.162 65.94C91.4473 65.46 90.8767 64.7827 90.45 63.908C90.034 63.0333 89.826 62.0147 89.826 60.852C89.826 59.6893 90.034 58.676 90.45 57.812C90.866 56.948 91.426 56.276 92.13 55.796C92.8447 55.316 93.6393 55.076 94.514 55.076C95.41 55.076 96.21 55.316 96.914 55.796C97.6287 56.276 98.194 56.9533 98.61 57.828C99.026 58.692 99.234 59.7107 99.234 60.884C99.234 62.0467 99.026 63.0653 98.61 63.94C98.194 64.804 97.634 65.476 96.93 65.956C96.226 66.4253 95.4367 66.66 94.562 66.66ZM94.53 64.692C95.042 64.692 95.4847 64.548 95.858 64.26C96.2313 63.972 96.5193 63.5453 96.722 62.98C96.9353 62.4147 97.042 61.7107 97.042 60.868C97.042 60.0253 96.9353 59.3213 96.722 58.756C96.5193 58.1907 96.226 57.7693 95.842 57.492C95.4687 57.204 95.026 57.06 94.514 57.06C94.0127 57.06 93.5753 57.204 93.202 57.492C92.8287 57.7693 92.5353 58.1907 92.322 58.756C92.1193 59.3107 92.018 60.0093 92.018 60.852C92.018 61.7053 92.1193 62.4147 92.322 62.98C92.5353 63.5453 92.8287 63.972 93.202 64.26C93.5753 64.548 94.018 64.692 94.53 64.692ZM100.741 66.5V58.772H102.837V66.5H100.741ZM105.781 66.5V61.94C105.781 61.492 105.637 61.1453 105.349 60.9C105.071 60.644 104.725 60.516 104.309 60.516C104.031 60.516 103.781 60.5747 103.557 60.692C103.333 60.7987 103.157 60.9587 103.029 61.172C102.901 61.3853 102.837 61.6413 102.837 61.94L102.021 61.54C102.021 60.9427 102.149 60.4253 102.405 59.988C102.671 59.5507 103.029 59.2147 103.477 58.98C103.925 58.7347 104.431 58.612 104.997 58.612C105.53 58.612 106.015 58.7347 106.453 58.98C106.89 59.2147 107.237 59.5507 107.493 59.988C107.749 60.4147 107.877 60.932 107.877 61.54V66.5H105.781ZM110.821 66.5V61.94C110.821 61.492 110.677 61.1453 110.389 60.9C110.111 60.644 109.765 60.516 109.349 60.516C109.082 60.516 108.831 60.5747 108.597 60.692C108.373 60.7987 108.197 60.9587 108.069 61.172C107.941 61.3853 107.877 61.6413 107.877 61.94L106.677 61.652C106.719 61.0333 106.885 60.5 107.173 60.052C107.461 59.5933 107.839 59.2413 108.309 58.996C108.778 58.74 109.301 58.612 109.877 58.612C110.453 58.612 110.97 58.7347 111.429 58.98C111.887 59.2147 112.25 59.556 112.517 60.004C112.783 60.452 112.917 60.9853 112.917 61.604V66.5H110.821ZM114.616 66.5V58.772H116.728V66.5H114.616ZM115.672 57.524C115.33 57.524 115.048 57.412 114.824 57.188C114.6 56.9533 114.488 56.6653 114.488 56.324C114.488 55.9933 114.6 55.7107 114.824 55.476C115.048 55.2413 115.33 55.124 115.672 55.124C116.024 55.124 116.306 55.2413 116.52 55.476C116.744 55.7107 116.856 55.9933 116.856 56.324C116.856 56.6653 116.744 56.9533 116.52 57.188C116.306 57.412 116.024 57.524 115.672 57.524ZM123.784 66.5V62.068C123.784 61.6093 123.64 61.236 123.352 60.948C123.064 60.66 122.691 60.516 122.232 60.516C121.934 60.516 121.667 60.58 121.432 60.708C121.198 60.836 121.011 61.0173 120.872 61.252C120.744 61.4867 120.68 61.7587 120.68 62.068L119.864 61.652C119.864 61.044 119.992 60.516 120.248 60.068C120.515 59.6093 120.878 59.252 121.336 58.996C121.806 58.74 122.334 58.612 122.92 58.612C123.486 58.612 123.992 58.756 124.44 59.044C124.888 59.3213 125.24 59.6893 125.496 60.148C125.752 60.596 125.88 61.0813 125.88 61.604V66.5H123.784ZM118.584 66.5V58.772H120.68V66.5H118.584ZM130.225 66.676C129.787 66.676 129.355 66.6173 128.929 66.5C128.513 66.3827 128.129 66.2227 127.777 66.02C127.425 65.8067 127.121 65.5507 126.865 65.252L128.113 63.988C128.379 64.2867 128.689 64.5107 129.041 64.66C129.393 64.8093 129.782 64.884 130.209 64.884C130.55 64.884 130.806 64.836 130.977 64.74C131.158 64.644 131.249 64.5 131.249 64.308C131.249 64.0947 131.153 63.9293 130.961 63.812C130.779 63.6947 130.539 63.5987 130.241 63.524C129.942 63.4387 129.627 63.348 129.297 63.252C128.977 63.1453 128.667 63.012 128.369 62.852C128.07 62.6813 127.825 62.452 127.633 62.164C127.451 61.8653 127.361 61.4813 127.361 61.012C127.361 60.5213 127.478 60.0947 127.713 59.732C127.958 59.3693 128.305 59.0867 128.753 58.884C129.201 58.6813 129.729 58.58 130.337 58.58C130.977 58.58 131.553 58.692 132.065 58.916C132.587 59.14 133.019 59.476 133.361 59.924L132.097 61.188C131.862 60.9 131.595 60.692 131.297 60.564C131.009 60.436 130.694 60.372 130.353 60.372C130.043 60.372 129.803 60.42 129.633 60.516C129.473 60.612 129.393 60.7453 129.393 60.916C129.393 61.108 129.483 61.2573 129.665 61.364C129.857 61.4707 130.102 61.5667 130.401 61.652C130.699 61.7267 131.009 61.8173 131.329 61.924C131.659 62.02 131.969 62.1587 132.257 62.34C132.555 62.5213 132.795 62.7613 132.977 63.06C133.169 63.3587 133.265 63.7427 133.265 64.212C133.265 64.9693 132.993 65.572 132.449 66.02C131.905 66.4573 131.163 66.676 130.225 66.676ZM142.091 66.66C141.536 66.66 141.035 66.548 140.587 66.324C140.139 66.0893 139.782 65.7747 139.515 65.38C139.248 64.9853 139.104 64.532 139.083 64.02V61.284C139.104 60.772 139.248 60.3187 139.515 59.924C139.792 59.5187 140.15 59.1987 140.587 58.964C141.035 58.7293 141.536 58.612 142.091 58.612C142.806 58.612 143.446 58.788 144.011 59.14C144.576 59.492 145.019 59.972 145.339 60.58C145.67 61.188 145.835 61.876 145.835 62.644C145.835 63.4013 145.67 64.084 145.339 64.692C145.019 65.3 144.576 65.78 144.011 66.132C143.446 66.484 142.806 66.66 142.091 66.66ZM141.723 64.724C142.107 64.724 142.448 64.6387 142.747 64.468C143.046 64.2867 143.275 64.0413 143.435 63.732C143.606 63.412 143.691 63.044 143.691 62.628C143.691 62.2227 143.606 61.8653 143.435 61.556C143.275 61.236 143.046 60.9907 142.747 60.82C142.448 60.6387 142.107 60.548 141.723 60.548C141.35 60.548 141.014 60.6387 140.715 60.82C140.416 60.9907 140.182 61.236 140.011 61.556C139.851 61.8653 139.771 62.2227 139.771 62.628C139.771 63.044 139.851 63.412 140.011 63.732C140.182 64.0413 140.411 64.2867 140.699 64.468C140.998 64.6387 141.339 64.724 141.723 64.724ZM137.803 69.732V58.772H139.899V60.804L139.547 62.676L139.883 64.548V69.732H137.803ZM150.905 66.66C150.095 66.66 149.375 66.4893 148.745 66.148C148.116 65.796 147.615 65.316 147.241 64.708C146.879 64.1 146.697 63.4067 146.697 62.628C146.697 61.86 146.873 61.1773 147.225 60.58C147.588 59.972 148.079 59.492 148.697 59.14C149.316 58.7773 150.004 58.596 150.761 58.596C151.508 58.596 152.164 58.7667 152.729 59.108C153.305 59.4387 153.753 59.8973 154.073 60.484C154.404 61.06 154.569 61.716 154.569 62.452C154.569 62.5907 154.559 62.7347 154.537 62.884C154.527 63.0227 154.5 63.1827 154.457 63.364L147.961 63.38V61.812L153.481 61.796L152.633 62.452C152.612 61.9933 152.527 61.6093 152.377 61.3C152.239 60.9907 152.031 60.756 151.753 60.596C151.487 60.4253 151.156 60.34 150.761 60.34C150.345 60.34 149.983 60.436 149.673 60.628C149.364 60.8093 149.124 61.0707 148.953 61.412C148.793 61.7427 148.713 62.1373 148.713 62.596C148.713 63.0653 148.799 63.476 148.969 63.828C149.151 64.1693 149.407 64.436 149.737 64.628C150.068 64.8093 150.452 64.9 150.889 64.9C151.284 64.9 151.641 64.836 151.961 64.708C152.281 64.5693 152.559 64.3667 152.793 64.1L154.025 65.332C153.652 65.7693 153.193 66.1 152.649 66.324C152.116 66.548 151.535 66.66 150.905 66.66ZM155.866 66.5V58.772H157.962V66.5H155.866ZM157.962 62.228L157.146 61.684C157.242 60.7347 157.519 59.988 157.978 59.444C158.436 58.8893 159.098 58.612 159.962 58.612C160.335 58.612 160.671 58.676 160.97 58.804C161.268 58.9213 161.54 59.1187 161.786 59.396L160.474 60.9C160.356 60.772 160.212 60.676 160.042 60.612C159.882 60.548 159.695 60.516 159.482 60.516C159.034 60.516 158.666 60.66 158.378 60.948C158.1 61.2253 157.962 61.652 157.962 62.228ZM169.192 66.66C168.477 66.66 167.837 66.484 167.272 66.132C166.707 65.78 166.259 65.3 165.928 64.692C165.608 64.084 165.448 63.4013 165.448 62.644C165.448 61.876 165.608 61.188 165.928 60.58C166.259 59.972 166.701 59.492 167.256 59.14C167.821 58.788 168.467 58.612 169.192 58.612C169.747 58.612 170.243 58.724 170.68 58.948C171.128 59.172 171.485 59.4867 171.752 59.892C172.029 60.2867 172.179 60.7347 172.2 61.236V63.988C172.179 64.4893 172.035 64.9427 171.768 65.348C171.501 65.7533 171.144 66.0733 170.696 66.308C170.248 66.5427 169.747 66.66 169.192 66.66ZM169.544 64.724C169.939 64.724 170.28 64.6387 170.568 64.468C170.867 64.2867 171.096 64.0413 171.256 63.732C171.427 63.412 171.512 63.044 171.512 62.628C171.512 62.2227 171.427 61.8653 171.256 61.556C171.096 61.236 170.867 60.9907 170.568 60.82C170.28 60.6387 169.944 60.548 169.56 60.548C169.165 60.548 168.819 60.6387 168.52 60.82C168.232 61.0013 168.003 61.2467 167.832 61.556C167.672 61.8653 167.592 62.2227 167.592 62.628C167.592 63.044 167.672 63.412 167.832 63.732C168.003 64.0413 168.237 64.2867 168.536 64.468C168.835 64.6387 169.171 64.724 169.544 64.724ZM173.48 66.5H171.4V64.42L171.736 62.532L171.384 60.676V54.932H173.48V66.5ZM178.566 66.66C177.862 66.66 177.228 66.484 176.662 66.132C176.097 65.78 175.654 65.3 175.334 64.692C175.014 64.084 174.854 63.4013 174.854 62.644C174.854 61.876 175.014 61.188 175.334 60.58C175.654 59.972 176.097 59.492 176.662 59.14C177.228 58.788 177.862 58.612 178.566 58.612C179.121 58.612 179.617 58.724 180.054 58.948C180.492 59.172 180.838 59.4867 181.094 59.892C181.361 60.2867 181.505 60.7347 181.526 61.236V64.02C181.505 64.532 181.361 64.9853 181.094 65.38C180.838 65.7747 180.492 66.0893 180.054 66.324C179.617 66.548 179.121 66.66 178.566 66.66ZM178.95 64.724C179.537 64.724 180.012 64.532 180.374 64.148C180.737 63.7533 180.918 63.2467 180.918 62.628C180.918 62.2227 180.833 61.8653 180.662 61.556C180.502 61.236 180.273 60.9907 179.974 60.82C179.686 60.6387 179.345 60.548 178.95 60.548C178.566 60.548 178.225 60.6387 177.926 60.82C177.638 60.9907 177.409 61.236 177.238 61.556C177.078 61.8653 176.998 62.2227 176.998 62.628C176.998 63.044 177.078 63.412 177.238 63.732C177.409 64.0413 177.638 64.2867 177.926 64.468C178.225 64.6387 178.566 64.724 178.95 64.724ZM180.806 66.5V64.42L181.142 62.532L180.806 60.676V58.772H182.886V66.5H180.806ZM187.173 66.564L183.941 58.772H186.213L188.357 64.724H187.589L189.813 58.772H192.101L188.661 66.548L187.173 66.564ZM185.029 69.732L187.381 64.756L188.661 66.548L187.253 69.732H185.029Z" fill="white"/>
<path d="M4.25 90.5C4.25 84.2868 9.2868 79.25 15.5 79.25C21.7133 79.25 26.75 84.2868 26.75 90.5C26.75 96.7133 21.7133 101.75 15.5 101.75C9.2868 101.75 4.25 96.7133 4.25 90.5Z" stroke="#0AAA07" stroke-width="2.5" stroke-linecap="round" stroke-linejoin="round"/>
<path d="M10.5 90.5L14.25 94.25L20.5 88" stroke="#0AAA07" stroke-width="2.5" stroke-linecap="round" stroke-linejoin="round"/>
<path d="M39.25 90.5C39.25 84.2868 44.2868 79.25 50.5 79.25C56.7133 79.25 61.75 84.2868 61.75 90.5C61.75 96.7133 56.7133 101.75 50.5 101.75C44.2868 101.75 39.25 96.7133 39.25 90.5Z" stroke="#0AAA07" stroke-width="2.5" stroke-linecap="round" stroke-linejoin="round"/>
<path d="M45.5 90.5L49.25 94.25L55.5 88" stroke="#0AAA07" stroke-width="2.5" stroke-linecap="round" stroke-linejoin="round"/>
<path d="M74.25 90.5C74.25 84.2868 79.2868 79.25 85.5 79.25C91.7133 79.25 96.75 84.2868 96.75 90.5C96.75 96.7133 91.7133 101.75 85.5 101.75C79.2868 101.75 74.25 96.7133 74.25 90.5Z" stroke="#0AAA07" stroke-width="2.5" stroke-linecap="round" stroke-linejoin="round"/>
<path d="M80.5 90.5L84.25 94.25L90.5 88" stroke="#0AAA07" stroke-width="2.5" stroke-linecap="round" stroke-linejoin="round"/>
<path fill-rule="evenodd" clip-rule="evenodd" d="M121.772 81.5076C121.806 81.3455 121.904 81.2037 122.043 81.1135C122.182 81.0232 122.351 80.9919 122.513 81.0264C124.514 81.4518 126.329 82.4997 127.698 84.0201C127.805 84.1438 127.859 84.3046 127.849 84.4679C127.839 84.6312 127.765 84.784 127.644 84.8935C127.522 85.003 127.362 85.0604 127.199 85.0535C127.035 85.0465 126.881 84.9758 126.769 84.8564C125.577 83.5323 123.997 82.6196 122.254 82.2489C122.174 82.2319 122.098 82.1993 122.03 82.1529C121.962 82.1064 121.904 82.0471 121.859 81.9782C121.814 81.9094 121.784 81.8324 121.769 81.7516C121.754 81.6709 121.755 81.588 121.772 81.5076ZM128.924 87.1076C129.082 87.0563 129.253 87.0697 129.401 87.1447C129.548 87.2197 129.66 87.3502 129.712 87.5076C130.344 89.4534 130.344 91.5493 129.712 93.4951C129.655 93.6448 129.542 93.7668 129.398 93.8359C129.253 93.905 129.087 93.916 128.935 93.8666C128.783 93.8172 128.655 93.7112 128.579 93.5704C128.502 93.4296 128.483 93.2648 128.524 93.1101C129.075 91.4154 129.075 89.5898 128.524 87.8951C128.473 87.7376 128.486 87.5662 128.561 87.4186C128.636 87.2709 128.767 87.1591 128.924 87.1076ZM127.653 96.1014C127.776 96.2123 127.85 96.3675 127.859 96.533C127.867 96.6985 127.81 96.8607 127.699 96.9839C126.33 98.5044 124.514 99.5525 122.513 99.9776C122.432 99.9961 122.348 99.9984 122.267 99.9843C122.185 99.9702 122.107 99.9399 122.037 99.8953C121.967 99.8507 121.907 99.7927 121.86 99.7245C121.812 99.6564 121.779 99.5795 121.762 99.4984C121.745 99.4173 121.744 99.3336 121.759 99.2522C121.775 99.1707 121.806 99.0931 121.852 99.0239C121.897 98.9548 121.956 98.8954 122.025 98.8492C122.094 98.803 122.172 98.7711 122.253 98.7551C123.996 98.3846 125.577 97.4719 126.769 96.1476C126.824 96.0865 126.891 96.0367 126.965 96.0013C127.039 95.9659 127.119 95.9454 127.201 95.9411C127.284 95.9368 127.366 95.9488 127.443 95.9763C127.521 96.0038 127.592 96.0463 127.653 96.1014ZM113.347 96.1014C113.47 95.9905 113.632 95.9331 113.798 95.9418C113.963 95.9504 114.118 96.0245 114.229 96.1476C115.421 97.4719 117.002 98.3846 118.745 98.7551C118.827 98.7711 118.904 98.803 118.973 98.8492C119.042 98.8954 119.101 98.9548 119.147 99.0239C119.192 99.0931 119.224 99.1707 119.239 99.2522C119.255 99.3336 119.254 99.4173 119.236 99.4984C119.219 99.5795 119.186 99.6564 119.139 99.7245C119.092 99.7927 119.031 99.8507 118.961 99.8953C118.891 99.9399 118.813 99.9702 118.732 99.9843C118.65 99.9984 118.566 99.9961 118.485 99.9776C116.484 99.5522 114.669 98.5042 113.3 96.9839C113.19 96.8607 113.132 96.6985 113.141 96.533C113.15 96.3675 113.224 96.2123 113.347 96.1014ZM112.074 87.1076C112.232 87.1591 112.362 87.2709 112.437 87.4186C112.512 87.5662 112.525 87.7376 112.474 87.8951C111.924 89.5898 111.924 91.4154 112.474 93.1101C112.504 93.1891 112.517 93.2734 112.514 93.3578C112.51 93.4421 112.489 93.5248 112.452 93.6009C112.416 93.677 112.364 93.7449 112.3 93.8005C112.237 93.856 112.163 93.8982 112.082 93.9243C112.002 93.9504 111.917 93.96 111.833 93.9524C111.749 93.9449 111.667 93.9204 111.593 93.8804C111.519 93.8404 111.453 93.7857 111.401 93.7197C111.348 93.6537 111.309 93.5777 111.287 93.4964C110.654 91.5506 110.654 89.4546 111.287 87.5089C111.338 87.3512 111.45 87.2204 111.597 87.1451C111.745 87.0699 111.917 87.0564 112.074 87.1076ZM119.227 81.5076C119.261 81.6697 119.23 81.8389 119.14 81.9779C119.049 82.1169 118.908 82.2144 118.745 82.2489C117.002 82.6193 115.421 83.5321 114.229 84.8564C114.174 84.9173 114.108 84.9669 114.034 85.0022C113.959 85.0375 113.879 85.0578 113.797 85.0621C113.715 85.0663 113.633 85.0543 113.556 85.0269C113.478 84.9994 113.407 84.957 113.346 84.902C113.285 84.847 113.236 84.7805 113.2 84.7064C113.165 84.6322 113.145 84.5519 113.14 84.4699C113.136 84.3879 113.148 84.3058 113.176 84.2284C113.203 84.1511 113.245 84.0798 113.3 84.0189C114.669 82.4989 116.485 81.4514 118.485 81.0264C118.648 80.9919 118.817 81.0232 118.956 81.1135C119.095 81.2037 119.192 81.3455 119.227 81.5076Z" fill="white"/>
<path fill-rule="evenodd" clip-rule="evenodd" d="M156.772 81.5076C156.806 81.3455 156.904 81.2037 157.043 81.1135C157.182 81.0232 157.351 80.9919 157.513 81.0264C159.514 81.4518 161.329 82.4997 162.698 84.0201C162.805 84.1438 162.859 84.3046 162.849 84.4679C162.839 84.6312 162.765 84.784 162.644 84.8935C162.522 85.003 162.362 85.0604 162.199 85.0535C162.035 85.0465 161.881 84.9758 161.769 84.8564C160.577 83.5323 158.997 82.6196 157.254 82.2489C157.174 82.2319 157.098 82.1993 157.03 82.1529C156.962 82.1064 156.904 82.0471 156.859 81.9782C156.814 81.9094 156.784 81.8324 156.769 81.7516C156.754 81.6709 156.755 81.588 156.772 81.5076ZM163.924 87.1076C164.082 87.0563 164.253 87.0697 164.401 87.1447C164.548 87.2197 164.66 87.3502 164.712 87.5076C165.344 89.4534 165.344 91.5493 164.712 93.4951C164.655 93.6448 164.542 93.7668 164.398 93.8359C164.253 93.905 164.087 93.916 163.935 93.8666C163.783 93.8172 163.655 93.7112 163.579 93.5704C163.502 93.4296 163.483 93.2648 163.524 93.1101C164.075 91.4154 164.075 89.5898 163.524 87.8951C163.473 87.7376 163.486 87.5662 163.561 87.4186C163.636 87.2709 163.767 87.1591 163.924 87.1076ZM162.653 96.1014C162.776 96.2123 162.85 96.3675 162.859 96.533C162.867 96.6985 162.81 96.8607 162.699 96.9839C161.33 98.5044 159.514 99.5525 157.513 99.9776C157.432 99.9961 157.348 99.9984 157.267 99.9843C157.185 99.9702 157.107 99.9399 157.037 99.8953C156.967 99.8507 156.907 99.7927 156.86 99.7245C156.812 99.6564 156.779 99.5795 156.762 99.4984C156.745 99.4173 156.744 99.3336 156.759 99.2522C156.775 99.1707 156.806 99.0931 156.852 99.0239C156.897 98.9548 156.956 98.8954 157.025 98.8492C157.094 98.803 157.172 98.7711 157.253 98.7551C158.996 98.3846 160.577 97.4719 161.769 96.1476C161.824 96.0865 161.891 96.0367 161.965 96.0013C162.039 95.9659 162.119 95.9454 162.201 95.9411C162.284 95.9368 162.366 95.9488 162.443 95.9763C162.521 96.0038 162.592 96.0463 162.653 96.1014ZM148.347 96.1014C148.47 95.9905 148.632 95.9331 148.798 95.9418C148.963 95.9504 149.118 96.0245 149.229 96.1476C150.421 97.4719 152.002 98.3846 153.745 98.7551C153.827 98.7711 153.904 98.803 153.973 98.8492C154.042 98.8954 154.101 98.9548 154.147 99.0239C154.192 99.0931 154.224 99.1707 154.239 99.2522C154.255 99.3336 154.254 99.4173 154.236 99.4984C154.219 99.5795 154.186 99.6564 154.139 99.7245C154.092 99.7927 154.031 99.8507 153.961 99.8953C153.891 99.9399 153.813 99.9702 153.732 99.9843C153.65 99.9984 153.566 99.9961 153.485 99.9776C151.484 99.5522 149.669 98.5042 148.3 96.9839C148.19 96.8607 148.132 96.6985 148.141 96.533C148.15 96.3675 148.224 96.2123 148.347 96.1014ZM147.074 87.1076C147.232 87.1591 147.362 87.2709 147.437 87.4186C147.512 87.5662 147.525 87.7376 147.474 87.8951C146.924 89.5898 146.924 91.4154 147.474 93.1101C147.504 93.1891 147.517 93.2734 147.514 93.3578C147.51 93.4421 147.489 93.5248 147.452 93.6009C147.416 93.677 147.364 93.7449 147.3 93.8005C147.237 93.856 147.163 93.8982 147.082 93.9243C147.002 93.9504 146.917 93.96 146.833 93.9524C146.749 93.9449 146.667 93.9204 146.593 93.8804C146.519 93.8404 146.453 93.7857 146.401 93.7197C146.348 93.6537 146.309 93.5777 146.287 93.4964C145.654 91.5506 145.654 89.4546 146.287 87.5089C146.338 87.3512 146.45 87.2204 146.597 87.1451C146.745 87.0699 146.917 87.0564 147.074 87.1076ZM154.227 81.5076C154.261 81.6697 154.23 81.8389 154.14 81.9779C154.049 82.1169 153.908 82.2144 153.745 82.2489C152.002 82.6193 150.421 83.5321 149.229 84.8564C149.174 84.9173 149.108 84.9669 149.034 85.0022C148.959 85.0375 148.879 85.0578 148.797 85.0621C148.715 85.0663 148.633 85.0543 148.556 85.0269C148.478 84.9994 148.407 84.957 148.346 84.902C148.285 84.847 148.236 84.7805 148.2 84.7064C148.165 84.6322 148.145 84.5519 148.14 84.4699C148.136 84.3879 148.148 84.3058 148.176 84.2284C148.203 84.1511 148.245 84.0798 148.3 84.0189C149.669 82.4989 151.485 81.4514 153.485 81.0264C153.648 80.9919 153.817 81.0232 153.956 81.1135C154.095 81.2037 154.192 81.3455 154.227 81.5076Z" fill="white"/>
<path d="M179.25 90.5C179.25 84.2868 184.287 79.25 190.5 79.25C196.713 79.25 201.75 84.2868 201.75 90.5C201.75 96.7133 196.713 101.75 190.5 101.75C184.287 101.75 179.25 96.7133 179.25 90.5Z" stroke="#0AAA07" stroke-width="2.5" stroke-linecap="round" stroke-linejoin="round"/>
<path d="M185.5 90.5L189.25 94.25L195.5 88" stroke="#0AAA07" stroke-width="2.5" stroke-linecap="round" stroke-linejoin="round"/>
<path d="M3.076 141.5V130.252H5.22V141.5H3.076ZM0.868 132.14V130.252H5.06V132.14H0.868ZM11.687 141.66C10.8017 141.66 10.0017 141.42 9.287 140.94C8.57233 140.46 8.00167 139.783 7.575 138.908C7.159 138.033 6.951 137.015 6.951 135.852C6.951 134.689 7.159 133.676 7.575 132.812C7.991 131.948 8.551 131.276 9.255 130.796C9.96967 130.316 10.7643 130.076 11.639 130.076C12.535 130.076 13.335 130.316 14.039 130.796C14.7537 131.276 15.319 131.953 15.735 132.828C16.151 133.692 16.359 134.711 16.359 135.884C16.359 137.047 16.151 138.065 15.735 138.94C15.319 139.804 14.759 140.476 14.055 140.956C13.351 141.425 12.5617 141.66 11.687 141.66ZM11.655 139.692C12.167 139.692 12.6097 139.548 12.983 139.26C13.3563 138.972 13.6443 138.545 13.847 137.98C14.0603 137.415 14.167 136.711 14.167 135.868C14.167 135.025 14.0603 134.321 13.847 133.756C13.6443 133.191 13.351 132.769 12.967 132.492C12.5937 132.204 12.151 132.06 11.639 132.06C11.1377 132.06 10.7003 132.204 10.327 132.492C9.95367 132.769 9.66033 133.191 9.447 133.756C9.24433 134.311 9.143 135.009 9.143 135.852C9.143 136.705 9.24433 137.415 9.447 137.98C9.66033 138.545 9.95367 138.972 10.327 139.26C10.7003 139.548 11.143 139.692 11.655 139.692ZM22.2495 141.66C21.3642 141.66 20.5642 141.42 19.8495 140.94C19.1348 140.46 18.5642 139.783 18.1375 138.908C17.7215 138.033 17.5135 137.015 17.5135 135.852C17.5135 134.689 17.7215 133.676 18.1375 132.812C18.5535 131.948 19.1135 131.276 19.8175 130.796C20.5322 130.316 21.3268 130.076 22.2015 130.076C23.0975 130.076 23.8975 130.316 24.6015 130.796C25.3162 131.276 25.8815 131.953 26.2975 132.828C26.7135 133.692 26.9215 134.711 26.9215 135.884C26.9215 137.047 26.7135 138.065 26.2975 138.94C25.8815 139.804 25.3215 140.476 24.6175 140.956C23.9135 141.425 23.1242 141.66 22.2495 141.66ZM22.2175 139.692C22.7295 139.692 23.1722 139.548 23.5455 139.26C23.9188 138.972 24.2068 138.545 24.4095 137.98C24.6228 137.415 24.7295 136.711 24.7295 135.868C24.7295 135.025 24.6228 134.321 24.4095 133.756C24.2068 133.191 23.9135 132.769 23.5295 132.492C23.1562 132.204 22.7135 132.06 22.2015 132.06C21.7002 132.06 21.2628 132.204 20.8895 132.492C20.5162 132.769 20.2228 133.191 20.0095 133.756C19.8068 134.311 19.7055 135.009 19.7055 135.852C19.7055 136.705 19.8068 137.415 20.0095 137.98C20.2228 138.545 20.5162 138.972 20.8895 139.26C21.2628 139.548 21.7055 139.692 22.2175 139.692ZM32.812 141.66C31.9267 141.66 31.1267 141.42 30.412 140.94C29.6973 140.46 29.1267 139.783 28.7 138.908C28.284 138.033 28.076 137.015 28.076 135.852C28.076 134.689 28.284 133.676 28.7 132.812C29.116 131.948 29.676 131.276 30.38 130.796C31.0947 130.316 31.8893 130.076 32.764 130.076C33.66 130.076 34.46 130.316 35.164 130.796C35.8787 131.276 36.444 131.953 36.86 132.828C37.276 133.692 37.484 134.711 37.484 135.884C37.484 137.047 37.276 138.065 36.86 138.94C36.444 139.804 35.884 140.476 35.18 140.956C34.476 141.425 33.6867 141.66 32.812 141.66ZM32.78 139.692C33.292 139.692 33.7347 139.548 34.108 139.26C34.4813 138.972 34.7693 138.545 34.972 137.98C35.1853 137.415 35.292 136.711 35.292 135.868C35.292 135.025 35.1853 134.321 34.972 133.756C34.7693 133.191 34.476 132.769 34.092 132.492C33.7187 132.204 33.276 132.06 32.764 132.06C32.2627 132.06 31.8253 132.204 31.452 132.492C31.0787 132.769 30.7853 133.191 30.572 133.756C30.3693 134.311 30.268 135.009 30.268 135.852C30.268 136.705 30.3693 137.415 30.572 137.98C30.7853 138.545 31.0787 138.972 31.452 139.26C31.8253 139.548 32.268 139.692 32.78 139.692ZM43.3745 141.66C42.4892 141.66 41.6892 141.42 40.9745 140.94C40.2598 140.46 39.6892 139.783 39.2625 138.908C38.8465 138.033 38.6385 137.015 38.6385 135.852C38.6385 134.689 38.8465 133.676 39.2625 132.812C39.6785 131.948 40.2385 131.276 40.9425 130.796C41.6572 130.316 42.4518 130.076 43.3265 130.076C44.2225 130.076 45.0225 130.316 45.7265 130.796C46.4412 131.276 47.0065 131.953 47.4225 132.828C47.8385 133.692 48.0465 134.711 48.0465 135.884C48.0465 137.047 47.8385 138.065 47.4225 138.94C47.0065 139.804 46.4465 140.476 45.7425 140.956C45.0385 141.425 44.2492 141.66 43.3745 141.66ZM43.3425 139.692C43.8545 139.692 44.2972 139.548 44.6705 139.26C45.0438 138.972 45.3318 138.545 45.5345 137.98C45.7478 137.415 45.8545 136.711 45.8545 135.868C45.8545 135.025 45.7478 134.321 45.5345 133.756C45.3318 133.191 45.0385 132.769 44.6545 132.492C44.2812 132.204 43.8385 132.06 43.3265 132.06C42.8252 132.06 42.3878 132.204 42.0145 132.492C41.6412 132.769 41.3478 133.191 41.1345 133.756C40.9318 134.311 40.8305 135.009 40.8305 135.852C40.8305 136.705 40.9318 137.415 41.1345 137.98C41.3478 138.545 41.6412 138.972 42.0145 139.26C42.3878 139.548 42.8305 139.692 43.3425 139.692ZM55.334 141.676C54.8967 141.676 54.4647 141.617 54.038 141.5C53.622 141.383 53.238 141.223 52.886 141.02C52.534 140.807 52.23 140.551 51.974 140.252L53.222 138.988C53.4887 139.287 53.798 139.511 54.15 139.66C54.502 139.809 54.8913 139.884 55.318 139.884C55.6593 139.884 55.9153 139.836 56.086 139.74C56.2673 139.644 56.358 139.5 56.358 139.308C56.358 139.095 56.262 138.929 56.07 138.812C55.8887 138.695 55.6487 138.599 55.35 138.524C55.0513 138.439 54.7367 138.348 54.406 138.252C54.086 138.145 53.7767 138.012 53.478 137.852C53.1793 137.681 52.934 137.452 52.742 137.164C52.5607 136.865 52.47 136.481 52.47 136.012C52.47 135.521 52.5873 135.095 52.822 134.732C53.0673 134.369 53.414 134.087 53.862 133.884C54.31 133.681 54.838 133.58 55.446 133.58C56.086 133.58 56.662 133.692 57.174 133.916C57.6967 134.14 58.1287 134.476 58.47 134.924L57.206 136.188C56.9713 135.9 56.7047 135.692 56.406 135.564C56.118 135.436 55.8033 135.372 55.462 135.372C55.1527 135.372 54.9127 135.42 54.742 135.516C54.582 135.612 54.502 135.745 54.502 135.916C54.502 136.108 54.5927 136.257 54.774 136.364C54.966 136.471 55.2113 136.567 55.51 136.652C55.8087 136.727 56.118 136.817 56.438 136.924C56.7687 137.02 57.078 137.159 57.366 137.34C57.6647 137.521 57.9047 137.761 58.086 138.06C58.278 138.359 58.374 138.743 58.374 139.212C58.374 139.969 58.102 140.572 57.558 141.02C57.014 141.457 56.2727 141.676 55.334 141.676ZM60.9234 141.5V130.556H63.0194V141.5H60.9234ZM59.1154 135.612V133.772H64.8274V135.612H59.1154ZM69.5146 141.66C68.704 141.66 67.984 141.489 67.3546 141.148C66.7253 140.796 66.224 140.316 65.8506 139.708C65.488 139.1 65.3066 138.407 65.3066 137.628C65.3066 136.86 65.4826 136.177 65.8346 135.58C66.1973 134.972 66.688 134.492 67.3066 134.14C67.9253 133.777 68.6133 133.596 69.3706 133.596C70.1173 133.596 70.7733 133.767 71.3386 134.108C71.9146 134.439 72.3626 134.897 72.6826 135.484C73.0133 136.06 73.1786 136.716 73.1786 137.452C73.1786 137.591 73.168 137.735 73.1466 137.884C73.136 138.023 73.1093 138.183 73.0666 138.364L66.5706 138.38V136.812L72.0906 136.796L71.2426 137.452C71.2213 136.993 71.136 136.609 70.9866 136.3C70.848 135.991 70.64 135.756 70.3626 135.596C70.096 135.425 69.7653 135.34 69.3706 135.34C68.9546 135.34 68.592 135.436 68.2826 135.628C67.9733 135.809 67.7333 136.071 67.5626 136.412C67.4026 136.743 67.3226 137.137 67.3226 137.596C67.3226 138.065 67.408 138.476 67.5786 138.828C67.76 139.169 68.016 139.436 68.3466 139.628C68.6773 139.809 69.0613 139.9 69.4986 139.9C69.8933 139.9 70.2506 139.836 70.5706 139.708C70.8906 139.569 71.168 139.367 71.4026 139.1L72.6346 140.332C72.2613 140.769 71.8026 141.1 71.2586 141.324C70.7253 141.548 70.144 141.66 69.5146 141.66ZM78.7629 141.66C78.2082 141.66 77.7069 141.548 77.2589 141.324C76.8109 141.089 76.4535 140.775 76.1869 140.38C75.9202 139.985 75.7762 139.532 75.7549 139.02V136.284C75.7762 135.772 75.9202 135.319 76.1869 134.924C76.4642 134.519 76.8215 134.199 77.2589 133.964C77.7069 133.729 78.2082 133.612 78.7629 133.612C79.4775 133.612 80.1175 133.788 80.6829 134.14C81.2482 134.492 81.6909 134.972 82.0109 135.58C82.3415 136.188 82.5069 136.876 82.5069 137.644C82.5069 138.401 82.3415 139.084 82.0109 139.692C81.6909 140.3 81.2482 140.78 80.6829 141.132C80.1175 141.484 79.4775 141.66 78.7629 141.66ZM78.3949 139.724C78.7789 139.724 79.1202 139.639 79.4189 139.468C79.7175 139.287 79.9469 139.041 80.1069 138.732C80.2775 138.412 80.3629 138.044 80.3629 137.628C80.3629 137.223 80.2775 136.865 80.1069 136.556C79.9469 136.236 79.7175 135.991 79.4189 135.82C79.1202 135.639 78.7789 135.548 78.3949 135.548C78.0215 135.548 77.6855 135.639 77.3869 135.82C77.0882 135.991 76.8535 136.236 76.6829 136.556C76.5229 136.865 76.4429 137.223 76.4429 137.628C76.4429 138.044 76.5229 138.412 76.6829 138.732C76.8535 139.041 77.0829 139.287 77.3709 139.468C77.6695 139.639 78.0109 139.724 78.3949 139.724ZM74.4749 144.732V133.772H76.5709V135.804L76.2189 137.676L76.5549 139.548V144.732H74.4749ZM86.5371 141.676C86.0998 141.676 85.6678 141.617 85.2411 141.5C84.8251 141.383 84.4411 141.223 84.0891 141.02C83.7371 140.807 83.4331 140.551 83.1771 140.252L84.4251 138.988C84.6918 139.287 85.0011 139.511 85.3531 139.66C85.7051 139.809 86.0945 139.884 86.5211 139.884C86.8625 139.884 87.1185 139.836 87.2891 139.74C87.4705 139.644 87.5611 139.5 87.5611 139.308C87.5611 139.095 87.4651 138.929 87.2731 138.812C87.0918 138.695 86.8518 138.599 86.5531 138.524C86.2545 138.439 85.9398 138.348 85.6091 138.252C85.2891 138.145 84.9798 138.012 84.6811 137.852C84.3825 137.681 84.1371 137.452 83.9451 137.164C83.7638 136.865 83.6731 136.481 83.6731 136.012C83.6731 135.521 83.7905 135.095 84.0251 134.732C84.2705 134.369 84.6171 134.087 85.0651 133.884C85.5131 133.681 86.0411 133.58 86.6491 133.58C87.2891 133.58 87.8651 133.692 88.3771 133.916C88.8998 134.14 89.3318 134.476 89.6731 134.924L88.4091 136.188C88.1745 135.9 87.9078 135.692 87.6091 135.564C87.3211 135.436 87.0065 135.372 86.6651 135.372C86.3558 135.372 86.1158 135.42 85.9451 135.516C85.7851 135.612 85.7051 135.745 85.7051 135.916C85.7051 136.108 85.7958 136.257 85.9771 136.364C86.1691 136.471 86.4145 136.567 86.7131 136.652C87.0118 136.727 87.3211 136.817 87.6411 136.924C87.9718 137.02 88.2811 137.159 88.5691 137.34C88.8678 137.521 89.1078 137.761 89.2891 138.06C89.4811 138.359 89.5771 138.743 89.5771 139.212C89.5771 139.969 89.3051 140.572 88.7611 141.02C88.2171 141.457 87.4758 141.676 86.5371 141.676ZM98.4035 141.66C97.8488 141.66 97.3475 141.548 96.8995 141.324C96.4515 141.089 96.0942 140.775 95.8275 140.38C95.5608 139.985 95.4168 139.532 95.3955 139.02V136.284C95.4168 135.772 95.5608 135.319 95.8275 134.924C96.1048 134.519 96.4622 134.199 96.8995 133.964C97.3475 133.729 97.8488 133.612 98.4035 133.612C99.1182 133.612 99.7582 133.788 100.324 134.14C100.889 134.492 101.332 134.972 101.652 135.58C101.982 136.188 102.148 136.876 102.148 137.644C102.148 138.401 101.982 139.084 101.652 139.692C101.332 140.3 100.889 140.78 100.324 141.132C99.7582 141.484 99.1182 141.66 98.4035 141.66ZM98.0355 139.724C98.4195 139.724 98.7608 139.639 99.0595 139.468C99.3582 139.287 99.5875 139.041 99.7475 138.732C99.9182 138.412 100.004 138.044 100.004 137.628C100.004 137.223 99.9182 136.865 99.7475 136.556C99.5875 136.236 99.3582 135.991 99.0595 135.82C98.7608 135.639 98.4195 135.548 98.0355 135.548C97.6622 135.548 97.3262 135.639 97.0275 135.82C96.7288 135.991 96.4942 136.236 96.3235 136.556C96.1635 136.865 96.0835 137.223 96.0835 137.628C96.0835 138.044 96.1635 138.412 96.3235 138.732C96.4942 139.041 96.7235 139.287 97.0115 139.468C97.3102 139.639 97.6515 139.724 98.0355 139.724ZM94.1155 144.732V133.772H96.2115V135.804L95.8595 137.676L96.1955 139.548V144.732H94.1155ZM107.218 141.66C106.407 141.66 105.687 141.489 105.058 141.148C104.428 140.796 103.927 140.316 103.554 139.708C103.191 139.1 103.01 138.407 103.01 137.628C103.01 136.86 103.186 136.177 103.538 135.58C103.9 134.972 104.391 134.492 105.01 134.14C105.628 133.777 106.316 133.596 107.074 133.596C107.82 133.596 108.476 133.767 109.042 134.108C109.618 134.439 110.066 134.897 110.386 135.484C110.716 136.06 110.882 136.716 110.882 137.452C110.882 137.591 110.871 137.735 110.85 137.884C110.839 138.023 110.812 138.183 110.77 138.364L104.274 138.38V136.812L109.794 136.796L108.946 137.452C108.924 136.993 108.839 136.609 108.69 136.3C108.551 135.991 108.343 135.756 108.066 135.596C107.799 135.425 107.468 135.34 107.074 135.34C106.658 135.34 106.295 135.436 105.986 135.628C105.676 135.809 105.436 136.071 105.266 136.412C105.106 136.743 105.026 137.137 105.026 137.596C105.026 138.065 105.111 138.476 105.282 138.828C105.463 139.169 105.719 139.436 106.05 139.628C106.38 139.809 106.764 139.9 107.202 139.9C107.596 139.9 107.954 139.836 108.274 139.708C108.594 139.569 108.871 139.367 109.106 139.1L110.338 140.332C109.964 140.769 109.506 141.1 108.962 141.324C108.428 141.548 107.847 141.66 107.218 141.66ZM112.178 141.5V133.772H114.274V141.5H112.178ZM114.274 137.228L113.458 136.684C113.554 135.735 113.831 134.988 114.29 134.444C114.749 133.889 115.41 133.612 116.274 133.612C116.647 133.612 116.983 133.676 117.282 133.804C117.581 133.921 117.853 134.119 118.098 134.396L116.786 135.9C116.669 135.772 116.525 135.676 116.354 135.612C116.194 135.548 116.007 135.516 115.794 135.516C115.346 135.516 114.978 135.66 114.69 135.948C114.413 136.225 114.274 136.652 114.274 137.228ZM125.505 141.66C124.79 141.66 124.15 141.484 123.585 141.132C123.019 140.78 122.571 140.3 122.241 139.692C121.921 139.084 121.761 138.401 121.761 137.644C121.761 136.876 121.921 136.188 122.241 135.58C122.571 134.972 123.014 134.492 123.569 134.14C124.134 133.788 124.779 133.612 125.505 133.612C126.059 133.612 126.555 133.724 126.993 133.948C127.441 134.172 127.798 134.487 128.065 134.892C128.342 135.287 128.491 135.735 128.513 136.236V138.988C128.491 139.489 128.347 139.943 128.081 140.348C127.814 140.753 127.457 141.073 127.009 141.308C126.561 141.543 126.059 141.66 125.505 141.66ZM125.857 139.724C126.251 139.724 126.593 139.639 126.881 139.468C127.179 139.287 127.409 139.041 127.569 138.732C127.739 138.412 127.825 138.044 127.825 137.628C127.825 137.223 127.739 136.865 127.569 136.556C127.409 136.236 127.179 135.991 126.881 135.82C126.593 135.639 126.257 135.548 125.873 135.548C125.478 135.548 125.131 135.639 124.833 135.82C124.545 136.001 124.315 136.247 124.145 136.556C123.985 136.865 123.905 137.223 123.905 137.628C123.905 138.044 123.985 138.412 124.145 138.732C124.315 139.041 124.55 139.287 124.849 139.468C125.147 139.639 125.483 139.724 125.857 139.724ZM129.793 141.5H127.713V139.42L128.049 137.532L127.697 135.676V129.932H129.793V141.5ZM134.879 141.66C134.175 141.66 133.54 141.484 132.975 141.132C132.409 140.78 131.967 140.3 131.647 139.692C131.327 139.084 131.167 138.401 131.167 137.644C131.167 136.876 131.327 136.188 131.647 135.58C131.967 134.972 132.409 134.492 132.975 134.14C133.54 133.788 134.175 133.612 134.879 133.612C135.433 133.612 135.929 133.724 136.367 133.948C136.804 134.172 137.151 134.487 137.407 134.892C137.673 135.287 137.817 135.735 137.839 136.236V139.02C137.817 139.532 137.673 139.985 137.407 140.38C137.151 140.775 136.804 141.089 136.367 141.324C135.929 141.548 135.433 141.66 134.879 141.66ZM135.263 139.724C135.849 139.724 136.324 139.532 136.687 139.148C137.049 138.753 137.231 138.247 137.231 137.628C137.231 137.223 137.145 136.865 136.975 136.556C136.815 136.236 136.585 135.991 136.287 135.82C135.999 135.639 135.657 135.548 135.263 135.548C134.879 135.548 134.537 135.639 134.239 135.82C133.951 135.991 133.721 136.236 133.551 136.556C133.391 136.865 133.311 137.223 133.311 137.628C133.311 138.044 133.391 138.412 133.551 138.732C133.721 139.041 133.951 139.287 134.239 139.468C134.537 139.639 134.879 139.724 135.263 139.724ZM137.119 141.5V139.42L137.455 137.532L137.119 135.676V133.772H139.199V141.5H137.119ZM143.485 141.564L140.253 133.772H142.525L144.669 139.724H143.901L146.125 133.772H148.413L144.973 141.548L143.485 141.564ZM141.341 144.732L143.693 139.756L144.973 141.548L143.565 144.732H141.341Z" fill="white"/>
<path d="M4.25 165.5C4.25 159.287 9.2868 154.25 15.5 154.25C21.7133 154.25 26.75 159.287 26.75 165.5C26.75 171.713 21.7133 176.75 15.5 176.75C9.2868 176.75 4.25 171.713 4.25 165.5Z" stroke="#0AAA07" stroke-width="2.5" stroke-linecap="round" stroke-linejoin="round"/>
<path d="M10.5 165.5L14.25 169.25L20.5 163" stroke="#0AAA07" stroke-width="2.5" stroke-linecap="round" stroke-linejoin="round"/>
<path d="M39.25 165.5C39.25 159.287 44.2868 154.25 50.5 154.25C56.7133 154.25 61.75 159.287 61.75 165.5C61.75 171.713 56.7133 176.75 50.5 176.75C44.2868 176.75 39.25 171.713 39.25 165.5Z" stroke="#0AAA07" stroke-width="2.5" stroke-linecap="round" stroke-linejoin="round"/>
<path d="M45.5 165.5L49.25 169.25L55.5 163" stroke="#0AAA07" stroke-width="2.5" stroke-linecap="round" stroke-linejoin="round"/>
<path d="M74.25 165.5C74.25 159.287 79.2868 154.25 85.5 154.25C91.7133 154.25 96.75 159.287 96.75 165.5C96.75 171.713 91.7133 176.75 85.5 176.75C79.2868 176.75 74.25 171.713 74.25 165.5Z" stroke="#0AAA07" stroke-width="2.5" stroke-linecap="round" stroke-linejoin="round"/>
<path d="M80.5 165.5L84.25 169.25L90.5 163" stroke="#0AAA07" stroke-width="2.5" stroke-linecap="round" stroke-linejoin="round"/>
<path fill-rule="evenodd" clip-rule="evenodd" d="M121.772 156.508C121.806 156.346 121.904 156.204 122.043 156.113C122.182 156.023 122.351 155.992 122.513 156.026C124.514 156.452 126.329 157.5 127.698 159.02C127.805 159.144 127.859 159.305 127.849 159.468C127.839 159.631 127.765 159.784 127.644 159.894C127.522 160.003 127.362 160.06 127.199 160.053C127.035 160.047 126.881 159.976 126.769 159.856C125.577 158.532 123.997 157.62 122.254 157.249C122.174 157.232 122.098 157.199 122.03 157.153C121.962 157.106 121.904 157.047 121.859 156.978C121.814 156.909 121.784 156.832 121.769 156.752C121.754 156.671 121.755 156.588 121.772 156.508ZM128.924 162.108C129.082 162.056 129.253 162.07 129.401 162.145C129.548 162.22 129.66 162.35 129.712 162.508C130.344 164.453 130.344 166.549 129.712 168.495C129.655 168.645 129.542 168.767 129.398 168.836C129.253 168.905 129.087 168.916 128.935 168.867C128.783 168.817 128.655 168.711 128.579 168.57C128.502 168.43 128.483 168.265 128.524 168.11C129.075 166.415 129.075 164.59 128.524 162.895C128.473 162.738 128.486 162.566 128.561 162.419C128.636 162.271 128.767 162.159 128.924 162.108ZM127.653 171.101C127.776 171.212 127.85 171.368 127.859 171.533C127.867 171.699 127.81 171.861 127.699 171.984C126.33 173.504 124.514 174.552 122.513 174.978C122.432 174.996 122.348 174.998 122.267 174.984C122.185 174.97 122.107 174.94 122.037 174.895C121.967 174.851 121.907 174.793 121.86 174.725C121.812 174.656 121.779 174.58 121.762 174.498C121.745 174.417 121.744 174.334 121.759 174.252C121.775 174.171 121.806 174.093 121.852 174.024C121.897 173.955 121.956 173.895 122.025 173.849C122.094 173.803 122.172 173.771 122.253 173.755C123.996 173.385 125.577 172.472 126.769 171.148C126.824 171.086 126.891 171.037 126.965 171.001C127.039 170.966 127.119 170.945 127.201 170.941C127.284 170.937 127.366 170.949 127.443 170.976C127.521 171.004 127.592 171.046 127.653 171.101ZM113.347 171.101C113.47 170.99 113.632 170.933 113.798 170.942C113.963 170.95 114.118 171.024 114.229 171.148C115.421 172.472 117.002 173.385 118.745 173.755C118.827 173.771 118.904 173.803 118.973 173.849C119.042 173.895 119.101 173.955 119.147 174.024C119.192 174.093 119.224 174.171 119.239 174.252C119.255 174.334 119.254 174.417 119.236 174.498C119.219 174.58 119.186 174.656 119.139 174.725C119.092 174.793 119.031 174.851 118.961 174.895C118.891 174.94 118.813 174.97 118.732 174.984C118.65 174.998 118.566 174.996 118.485 174.978C116.484 174.552 114.669 173.504 113.3 171.984C113.19 171.861 113.132 171.699 113.141 171.533C113.15 171.368 113.224 171.212 113.347 171.101ZM112.074 162.108C112.232 162.159 112.362 162.271 112.437 162.419C112.512 162.566 112.525 162.738 112.474 162.895C111.924 164.59 111.924 166.415 112.474 168.11C112.504 168.189 112.517 168.273 112.514 168.358C112.51 168.442 112.489 168.525 112.452 168.601C112.416 168.677 112.364 168.745 112.3 168.8C112.237 168.856 112.163 168.898 112.082 168.924C112.002 168.95 111.917 168.96 111.833 168.952C111.749 168.945 111.667 168.92 111.593 168.88C111.519 168.84 111.453 168.786 111.401 168.72C111.348 168.654 111.309 168.578 111.287 168.496C110.654 166.551 110.654 164.455 111.287 162.509C111.338 162.351 111.45 162.22 111.597 162.145C111.745 162.07 111.917 162.056 112.074 162.108ZM119.227 156.508C119.261 156.67 119.23 156.839 119.14 156.978C119.049 157.117 118.908 157.214 118.745 157.249C117.002 157.619 115.421 158.532 114.229 159.856C114.174 159.917 114.108 159.967 114.034 160.002C113.959 160.037 113.879 160.058 113.797 160.062C113.715 160.066 113.633 160.054 113.556 160.027C113.478 159.999 113.407 159.957 113.346 159.902C113.285 159.847 113.236 159.781 113.2 159.706C113.165 159.632 113.145 159.552 113.14 159.47C113.136 159.388 113.148 159.306 113.176 159.228C113.203 159.151 113.245 159.08 113.3 159.019C114.669 157.499 116.485 156.451 118.485 156.026C118.648 155.992 118.817 156.023 118.956 156.113C119.095 156.204 119.192 156.346 119.227 156.508Z" fill="white"/>
<path fill-rule="evenodd" clip-rule="evenodd" d="M156.772 156.508C156.806 156.346 156.904 156.204 157.043 156.113C157.182 156.023 157.351 155.992 157.513 156.026C159.514 156.452 161.329 157.5 162.698 159.02C162.805 159.144 162.859 159.305 162.849 159.468C162.839 159.631 162.765 159.784 162.644 159.894C162.522 160.003 162.362 160.06 162.199 160.053C162.035 160.047 161.881 159.976 161.769 159.856C160.577 158.532 158.997 157.62 157.254 157.249C157.174 157.232 157.098 157.199 157.03 157.153C156.962 157.106 156.904 157.047 156.859 156.978C156.814 156.909 156.784 156.832 156.769 156.752C156.754 156.671 156.755 156.588 156.772 156.508ZM163.924 162.108C164.082 162.056 164.253 162.07 164.401 162.145C164.548 162.22 164.66 162.35 164.712 162.508C165.344 164.453 165.344 166.549 164.712 168.495C164.655 168.645 164.542 168.767 164.398 168.836C164.253 168.905 164.087 168.916 163.935 168.867C163.783 168.817 163.655 168.711 163.579 168.57C163.502 168.43 163.483 168.265 163.524 168.11C164.075 166.415 164.075 164.59 163.524 162.895C163.473 162.738 163.486 162.566 163.561 162.419C163.636 162.271 163.767 162.159 163.924 162.108ZM162.653 171.101C162.776 171.212 162.85 171.368 162.859 171.533C162.867 171.699 162.81 171.861 162.699 171.984C161.33 173.504 159.514 174.552 157.513 174.978C157.432 174.996 157.348 174.998 157.267 174.984C157.185 174.97 157.107 174.94 157.037 174.895C156.967 174.851 156.907 174.793 156.86 174.725C156.812 174.656 156.779 174.58 156.762 174.498C156.745 174.417 156.744 174.334 156.759 174.252C156.775 174.171 156.806 174.093 156.852 174.024C156.897 173.955 156.956 173.895 157.025 173.849C157.094 173.803 157.172 173.771 157.253 173.755C158.996 173.385 160.577 172.472 161.769 171.148C161.824 171.086 161.891 171.037 161.965 171.001C162.039 170.966 162.119 170.945 162.201 170.941C162.284 170.937 162.366 170.949 162.443 170.976C162.521 171.004 162.592 171.046 162.653 171.101ZM148.347 171.101C148.47 170.99 148.632 170.933 148.798 170.942C148.963 170.95 149.118 171.024 149.229 171.148C150.421 172.472 152.002 173.385 153.745 173.755C153.827 173.771 153.904 173.803 153.973 173.849C154.042 173.895 154.101 173.955 154.147 174.024C154.192 174.093 154.224 174.171 154.239 174.252C154.255 174.334 154.254 174.417 154.236 174.498C154.219 174.58 154.186 174.656 154.139 174.725C154.092 174.793 154.031 174.851 153.961 174.895C153.891 174.94 153.813 174.97 153.732 174.984C153.65 174.998 153.566 174.996 153.485 174.978C151.484 174.552 149.669 173.504 148.3 171.984C148.19 171.861 148.132 171.699 148.141 171.533C148.15 171.368 148.224 171.212 148.347 171.101ZM147.074 162.108C147.232 162.159 147.362 162.271 147.437 162.419C147.512 162.566 147.525 162.738 147.474 162.895C146.924 164.59 146.924 166.415 147.474 168.11C147.504 168.189 147.517 168.273 147.514 168.358C147.51 168.442 147.489 168.525 147.452 168.601C147.416 168.677 147.364 168.745 147.3 168.8C147.237 168.856 147.163 168.898 147.082 168.924C147.002 168.95 146.917 168.96 146.833 168.952C146.749 168.945 146.667 168.92 146.593 168.88C146.519 168.84 146.453 168.786 146.401 168.72C146.348 168.654 146.309 168.578 146.287 168.496C145.654 166.551 145.654 164.455 146.287 162.509C146.338 162.351 146.45 162.22 146.597 162.145C146.745 162.07 146.917 162.056 147.074 162.108ZM154.227 156.508C154.261 156.67 154.23 156.839 154.14 156.978C154.049 157.117 153.908 157.214 153.745 157.249C152.002 157.619 150.421 158.532 149.229 159.856C149.174 159.917 149.108 159.967 149.034 160.002C148.959 160.037 148.879 160.058 148.797 160.062C148.715 160.066 148.633 160.054 148.556 160.027C148.478 159.999 148.407 159.957 148.346 159.902C148.285 159.847 148.236 159.781 148.2 159.706C148.165 159.632 148.145 159.552 148.14 159.47C148.136 159.388 148.148 159.306 148.176 159.228C148.203 159.151 148.245 159.08 148.3 159.019C149.669 157.499 151.485 156.451 153.485 156.026C153.648 155.992 153.817 156.023 153.956 156.113C154.095 156.204 154.192 156.346 154.227 156.508Z" fill="white"/>
<path d="M179.25 165.5C179.25 159.287 184.287 154.25 190.5 154.25C196.713 154.25 201.75 159.287 201.75 165.5C201.75 171.713 196.713 176.75 190.5 176.75C184.287 176.75 179.25 171.713 179.25 165.5Z" stroke="#0AAA07" stroke-width="2.5" stroke-linecap="round" stroke-linejoin="round"/>
<path d="M185.5 165.5L189.25 169.25L195.5 163" stroke="#0AAA07" stroke-width="2.5" stroke-linecap="round" stroke-linejoin="round"/>
</svg>
