<svg width="207" height="205" viewBox="0 0 207 205" fill="none" xmlns="http://www.w3.org/2000/svg">
<path d="M37.284 24.2715V7.56748H41.052V24.2715H37.284ZM31.98 10.6155V7.32748H46.356V10.6155H31.98ZM51.0951 24.5355C49.8311 24.5355 48.7031 24.2795 47.7111 23.7675C46.7351 23.2395 45.9671 22.5115 45.4071 21.5835C44.8471 20.6555 44.5671 19.6075 44.5671 18.4395C44.5671 17.2715 44.8391 16.2315 45.3831 15.3195C45.9431 14.3915 46.6951 13.6635 47.6391 13.1355C48.5831 12.6075 49.6471 12.3435 50.8311 12.3435C51.9831 12.3435 52.9991 12.5915 53.8791 13.0875C54.7591 13.5835 55.4471 14.2715 55.9431 15.1515C56.4551 16.0315 56.7111 17.0395 56.7111 18.1755C56.7111 18.3835 56.6951 18.6075 56.6631 18.8475C56.6471 19.0715 56.6071 19.3355 56.5431 19.6395L46.4871 19.6635V17.1435L54.9831 17.1195L53.3991 18.1755C53.3831 17.5035 53.2791 16.9515 53.0871 16.5195C52.8951 16.0715 52.6071 15.7355 52.2231 15.5115C51.8551 15.2715 51.3991 15.1515 50.8551 15.1515C50.2791 15.1515 49.7751 15.2875 49.3431 15.5595C48.9271 15.8155 48.5991 16.1835 48.3591 16.6635C48.1351 17.1435 48.0231 17.7275 48.0231 18.4155C48.0231 19.1035 48.1431 19.6955 48.3831 20.1915C48.6391 20.6715 48.9911 21.0475 49.4391 21.3195C49.9031 21.5755 50.4471 21.7035 51.0711 21.7035C51.6471 21.7035 52.1671 21.6075 52.6311 21.4155C53.0951 21.2075 53.5031 20.9035 53.8551 20.5035L55.8711 22.5195C55.2951 23.1915 54.5991 23.6955 53.7831 24.0315C52.9671 24.3675 52.0711 24.5355 51.0951 24.5355ZM58.4835 24.2715V12.6075H62.1555V24.2715H58.4835ZM65.9475 24.2715V17.4555C65.9475 16.8635 65.7635 16.4075 65.3955 16.0875C65.0435 15.7515 64.6035 15.5835 64.0755 15.5835C63.7075 15.5835 63.3795 15.6635 63.0915 15.8235C62.8035 15.9675 62.5715 16.1755 62.3955 16.4475C62.2355 16.7195 62.1555 17.0555 62.1555 17.4555L60.7395 16.8315C60.7395 15.9035 60.9395 15.1115 61.3395 14.4555C61.7395 13.7835 62.2835 13.2715 62.9715 12.9195C63.6595 12.5515 64.4355 12.3675 65.2995 12.3675C66.1155 12.3675 66.8435 12.5515 67.4835 12.9195C68.1395 13.2875 68.6595 13.7995 69.0435 14.4555C69.4275 15.1115 69.6195 15.8955 69.6195 16.8075V24.2715H65.9475ZM73.4115 24.2715V17.4555C73.4115 16.8635 73.2275 16.4075 72.8595 16.0875C72.5075 15.7515 72.0675 15.5835 71.5395 15.5835C71.1715 15.5835 70.8435 15.6635 70.5555 15.8235C70.2675 15.9675 70.0355 16.1755 69.8595 16.4475C69.6995 16.7195 69.6195 17.0555 69.6195 17.4555L67.5075 17.1675C67.5395 16.1755 67.7715 15.3275 68.2035 14.6235C68.6515 13.9035 69.2355 13.3515 69.9555 12.9675C70.6915 12.5675 71.5155 12.3675 72.4275 12.3675C73.3235 12.3675 74.1155 12.5595 74.8035 12.9435C75.5075 13.3115 76.0595 13.8475 76.4595 14.5515C76.8755 15.2395 77.0835 16.0715 77.0835 17.0475V24.2715H73.4115ZM86.1566 24.5115C85.3726 24.5115 84.6526 24.3595 83.9966 24.0555C83.3406 23.7515 82.8046 23.3355 82.3886 22.8075C81.9726 22.2635 81.7326 21.6475 81.6686 20.9595V16.0395C81.7326 15.3515 81.9726 14.7275 82.3886 14.1675C82.8046 13.6075 83.3406 13.1675 83.9966 12.8475C84.6526 12.5275 85.3726 12.3675 86.1566 12.3675C87.2606 12.3675 88.2366 12.6315 89.0846 13.1595C89.9486 13.6875 90.6206 14.4075 91.1006 15.3195C91.5966 16.2315 91.8446 17.2715 91.8446 18.4395C91.8446 19.6075 91.5966 20.6475 91.1006 21.5595C90.6206 22.4715 89.9486 23.1915 89.0846 23.7195C88.2366 24.2475 87.2606 24.5115 86.1566 24.5115ZM79.4366 29.1915V12.6075H83.1086V15.6075L82.5086 18.4395L83.0606 21.2715V29.1915H79.4366ZM85.4846 21.1995C86.0126 21.1995 86.4686 21.0795 86.8526 20.8395C87.2526 20.5995 87.5646 20.2715 87.7886 19.8555C88.0126 19.4395 88.1246 18.9675 88.1246 18.4395C88.1246 17.8955 88.0126 17.4155 87.7886 16.9995C87.5646 16.5835 87.2526 16.2635 86.8526 16.0395C86.4686 15.7995 86.0206 15.6795 85.5086 15.6795C84.9966 15.6795 84.5406 15.7995 84.1406 16.0395C83.7566 16.2635 83.4526 16.5835 83.2286 16.9995C83.0046 17.4155 82.8926 17.8955 82.8926 18.4395C82.8926 18.9675 82.9966 19.4395 83.2046 19.8555C83.4286 20.2715 83.7406 20.5995 84.1406 20.8395C84.5406 21.0795 84.9886 21.1995 85.4846 21.1995ZM99.4701 24.5355C98.2061 24.5355 97.0781 24.2795 96.0861 23.7675C95.1101 23.2395 94.3421 22.5115 93.7821 21.5835C93.2221 20.6555 92.9421 19.6075 92.9421 18.4395C92.9421 17.2715 93.2141 16.2315 93.7581 15.3195C94.3181 14.3915 95.0701 13.6635 96.0141 13.1355C96.9581 12.6075 98.0221 12.3435 99.2061 12.3435C100.358 12.3435 101.374 12.5915 102.254 13.0875C103.134 13.5835 103.822 14.2715 104.318 15.1515C104.83 16.0315 105.086 17.0395 105.086 18.1755C105.086 18.3835 105.07 18.6075 105.038 18.8475C105.022 19.0715 104.982 19.3355 104.918 19.6395L94.8621 19.6635V17.1435L103.358 17.1195L101.774 18.1755C101.758 17.5035 101.654 16.9515 101.462 16.5195C101.27 16.0715 100.982 15.7355 100.598 15.5115C100.23 15.2715 99.7741 15.1515 99.2301 15.1515C98.6541 15.1515 98.1501 15.2875 97.7181 15.5595C97.3021 15.8155 96.9741 16.1835 96.7341 16.6635C96.5101 17.1435 96.3981 17.7275 96.3981 18.4155C96.3981 19.1035 96.5181 19.6955 96.7581 20.1915C97.0141 20.6715 97.3661 21.0475 97.8141 21.3195C98.2781 21.5755 98.8221 21.7035 99.4461 21.7035C100.022 21.7035 100.542 21.6075 101.006 21.4155C101.47 21.2075 101.878 20.9035 102.23 20.5035L104.246 22.5195C103.67 23.1915 102.974 23.6955 102.158 24.0315C101.342 24.3675 100.446 24.5355 99.4701 24.5355ZM106.859 24.2715V12.6075H110.531V24.2715H106.859ZM110.531 17.8635L108.995 16.6635C109.299 15.3035 109.811 14.2475 110.531 13.4955C111.251 12.7435 112.251 12.3675 113.531 12.3675C114.091 12.3675 114.579 12.4555 114.995 12.6315C115.427 12.7915 115.803 13.0475 116.123 13.3995L113.939 16.1595C113.779 15.9835 113.579 15.8475 113.339 15.7515C113.099 15.6555 112.827 15.6075 112.523 15.6075C111.915 15.6075 111.427 15.7995 111.059 16.1835C110.707 16.5515 110.531 17.1115 110.531 17.8635ZM121.645 24.5115C120.573 24.5115 119.613 24.2475 118.765 23.7195C117.933 23.1915 117.269 22.4715 116.773 21.5595C116.293 20.6475 116.053 19.6075 116.053 18.4395C116.053 17.2715 116.293 16.2315 116.773 15.3195C117.269 14.4075 117.933 13.6875 118.765 13.1595C119.613 12.6315 120.573 12.3675 121.645 12.3675C122.429 12.3675 123.133 12.5195 123.757 12.8235C124.397 13.1275 124.917 13.5515 125.317 14.0955C125.717 14.6235 125.941 15.2315 125.989 15.9195V20.9595C125.941 21.6475 125.717 22.2635 125.317 22.8075C124.933 23.3355 124.421 23.7515 123.781 24.0555C123.141 24.3595 122.429 24.5115 121.645 24.5115ZM122.389 21.1995C123.173 21.1995 123.805 20.9435 124.285 20.4315C124.765 19.9035 125.005 19.2395 125.005 18.4395C125.005 17.8955 124.893 17.4155 124.669 16.9995C124.461 16.5835 124.157 16.2635 123.757 16.0395C123.373 15.7995 122.925 15.6795 122.413 15.6795C121.901 15.6795 121.445 15.7995 121.045 16.0395C120.661 16.2635 120.349 16.5835 120.109 16.9995C119.885 17.4155 119.773 17.8955 119.773 18.4395C119.773 18.9675 119.885 19.4395 120.109 19.8555C120.333 20.2715 120.645 20.5995 121.045 20.8395C121.445 21.0795 121.893 21.1995 122.389 21.1995ZM124.861 24.2715V21.1275L125.413 18.2955L124.861 15.4635V12.6075H128.461V24.2715H124.861ZM132.702 24.2715V7.78348H136.374V24.2715H132.702ZM130.062 15.7275V12.6075H139.014V15.7275H130.062ZM145.816 24.5355C144.744 24.5355 143.792 24.3195 142.96 23.8875C142.144 23.4395 141.504 22.8315 141.04 22.0635C140.576 21.2795 140.344 20.3835 140.344 19.3755V12.6075H144.016V19.3275C144.016 19.7275 144.08 20.0715 144.208 20.3595C144.352 20.6475 144.56 20.8715 144.832 21.0315C145.104 21.1915 145.432 21.2715 145.816 21.2715C146.36 21.2715 146.792 21.1035 147.112 20.7675C147.432 20.4155 147.592 19.9355 147.592 19.3275V12.6075H151.264V19.3515C151.264 20.3755 151.032 21.2795 150.568 22.0635C150.104 22.8315 149.464 23.4395 148.648 23.8875C147.832 24.3195 146.888 24.5355 145.816 24.5355ZM153.569 24.2715V12.6075H157.241V24.2715H153.569ZM157.241 17.8635L155.705 16.6635C156.009 15.3035 156.521 14.2475 157.241 13.4955C157.961 12.7435 158.961 12.3675 160.241 12.3675C160.801 12.3675 161.289 12.4555 161.705 12.6315C162.137 12.7915 162.513 13.0475 162.833 13.3995L160.649 16.1595C160.489 15.9835 160.289 15.8475 160.049 15.7515C159.809 15.6555 159.537 15.6075 159.233 15.6075C158.625 15.6075 158.137 15.7995 157.769 16.1835C157.417 16.5515 157.241 17.1115 157.241 17.8635ZM169.243 24.5355C167.98 24.5355 166.852 24.2795 165.86 23.7675C164.884 23.2395 164.116 22.5115 163.556 21.5835C162.996 20.6555 162.716 19.6075 162.716 18.4395C162.716 17.2715 162.988 16.2315 163.532 15.3195C164.092 14.3915 164.844 13.6635 165.788 13.1355C166.732 12.6075 167.796 12.3435 168.98 12.3435C170.132 12.3435 171.148 12.5915 172.028 13.0875C172.908 13.5835 173.596 14.2715 174.092 15.1515C174.604 16.0315 174.859 17.0395 174.859 18.1755C174.859 18.3835 174.844 18.6075 174.812 18.8475C174.796 19.0715 174.756 19.3355 174.692 19.6395L164.636 19.6635V17.1435L173.132 17.1195L171.548 18.1755C171.532 17.5035 171.428 16.9515 171.236 16.5195C171.044 16.0715 170.756 15.7355 170.372 15.5115C170.004 15.2715 169.548 15.1515 169.004 15.1515C168.428 15.1515 167.924 15.2875 167.492 15.5595C167.076 15.8155 166.748 16.1835 166.508 16.6635C166.284 17.1435 166.172 17.7275 166.172 18.4155C166.172 19.1035 166.292 19.6955 166.532 20.1915C166.788 20.6715 167.14 21.0475 167.588 21.3195C168.052 21.5755 168.596 21.7035 169.22 21.7035C169.796 21.7035 170.316 21.6075 170.78 21.4155C171.244 21.2075 171.652 20.9035 172.004 20.5035L174.02 22.5195C173.444 23.1915 172.748 23.6955 171.932 24.0315C171.116 24.3675 170.22 24.5355 169.243 24.5355Z" fill="white"/>
<path d="M160.491 111.21V94.554H162.747V111.21H160.491ZM162.027 103.89V101.826H170.715V103.89H162.027ZM162.027 96.618V94.554H171.123V96.618H162.027Z" fill="white"/>
<path d="M44.0125 109.526H45.0293C48.3549 109.526 51.2251 109.028 53.6399 108.033C56.0759 107.016 58.0776 105.565 59.6451 103.68C61.2338 101.795 62.4094 99.5175 63.172 96.8485C63.9346 94.1583 64.3158 91.1398 64.3158 87.793V81.9467C64.3158 79.193 64.0193 76.7888 63.4262 74.7341C62.8543 72.6582 62.0176 70.9319 60.9161 69.555C59.8146 68.1782 58.4695 67.1508 56.8808 66.473C55.2922 65.774 53.4916 65.4244 51.4793 65.4244C49.6365 65.4244 47.9736 65.8375 46.4909 66.6636C45.0081 67.4685 43.7478 68.5806 42.7098 69.9998C41.6719 71.3979 40.867 72.976 40.295 74.7341C39.7443 76.4711 39.4689 78.2821 39.4689 80.1674C39.4689 81.9467 39.7231 83.6625 40.2315 85.3147C40.761 86.9669 41.5236 88.4497 42.5192 89.763C43.5359 91.0763 44.7539 92.1142 46.1731 92.8768C47.6135 93.6394 49.2552 94.0206 51.098 94.0206C53.4281 94.0206 55.4404 93.5864 57.135 92.7179C58.8508 91.8495 60.2594 90.748 61.3609 89.4135C62.4836 88.079 63.3203 86.681 63.871 85.2194C64.4218 83.7578 64.6971 82.4233 64.6971 81.2159L65.7139 81.1524C65.7139 83.2706 65.3432 85.2194 64.6018 86.9987C63.8604 88.778 62.8225 90.3243 61.488 91.6376C60.1535 92.9298 58.5966 93.9359 56.8173 94.6561C55.0591 95.3763 53.1527 95.7364 51.098 95.7364C49.0645 95.7364 47.2217 95.3234 45.5694 94.4973C43.9384 93.6711 42.5404 92.5379 41.3753 91.0975C40.2103 89.6359 39.31 87.9731 38.6746 86.109C38.0603 84.245 37.7531 82.2644 37.7531 80.1674C37.7531 77.922 38.0709 75.8144 38.7064 73.8444C39.363 71.8533 40.2844 70.1057 41.4707 68.6018C42.678 67.0767 44.1184 65.8799 45.7919 65.0114C47.4653 64.1429 49.3187 63.7087 51.3522 63.7087C53.6611 63.7087 55.7264 64.09 57.5481 64.8525C59.3698 65.5939 60.9055 66.7272 62.1552 68.2523C63.4262 69.7562 64.39 71.6521 65.0466 73.9398C65.7033 76.2063 66.0316 78.8647 66.0316 81.9149V87.094C66.0316 90.1655 65.7562 92.9721 65.2055 95.514C64.6548 98.0347 63.8286 100.28 62.7272 102.25C61.6257 104.199 60.2382 105.84 58.5648 107.175C56.8914 108.509 54.9215 109.526 52.6549 110.225C50.4096 110.903 47.8677 111.242 45.0293 111.242H43.949L44.0125 109.526ZM102.794 98.5643C102.794 101.36 102.137 103.701 100.824 105.586C99.5104 107.471 97.7416 108.891 95.5175 109.844C93.2933 110.776 90.815 111.242 88.0825 111.242C85.3076 111.242 82.7975 110.776 80.5521 109.844C78.328 108.891 76.5593 107.471 75.2459 105.586C73.9538 103.701 73.3078 101.36 73.3078 98.5643C73.3078 96.7426 73.6784 95.0798 74.4198 93.5758C75.1824 92.0719 76.2309 90.7797 77.5654 89.6994C78.8999 88.6191 80.4568 87.7824 82.2361 87.1893C84.0154 86.5962 85.943 86.2997 88.0189 86.2997C90.7514 86.2997 93.2298 86.8186 95.4539 87.8566C97.6993 88.8945 99.4786 90.3349 100.792 92.1778C102.126 93.9995 102.794 96.1283 102.794 98.5643ZM101.046 98.7231C101.046 96.499 100.464 94.5714 99.2985 92.9403C98.1335 91.3093 96.566 90.049 94.596 89.1593C92.6261 88.2485 90.4337 87.793 88.0189 87.793C85.5829 87.793 83.38 88.2485 81.41 89.1593C79.4401 90.049 77.8832 91.3093 76.7393 92.9403C75.5955 94.5714 75.0235 96.499 75.0235 98.7231C75.0235 101.053 75.5955 103.023 76.7393 104.633C77.8832 106.243 79.4401 107.461 81.41 108.287C83.4012 109.113 85.6253 109.526 88.0825 109.526C90.4973 109.526 92.679 109.113 94.6278 108.287C96.5978 107.461 98.1547 106.243 99.2985 104.633C100.464 103.023 101.046 101.053 101.046 98.7231ZM101.459 76.1004C101.459 78.3669 100.855 80.3686 99.648 82.1056C98.4406 83.8425 96.8202 85.1982 94.7867 86.1726C92.7744 87.147 90.5184 87.6342 88.0189 87.6342C85.477 87.6342 83.1893 87.147 81.1558 86.1726C79.1435 85.1982 77.5442 83.8425 76.358 82.1056C75.193 80.3686 74.6105 78.3669 74.6105 76.1004C74.6105 73.4102 75.193 71.1543 76.358 69.3326C77.5442 67.4897 79.1435 66.0917 81.1558 65.1385C83.1682 64.1853 85.4347 63.7087 87.9554 63.7087C90.4549 63.7087 92.7214 64.1853 94.7549 65.1385C96.7884 66.0917 98.4089 67.4897 99.6163 69.3326C100.845 71.1543 101.459 73.4102 101.459 76.1004ZM99.7434 75.9415C99.7434 73.8868 99.2138 72.0757 98.1547 70.5082C97.0956 68.9195 95.6763 67.6804 93.897 66.7907C92.1177 65.8799 90.1372 65.4244 87.9554 65.4244C85.7524 65.4244 83.7718 65.8481 82.0137 66.6954C80.2556 67.5427 78.8681 68.7501 77.8514 70.3176C76.8346 71.8851 76.3262 73.7597 76.3262 75.9415C76.3262 78.0385 76.8346 79.8496 77.8514 81.3748C78.8681 82.8787 80.2556 84.0437 82.0137 84.8699C83.793 85.6748 85.7948 86.0773 88.0189 86.0773C90.2007 86.0773 92.1707 85.6748 93.9288 84.8699C95.7081 84.0437 97.1167 82.8787 98.1547 81.3748C99.2138 79.8496 99.7434 78.0385 99.7434 75.9415ZM110.451 109.05C110.451 108.562 110.621 108.149 110.959 107.81C111.298 107.45 111.711 107.27 112.199 107.27C112.686 107.27 113.099 107.45 113.438 107.81C113.798 108.149 113.978 108.562 113.978 109.05C113.978 109.537 113.798 109.95 113.438 110.289C113.099 110.628 112.686 110.797 112.199 110.797C111.711 110.797 111.298 110.628 110.959 110.289C110.621 109.95 110.451 109.537 110.451 109.05ZM145.847 63.7087H146.45V65.4244H145.847C143.093 65.4244 140.488 65.8799 138.031 66.7907C135.595 67.6804 133.434 69.0784 131.549 70.9848C129.685 72.87 128.212 75.306 127.132 78.2927C126.073 81.2583 125.543 84.8169 125.543 88.9687V94.9421C125.543 97.145 125.872 99.1468 126.528 100.947C127.185 102.748 128.107 104.294 129.293 105.586C130.479 106.857 131.888 107.842 133.519 108.541C135.15 109.219 136.94 109.558 138.888 109.558C140.625 109.558 142.193 109.177 143.591 108.414C144.989 107.652 146.175 106.603 147.15 105.268C148.145 103.934 148.908 102.419 149.437 100.725C149.967 99.0091 150.232 97.2192 150.232 95.3551C150.232 93.4699 149.988 91.7224 149.501 90.1125C149.014 88.4815 148.272 87.0516 147.277 85.8231C146.302 84.5945 145.063 83.6413 143.559 82.9634C142.076 82.2644 140.339 81.9149 138.348 81.9149C136.103 81.9149 133.985 82.4127 131.994 83.4083C130.024 84.3827 128.414 85.7066 127.164 87.38C125.914 89.0534 125.289 90.9068 125.289 92.9403L124.05 92.8768C124.05 91.2458 124.4 89.6783 125.099 88.1743C125.819 86.6704 126.825 85.3147 128.117 84.1073C129.43 82.8999 130.966 81.9467 132.724 81.2477C134.504 80.5487 136.452 80.1991 138.571 80.1991C140.71 80.1991 142.606 80.5804 144.258 81.343C145.91 82.0844 147.308 83.1435 148.452 84.5204C149.596 85.876 150.465 87.4753 151.058 89.3182C151.651 91.161 151.947 93.1734 151.947 95.3551C151.947 97.6005 151.63 99.6869 150.994 101.615C150.359 103.542 149.458 105.226 148.293 106.667C147.128 108.107 145.751 109.23 144.163 110.035C142.574 110.839 140.816 111.242 138.888 111.242C136.749 111.242 134.758 110.871 132.915 110.13C131.093 109.367 129.494 108.276 128.117 106.857C126.761 105.438 125.702 103.733 124.94 101.742C124.198 99.7293 123.828 97.4734 123.828 94.9739V89.6359C123.828 85.0181 124.4 81.0676 125.543 77.7844C126.709 74.5011 128.308 71.8215 130.341 69.7456C132.375 67.6698 134.715 66.1446 137.363 65.1703C140.011 64.1959 142.839 63.7087 145.847 63.7087Z" fill="white"/>
<line x1="1.31697" y1="146.941" x2="1.31697" y2="204.727" stroke="white" stroke-width="1.01675"/>
<line x1="0.808594" y1="175.327" x2="206.193" y2="175.327" stroke="white" stroke-width="1.01675"/>
<path d="M2.20312 176.371L32.1922 163.65L84.9203 191.499L122.489 169.151L143.251 176.371L190.706 169.151L206.195 176.371" stroke="#EC7807" stroke-width="2.03351"/>
</svg>
