<svg width="447" height="302" viewBox="0 0 447 302" fill="none" xmlns="http://www.w3.org/2000/svg">
<g clip-path="url(#clip0_566_4414)">
<rect width="447" height="302" rx="10" fill="black"/>
<rect width="447" height="302" fill="black"/>
<path d="M49.432 59.24C48.392 59.24 47.448 58.984 46.6 58.472C45.752 57.944 45.08 57.232 44.584 56.336C44.104 55.44 43.864 54.432 43.864 53.312C43.864 52.192 44.104 51.184 44.584 50.288C45.08 49.392 45.744 48.68 46.576 48.152C47.424 47.624 48.376 47.36 49.432 47.36C50.296 47.36 51.064 47.544 51.736 47.912C52.424 48.264 52.976 48.76 53.392 49.4C53.808 50.024 54.04 50.752 54.088 51.584V55.016C54.04 55.832 53.808 56.56 53.392 57.2C52.992 57.84 52.448 58.344 51.76 58.712C51.088 59.064 50.312 59.24 49.432 59.24ZM49.792 57.2C50.864 57.2 51.728 56.84 52.384 56.12C53.04 55.384 53.368 54.448 53.368 53.312C53.368 52.528 53.216 51.848 52.912 51.272C52.624 50.68 52.208 50.224 51.664 49.904C51.12 49.568 50.488 49.4 49.768 49.4C49.048 49.4 48.408 49.568 47.848 49.904C47.304 50.24 46.872 50.704 46.552 51.296C46.248 51.872 46.096 52.536 46.096 53.288C46.096 54.056 46.248 54.736 46.552 55.328C46.872 55.904 47.312 56.36 47.872 56.696C48.432 57.032 49.072 57.2 49.792 57.2ZM53.224 59V55.928L53.632 53.144L53.224 50.384V47.6H55.408V59H53.224ZM62.4648 59L57.2328 47.6H59.6328L63.8328 57.224H62.4408L66.6648 47.6H68.9688L63.7368 59H62.4648ZM75.0933 64.016C73.9253 64.016 72.8853 63.8 71.9733 63.368C71.0773 62.936 70.3573 62.328 69.8133 61.544L71.2053 60.128C71.6693 60.72 72.2213 61.168 72.8613 61.472C73.5013 61.792 74.2613 61.952 75.1413 61.952C76.3093 61.952 77.2293 61.64 77.9013 61.016C78.5893 60.408 78.9333 59.584 78.9333 58.544V55.712L79.3173 53.144L78.9333 50.6V47.6H81.0933V58.544C81.0933 59.632 80.8373 60.584 80.3253 61.4C79.8293 62.216 79.1253 62.856 78.2133 63.32C77.3173 63.784 76.2773 64.016 75.0933 64.016ZM75.0933 58.808C74.0533 58.808 73.1173 58.56 72.2853 58.064C71.4693 57.568 70.8213 56.888 70.3413 56.024C69.8613 55.144 69.6213 54.16 69.6213 53.072C69.6213 51.984 69.8613 51.016 70.3413 50.168C70.8213 49.304 71.4693 48.624 72.2853 48.128C73.1173 47.616 74.0533 47.36 75.0933 47.36C75.9893 47.36 76.7813 47.536 77.4693 47.888C78.1573 48.24 78.7013 48.736 79.1013 49.376C79.5173 50 79.7413 50.736 79.7733 51.584V54.608C79.7253 55.44 79.4933 56.176 79.0773 56.816C78.6773 57.44 78.1333 57.928 77.4453 58.28C76.7573 58.632 75.9733 58.808 75.0933 58.808ZM75.5253 56.768C76.2293 56.768 76.8453 56.616 77.3733 56.312C77.9173 56.008 78.3333 55.584 78.6213 55.04C78.9093 54.48 79.0533 53.832 79.0533 53.096C79.0533 52.36 78.9013 51.72 78.5973 51.176C78.3093 50.616 77.9013 50.184 77.3733 49.88C76.8453 49.56 76.2213 49.4 75.5013 49.4C74.7813 49.4 74.1493 49.56 73.6053 49.88C73.0613 50.184 72.6293 50.616 72.3092 51.176C72.0053 51.72 71.8533 52.352 71.8533 53.072C71.8533 53.792 72.0053 54.432 72.3092 54.992C72.6293 55.552 73.0613 55.992 73.6053 56.312C74.1653 56.616 74.8053 56.768 75.5253 56.768ZM86.1597 59.24C85.7117 59.24 85.3357 59.088 85.0317 58.784C84.7437 58.464 84.5997 58.088 84.5997 57.656C84.5997 57.208 84.7437 56.84 85.0317 56.552C85.3357 56.248 85.7117 56.096 86.1597 56.096C86.6077 56.096 86.9757 56.248 87.2637 56.552C87.5677 56.84 87.7197 57.208 87.7197 57.656C87.7197 58.088 87.5677 58.464 87.2637 58.784C86.9757 59.088 86.6077 59.24 86.1597 59.24ZM97.9688 59V42.824H100.129V59H97.9688ZM95.1608 49.568V47.6H102.937V49.568H95.1608ZM105.077 59V47.6H107.237V59H105.077ZM106.157 45.32C105.757 45.32 105.429 45.192 105.173 44.936C104.917 44.664 104.789 44.328 104.789 43.928C104.789 43.544 104.917 43.224 105.173 42.968C105.429 42.696 105.757 42.56 106.157 42.56C106.557 42.56 106.885 42.696 107.141 42.968C107.397 43.224 107.525 43.544 107.525 43.928C107.525 44.328 107.397 44.664 107.141 44.936C106.885 45.192 106.557 45.32 106.157 45.32ZM110.42 59V47.6H112.58V59H110.42ZM118.124 59V52.112C118.124 51.264 117.86 50.6 117.332 50.12C116.82 49.624 116.172 49.376 115.388 49.376C114.86 49.376 114.388 49.488 113.972 49.712C113.556 49.936 113.22 50.248 112.964 50.648C112.708 51.048 112.58 51.528 112.58 52.088L111.692 51.656C111.692 50.792 111.876 50.04 112.244 49.4C112.628 48.76 113.148 48.264 113.804 47.912C114.46 47.544 115.196 47.36 116.012 47.36C116.812 47.36 117.532 47.536 118.172 47.888C118.828 48.24 119.34 48.736 119.708 49.376C120.092 50.016 120.284 50.776 120.284 51.656V59H118.124ZM125.828 59V52.112C125.828 51.264 125.564 50.6 125.036 50.12C124.524 49.624 123.884 49.376 123.116 49.376C122.588 49.376 122.108 49.488 121.676 49.712C121.26 49.936 120.924 50.248 120.668 50.648C120.412 51.048 120.284 51.528 120.284 52.088L119.06 51.656C119.108 50.776 119.34 50.024 119.756 49.4C120.188 48.76 120.74 48.264 121.412 47.912C122.084 47.544 122.82 47.36 123.62 47.36C124.452 47.36 125.196 47.536 125.852 47.888C126.508 48.24 127.028 48.736 127.412 49.376C127.812 50.016 128.012 50.784 128.012 51.68V59H125.828ZM136.231 59.24C135.095 59.24 134.071 58.984 133.159 58.472C132.247 57.944 131.527 57.232 130.999 56.336C130.471 55.44 130.207 54.424 130.207 53.288C130.207 52.168 130.463 51.16 130.975 50.264C131.503 49.368 132.207 48.664 133.087 48.152C133.983 47.624 134.983 47.36 136.087 47.36C137.143 47.36 138.071 47.6 138.871 48.08C139.687 48.56 140.319 49.224 140.767 50.072C141.231 50.92 141.463 51.88 141.463 52.952C141.463 53.112 141.455 53.288 141.439 53.48C141.423 53.656 141.391 53.864 141.343 54.104H131.719V52.304H140.191L139.399 53C139.399 52.232 139.263 51.584 138.991 51.056C138.719 50.512 138.335 50.096 137.839 49.808C137.343 49.504 136.743 49.352 136.039 49.352C135.303 49.352 134.655 49.512 134.095 49.832C133.535 50.152 133.103 50.6 132.799 51.176C132.495 51.752 132.343 52.432 132.343 53.216C132.343 54.016 132.503 54.72 132.823 55.328C133.143 55.92 133.599 56.384 134.191 56.72C134.783 57.04 135.463 57.2 136.231 57.2C136.871 57.2 137.455 57.088 137.983 56.864C138.527 56.64 138.991 56.304 139.375 55.856L140.767 57.272C140.223 57.912 139.551 58.4 138.751 58.736C137.967 59.072 137.127 59.24 136.231 59.24Z" fill="white"/>
<path d="M43.8 104.064L51.48 89.504H56.28L48.408 104.064H43.8ZM43.8 106.624V104.064L45.4 102.816H61.528V106.624H43.8ZM54.424 112V97.664H58.712V112H54.424ZM72.9365 112.32C71.1658 112.32 69.5658 111.84 68.1365 110.88C66.7072 109.92 65.5658 108.565 64.7125 106.816C63.8805 105.067 63.4645 103.029 63.4645 100.704C63.4645 98.3787 63.8805 96.352 64.7125 94.624C65.5445 92.896 66.6645 91.552 68.0725 90.592C69.5018 89.632 71.0912 89.152 72.8405 89.152C74.6325 89.152 76.2325 89.632 77.6405 90.592C79.0698 91.552 80.2005 92.9067 81.0325 94.656C81.8645 96.384 82.2805 98.4213 82.2805 100.768C82.2805 103.093 81.8645 105.131 81.0325 106.88C80.2005 108.608 79.0805 109.952 77.6725 110.912C76.2645 111.851 74.6858 112.32 72.9365 112.32ZM72.8725 108.384C73.8965 108.384 74.7818 108.096 75.5285 107.52C76.2752 106.944 76.8512 106.091 77.2565 104.96C77.6832 103.829 77.8965 102.421 77.8965 100.736C77.8965 99.0507 77.6832 97.6427 77.2565 96.512C76.8512 95.3813 76.2645 94.5387 75.4965 93.984C74.7498 93.408 73.8645 93.12 72.8405 93.12C71.8378 93.12 70.9632 93.408 70.2165 93.984C69.4698 94.5387 68.8832 95.3813 68.4565 96.512C68.0512 97.6213 67.8485 99.0187 67.8485 100.704C67.8485 102.411 68.0512 103.829 68.4565 104.96C68.8832 106.091 69.4698 106.944 70.2165 107.52C70.9632 108.096 71.8485 108.384 72.8725 108.384ZM91.5435 112V96.544H95.7355V112H91.5435ZM101.624 112V102.88C101.624 101.984 101.336 101.291 100.76 100.8C100.205 100.288 99.5115 100.032 98.6795 100.032C98.1248 100.032 97.6235 100.149 97.1755 100.384C96.7275 100.597 96.3755 100.917 96.1195 101.344C95.8635 101.771 95.7355 102.283 95.7355 102.88L94.1035 102.08C94.1035 100.885 94.3595 99.8507 94.8715 98.976C95.4048 98.1013 96.1195 97.4293 97.0155 96.96C97.9115 96.4693 98.9248 96.224 100.056 96.224C101.122 96.224 102.093 96.4693 102.968 96.96C103.842 97.4293 104.536 98.1013 105.048 98.976C105.56 99.8293 105.816 100.864 105.816 102.08V112H101.624ZM111.704 112V102.88C111.704 101.984 111.416 101.291 110.84 100.8C110.285 100.288 109.592 100.032 108.76 100.032C108.226 100.032 107.725 100.149 107.256 100.384C106.808 100.597 106.456 100.917 106.2 101.344C105.944 101.771 105.816 102.283 105.816 102.88L103.416 102.304C103.501 101.067 103.832 100 104.408 99.104C104.984 98.1867 105.741 97.4827 106.68 96.992C107.618 96.48 108.664 96.224 109.816 96.224C110.968 96.224 112.002 96.4693 112.92 96.96C113.837 97.4293 114.562 98.112 115.096 99.008C115.629 99.904 115.896 100.971 115.896 102.208V112H111.704ZM119.294 112V96.544H123.518V112H119.294ZM121.406 94.048C120.723 94.048 120.158 93.824 119.71 93.376C119.262 92.9067 119.038 92.3307 119.038 91.648C119.038 90.9867 119.262 90.4213 119.71 89.952C120.158 89.4827 120.723 89.248 121.406 89.248C122.11 89.248 122.675 89.4827 123.102 89.952C123.55 90.4213 123.774 90.9867 123.774 91.648C123.774 92.3307 123.55 92.9067 123.102 93.376C122.675 93.824 122.11 94.048 121.406 94.048ZM137.631 112V103.136C137.631 102.219 137.343 101.472 136.767 100.896C136.191 100.32 135.444 100.032 134.527 100.032C133.93 100.032 133.396 100.16 132.927 100.416C132.458 100.672 132.084 101.035 131.807 101.504C131.551 101.973 131.423 102.517 131.423 103.136L129.791 102.304C129.791 101.088 130.047 100.032 130.559 99.136C131.092 98.2187 131.818 97.504 132.735 96.992C133.674 96.48 134.73 96.224 135.903 96.224C137.034 96.224 138.047 96.512 138.943 97.088C139.839 97.6427 140.543 98.3787 141.055 99.296C141.567 100.192 141.823 101.163 141.823 102.208V112H137.631ZM127.231 112V96.544H131.423V112H127.231Z" fill="white"/>
<path d="M295.968 59V42.344H298.224V59H295.968ZM309.836 59V52.352C309.836 51.488 309.564 50.776 309.02 50.216C308.476 49.656 307.772 49.376 306.908 49.376C306.332 49.376 305.82 49.504 305.372 49.76C304.924 50.016 304.572 50.368 304.316 50.816C304.06 51.264 303.932 51.776 303.932 52.352L303.044 51.848C303.044 50.984 303.236 50.216 303.62 49.544C304.004 48.872 304.54 48.344 305.228 47.96C305.916 47.56 306.692 47.36 307.556 47.36C308.42 47.36 309.18 47.576 309.836 48.008C310.508 48.44 311.036 49.008 311.42 49.712C311.804 50.4 311.996 51.136 311.996 51.92V59H309.836ZM301.771 59V47.6H303.932V59H301.771ZM316.531 59V42.824H318.691V59H316.531ZM313.723 49.568V47.6H321.499V49.568H313.723ZM328.544 59.24C327.408 59.24 326.384 58.984 325.472 58.472C324.56 57.944 323.84 57.232 323.312 56.336C322.784 55.44 322.52 54.424 322.52 53.288C322.52 52.168 322.776 51.16 323.288 50.264C323.816 49.368 324.52 48.664 325.4 48.152C326.296 47.624 327.296 47.36 328.4 47.36C329.456 47.36 330.384 47.6 331.184 48.08C332 48.56 332.632 49.224 333.08 50.072C333.544 50.92 333.776 51.88 333.776 52.952C333.776 53.112 333.768 53.288 333.752 53.48C333.736 53.656 333.704 53.864 333.656 54.104H324.032V52.304H332.504L331.712 53C331.712 52.232 331.576 51.584 331.304 51.056C331.032 50.512 330.648 50.096 330.152 49.808C329.656 49.504 329.056 49.352 328.352 49.352C327.616 49.352 326.968 49.512 326.408 49.832C325.848 50.152 325.416 50.6 325.112 51.176C324.808 51.752 324.656 52.432 324.656 53.216C324.656 54.016 324.816 54.72 325.136 55.328C325.456 55.92 325.912 56.384 326.504 56.72C327.096 57.04 327.776 57.2 328.544 57.2C329.184 57.2 329.768 57.088 330.296 56.864C330.84 56.64 331.304 56.304 331.688 55.856L333.08 57.272C332.536 57.912 331.864 58.4 331.064 58.736C330.28 59.072 329.44 59.24 328.544 59.24ZM344.195 59V52.352C344.195 51.488 343.923 50.776 343.379 50.216C342.835 49.656 342.131 49.376 341.267 49.376C340.691 49.376 340.179 49.504 339.731 49.76C339.283 50.016 338.931 50.368 338.675 50.816C338.419 51.264 338.291 51.776 338.291 52.352L337.403 51.848C337.403 50.984 337.595 50.216 337.979 49.544C338.363 48.872 338.899 48.344 339.587 47.96C340.275 47.56 341.051 47.36 341.915 47.36C342.779 47.36 343.539 47.576 344.195 48.008C344.867 48.44 345.395 49.008 345.779 49.712C346.163 50.4 346.355 51.136 346.355 51.92V59H344.195ZM336.131 59V47.6H338.291V59H336.131ZM352.903 59.24C352.263 59.24 351.655 59.16 351.079 59C350.519 58.824 349.999 58.584 349.519 58.28C349.039 57.96 348.623 57.584 348.271 57.152L349.663 55.76C350.079 56.272 350.559 56.656 351.103 56.912C351.647 57.152 352.255 57.272 352.927 57.272C353.599 57.272 354.119 57.16 354.487 56.936C354.855 56.696 355.039 56.368 355.039 55.952C355.039 55.536 354.887 55.216 354.583 54.992C354.295 54.752 353.919 54.56 353.455 54.416C352.991 54.256 352.495 54.104 351.967 53.96C351.455 53.8 350.967 53.6 350.503 53.36C350.039 53.12 349.655 52.792 349.351 52.376C349.063 51.96 348.919 51.408 348.919 50.72C348.919 50.032 349.087 49.44 349.423 48.944C349.759 48.432 350.223 48.04 350.815 47.768C351.423 47.496 352.151 47.36 352.999 47.36C353.895 47.36 354.687 47.52 355.375 47.84C356.079 48.144 356.655 48.608 357.103 49.232L355.711 50.624C355.391 50.208 354.991 49.888 354.511 49.664C354.047 49.44 353.519 49.328 352.927 49.328C352.303 49.328 351.823 49.44 351.487 49.664C351.167 49.872 351.007 50.168 351.007 50.552C351.007 50.936 351.151 51.232 351.439 51.44C351.727 51.648 352.103 51.824 352.567 51.968C353.047 52.112 353.543 52.264 354.055 52.424C354.567 52.568 355.055 52.768 355.519 53.024C355.983 53.28 356.359 53.624 356.647 54.056C356.951 54.488 357.103 55.056 357.103 55.76C357.103 56.832 356.719 57.68 355.951 58.304C355.199 58.928 354.183 59.24 352.903 59.24ZM359.546 59V47.6H361.706V59H359.546ZM360.626 45.32C360.226 45.32 359.898 45.192 359.642 44.936C359.386 44.664 359.258 44.328 359.258 43.928C359.258 43.544 359.386 43.224 359.642 42.968C359.898 42.696 360.226 42.56 360.626 42.56C361.026 42.56 361.354 42.696 361.61 42.968C361.866 43.224 361.994 43.544 361.994 43.928C361.994 44.328 361.866 44.664 361.61 44.936C361.354 45.192 361.026 45.32 360.626 45.32ZM366.641 59V42.824H368.801V59H366.641ZM363.833 49.568V47.6H371.609V49.568H363.833ZM377.469 59.096L372.525 47.6H374.925L378.597 56.6H377.829L381.693 47.6H384.093L378.765 59.096H377.469ZM374.205 63.776L377.565 56.888L378.765 59.096L376.605 63.776H374.205Z" fill="white"/>
<path d="M296.304 112V89.504H300.656V112H296.304ZM299.504 112V108.128H310.96V112H299.504ZM320.495 112.32C318.938 112.32 317.53 111.968 316.271 111.264C315.034 110.539 314.042 109.568 313.295 108.352C312.57 107.115 312.207 105.739 312.207 104.224C312.207 102.709 312.57 101.355 313.295 100.16C314.02 98.944 315.012 97.984 316.271 97.28C317.53 96.5547 318.927 96.192 320.463 96.192C322.042 96.192 323.45 96.5547 324.687 97.28C325.946 97.984 326.938 98.944 327.663 100.16C328.388 101.355 328.751 102.709 328.751 104.224C328.751 105.739 328.388 107.115 327.663 108.352C326.938 109.568 325.946 110.539 324.687 111.264C323.45 111.968 322.052 112.32 320.495 112.32ZM320.463 108.416C321.252 108.416 321.946 108.245 322.543 107.904C323.162 107.541 323.631 107.051 323.951 106.432C324.292 105.792 324.463 105.067 324.463 104.256C324.463 103.445 324.292 102.731 323.951 102.112C323.61 101.493 323.14 101.013 322.543 100.672C321.946 100.309 321.252 100.128 320.463 100.128C319.695 100.128 319.012 100.309 318.415 100.672C317.818 101.013 317.348 101.493 317.007 102.112C316.666 102.731 316.495 103.445 316.495 104.256C316.495 105.067 316.666 105.792 317.007 106.432C317.348 107.051 317.818 107.541 318.415 107.904C319.012 108.245 319.695 108.416 320.463 108.416ZM335.234 112L329.442 96.544H333.666L337.442 107.776L336.162 107.808L340.034 96.544H343.074L346.946 107.808L345.666 107.776L349.442 96.544H353.666L347.906 112H344.866L340.962 101.312H342.146L338.242 112H335.234Z" fill="white"/>
<path d="M45.584 190V172.864H47.744V190H45.584ZM56.1843 190.24C55.0483 190.24 54.0243 189.984 53.1123 189.472C52.2003 188.944 51.4803 188.232 50.9523 187.336C50.4243 186.44 50.1603 185.424 50.1603 184.288C50.1603 183.168 50.4163 182.16 50.9283 181.264C51.4563 180.368 52.1603 179.664 53.0403 179.152C53.9363 178.624 54.9363 178.36 56.0403 178.36C57.0963 178.36 58.0243 178.6 58.8243 179.08C59.6403 179.56 60.2723 180.224 60.7203 181.072C61.1843 181.92 61.4163 182.88 61.4163 183.952C61.4163 184.112 61.4083 184.288 61.3923 184.48C61.3763 184.656 61.3443 184.864 61.2963 185.104H51.6723V183.304H60.1443L59.3523 184C59.3523 183.232 59.2163 182.584 58.9443 182.056C58.6723 181.512 58.2883 181.096 57.7923 180.808C57.2963 180.504 56.6963 180.352 55.9923 180.352C55.2563 180.352 54.6083 180.512 54.0483 180.832C53.4883 181.152 53.0563 181.6 52.7523 182.176C52.4483 182.752 52.2963 183.432 52.2963 184.216C52.2963 185.016 52.4563 185.72 52.7763 186.328C53.0963 186.92 53.5523 187.384 54.1443 187.72C54.7363 188.04 55.4163 188.2 56.1843 188.2C56.8243 188.2 57.4083 188.088 57.9363 187.864C58.4803 187.64 58.9443 187.304 59.3283 186.856L60.7203 188.272C60.1763 188.912 59.5043 189.4 58.7043 189.736C57.9203 190.072 57.0803 190.24 56.1843 190.24ZM67.496 190L62.264 178.6H64.664L68.864 188.224H67.472L71.696 178.6H74L68.768 190H67.496ZM80.6765 190.24C79.5405 190.24 78.5165 189.984 77.6045 189.472C76.6925 188.944 75.9725 188.232 75.4445 187.336C74.9165 186.44 74.6525 185.424 74.6525 184.288C74.6525 183.168 74.9085 182.16 75.4205 181.264C75.9485 180.368 76.6525 179.664 77.5325 179.152C78.4285 178.624 79.4285 178.36 80.5325 178.36C81.5885 178.36 82.5165 178.6 83.3165 179.08C84.1325 179.56 84.7645 180.224 85.2125 181.072C85.6765 181.92 85.9085 182.88 85.9085 183.952C85.9085 184.112 85.9005 184.288 85.8845 184.48C85.8685 184.656 85.8365 184.864 85.7885 185.104H76.1645V183.304H84.6365L83.8445 184C83.8445 183.232 83.7085 182.584 83.4365 182.056C83.1645 181.512 82.7805 181.096 82.2845 180.808C81.7885 180.504 81.1885 180.352 80.4845 180.352C79.7485 180.352 79.1005 180.512 78.5405 180.832C77.9805 181.152 77.5485 181.6 77.2445 182.176C76.9405 182.752 76.7885 183.432 76.7885 184.216C76.7885 185.016 76.9485 185.72 77.2685 186.328C77.5885 186.92 78.0445 187.384 78.6365 187.72C79.2285 188.04 79.9085 188.2 80.6765 188.2C81.3165 188.2 81.9005 188.088 82.4285 187.864C82.9725 187.64 83.4365 187.304 83.8205 186.856L85.2125 188.272C84.6685 188.912 83.9965 189.4 83.1965 189.736C82.4125 190.072 81.5725 190.24 80.6765 190.24ZM88.2637 190V172.864H90.4237V190H88.2637Z" fill="white"/>
<path d="M49.504 243V239.448H55.36C56.4053 239.448 57.216 239.128 57.792 238.488C58.3893 237.848 58.688 237.091 58.688 236.216C58.688 235.619 58.56 235.075 58.304 234.584C58.048 234.093 57.664 233.709 57.152 233.432C56.6613 233.133 56.064 232.984 55.36 232.984H49.504V229.464H54.88C55.776 229.464 56.4907 229.24 57.024 228.792C57.5787 228.344 57.856 227.672 57.856 226.776C57.856 225.859 57.5787 225.176 57.024 224.728C56.4907 224.28 55.776 224.056 54.88 224.056H49.504V220.504H55.392C56.8853 220.504 58.1333 220.781 59.136 221.336C60.16 221.869 60.928 222.584 61.44 223.48C61.952 224.355 62.208 225.315 62.208 226.36C62.208 227.64 61.8133 228.749 61.024 229.688C60.256 230.605 59.1253 231.288 57.632 231.736L57.824 230.328C59.488 230.797 60.768 231.576 61.664 232.664C62.5813 233.731 63.04 235.021 63.04 236.536C63.04 237.731 62.7413 238.819 62.144 239.8C61.568 240.76 60.7147 241.539 59.584 242.136C58.4747 242.712 57.12 243 55.52 243H49.504ZM46.304 243V220.504H50.624V243H46.304ZM73.4355 243.32C71.8142 243.32 70.3742 242.979 69.1155 242.296C67.8568 241.592 66.8542 240.632 66.1075 239.416C65.3822 238.2 65.0195 236.813 65.0195 235.256C65.0195 233.72 65.3715 232.355 66.0755 231.16C66.8008 229.944 67.7822 228.984 69.0195 228.28C70.2568 227.555 71.6328 227.192 73.1475 227.192C74.6408 227.192 75.9528 227.533 77.0835 228.216C78.2355 228.877 79.1315 229.795 79.7715 230.968C80.4328 232.12 80.7635 233.432 80.7635 234.904C80.7635 235.181 80.7422 235.469 80.6995 235.768C80.6782 236.045 80.6248 236.365 80.5395 236.728L67.5475 236.76V233.624L78.5875 233.592L76.8915 234.904C76.8488 233.987 76.6782 233.219 76.3795 232.6C76.1022 231.981 75.6862 231.512 75.1315 231.192C74.5982 230.851 73.9368 230.68 73.1475 230.68C72.3155 230.68 71.5902 230.872 70.9715 231.256C70.3528 231.619 69.8728 232.141 69.5315 232.824C69.2115 233.485 69.0515 234.275 69.0515 235.192C69.0515 236.131 69.2222 236.952 69.5635 237.656C69.9262 238.339 70.4382 238.872 71.0995 239.256C71.7608 239.619 72.5288 239.8 73.4035 239.8C74.1928 239.8 74.9075 239.672 75.5475 239.416C76.1875 239.139 76.7422 238.733 77.2115 238.2L79.6755 240.664C78.9288 241.539 78.0115 242.2 76.9235 242.648C75.8568 243.096 74.6942 243.32 73.4355 243.32ZM89.82 249.848C88.1773 249.848 86.7267 249.549 85.468 248.952C84.2093 248.376 83.2067 247.555 82.46 246.488L85.116 243.832C85.7133 244.536 86.3747 245.069 87.1 245.432C87.8467 245.816 88.7427 246.008 89.788 246.008C91.0893 246.008 92.1133 245.677 92.86 245.016C93.628 244.355 94.012 243.437 94.012 242.264V238.392L94.716 235L94.044 231.608V227.544H98.204V242.2C98.204 243.736 97.8413 245.069 97.116 246.2C96.412 247.352 95.4307 248.248 94.172 248.888C92.9133 249.528 91.4627 249.848 89.82 249.848ZM89.628 242.584C88.2413 242.584 86.9933 242.253 85.884 241.592C84.7747 240.909 83.9 239.981 83.26 238.808C82.6413 237.635 82.332 236.323 82.332 234.872C82.332 233.421 82.6413 232.12 83.26 230.968C83.9 229.816 84.7747 228.909 85.884 228.248C86.9933 227.565 88.2413 227.224 89.628 227.224C90.78 227.224 91.7933 227.448 92.668 227.896C93.564 228.344 94.268 228.963 94.78 229.752C95.292 230.52 95.5693 231.427 95.612 232.472V237.336C95.5693 238.36 95.2813 239.277 94.748 240.088C94.236 240.877 93.532 241.496 92.636 241.944C91.7613 242.371 90.7587 242.584 89.628 242.584ZM90.46 238.776C91.228 238.776 91.8893 238.616 92.444 238.296C93.02 237.955 93.468 237.496 93.788 236.92C94.108 236.323 94.268 235.651 94.268 234.904C94.268 234.136 94.108 233.464 93.788 232.888C93.468 232.312 93.02 231.864 92.444 231.544C91.8893 231.203 91.228 231.032 90.46 231.032C89.692 231.032 89.02 231.203 88.444 231.544C87.868 231.864 87.42 232.323 87.1 232.92C86.78 233.496 86.62 234.157 86.62 234.904C86.62 235.629 86.78 236.291 87.1 236.888C87.42 237.464 87.868 237.923 88.444 238.264C89.02 238.605 89.692 238.776 90.46 238.776ZM101.887 243V227.544H106.111V243H101.887ZM103.999 225.048C103.317 225.048 102.751 224.824 102.303 224.376C101.855 223.907 101.631 223.331 101.631 222.648C101.631 221.987 101.855 221.421 102.303 220.952C102.751 220.483 103.317 220.248 103.999 220.248C104.703 220.248 105.269 220.483 105.695 220.952C106.143 221.421 106.367 221.987 106.367 222.648C106.367 223.331 106.143 223.907 105.695 224.376C105.269 224.824 104.703 225.048 103.999 225.048ZM120.225 243V234.136C120.225 233.219 119.937 232.472 119.361 231.896C118.785 231.32 118.038 231.032 117.121 231.032C116.523 231.032 115.99 231.16 115.521 231.416C115.051 231.672 114.678 232.035 114.401 232.504C114.145 232.973 114.017 233.517 114.017 234.136L112.385 233.304C112.385 232.088 112.641 231.032 113.153 230.136C113.686 229.219 114.411 228.504 115.329 227.992C116.267 227.48 117.323 227.224 118.497 227.224C119.627 227.224 120.641 227.512 121.537 228.088C122.433 228.643 123.137 229.379 123.649 230.296C124.161 231.192 124.417 232.163 124.417 233.208V243H120.225ZM109.825 243V227.544H114.017V243H109.825ZM138.194 243V234.136C138.194 233.219 137.906 232.472 137.33 231.896C136.754 231.32 136.007 231.032 135.09 231.032C134.492 231.032 133.959 231.16 133.49 231.416C133.02 231.672 132.647 232.035 132.37 232.504C132.114 232.973 131.986 233.517 131.986 234.136L130.354 233.304C130.354 232.088 130.61 231.032 131.122 230.136C131.655 229.219 132.38 228.504 133.298 227.992C134.236 227.48 135.292 227.224 136.466 227.224C137.596 227.224 138.61 227.512 139.506 228.088C140.402 228.643 141.106 229.379 141.618 230.296C142.13 231.192 142.385 232.163 142.385 233.208V243H138.194ZM127.794 243V227.544H131.986V243H127.794ZM153.154 243.32C151.533 243.32 150.093 242.979 148.834 242.296C147.576 241.592 146.573 240.632 145.826 239.416C145.101 238.2 144.738 236.813 144.738 235.256C144.738 233.72 145.09 232.355 145.794 231.16C146.52 229.944 147.501 228.984 148.738 228.28C149.976 227.555 151.352 227.192 152.866 227.192C154.36 227.192 155.672 227.533 156.802 228.216C157.954 228.877 158.85 229.795 159.49 230.968C160.152 232.12 160.482 233.432 160.482 234.904C160.482 235.181 160.461 235.469 160.418 235.768C160.397 236.045 160.344 236.365 160.258 236.728L147.266 236.76V233.624L158.306 233.592L156.61 234.904C156.568 233.987 156.397 233.219 156.098 232.6C155.821 231.981 155.405 231.512 154.85 231.192C154.317 230.851 153.656 230.68 152.866 230.68C152.034 230.68 151.309 230.872 150.69 231.256C150.072 231.619 149.592 232.141 149.25 232.824C148.93 233.485 148.77 234.275 148.77 235.192C148.77 236.131 148.941 236.952 149.282 237.656C149.645 238.339 150.157 238.872 150.818 239.256C151.48 239.619 152.248 239.8 153.122 239.8C153.912 239.8 154.626 239.672 155.266 239.416C155.906 239.139 156.461 238.733 156.93 238.2L159.394 240.664C158.648 241.539 157.73 242.2 156.642 242.648C155.576 243.096 154.413 243.32 153.154 243.32ZM163.075 243V227.544H167.267V243H163.075ZM167.267 234.456L165.635 233.368C165.827 231.469 166.381 229.976 167.299 228.888C168.216 227.779 169.539 227.224 171.267 227.224C172.013 227.224 172.685 227.352 173.283 227.608C173.88 227.843 174.424 228.237 174.915 228.792L172.291 231.8C172.056 231.544 171.768 231.352 171.427 231.224C171.107 231.096 170.733 231.032 170.307 231.032C169.411 231.032 168.675 231.32 168.099 231.896C167.544 232.451 167.267 233.304 167.267 234.456Z" fill="white"/>
<path d="M307.528 190.24C306.328 190.24 305.216 190.024 304.192 189.592C303.168 189.144 302.272 188.528 301.504 187.744C300.752 186.96 300.168 186.048 299.752 185.008C299.336 183.968 299.128 182.856 299.128 181.672C299.128 180.472 299.336 179.352 299.752 178.312C300.168 177.272 300.752 176.368 301.504 175.6C302.272 174.816 303.16 174.208 304.168 173.776C305.192 173.328 306.304 173.104 307.504 173.104C308.816 173.104 309.968 173.328 310.96 173.776C311.952 174.224 312.832 174.832 313.6 175.6L312.04 177.16C311.512 176.568 310.864 176.104 310.096 175.768C309.344 175.432 308.48 175.264 307.504 175.264C306.624 175.264 305.816 175.424 305.08 175.744C304.344 176.048 303.704 176.488 303.16 177.064C302.616 177.64 302.192 178.32 301.888 179.104C301.6 179.888 301.456 180.744 301.456 181.672C301.456 182.6 301.6 183.456 301.888 184.24C302.192 185.024 302.616 185.704 303.16 186.28C303.704 186.856 304.344 187.304 305.08 187.624C305.816 187.928 306.624 188.08 307.504 188.08C308.544 188.08 309.448 187.912 310.216 187.576C310.984 187.224 311.632 186.752 312.16 186.16L313.72 187.696C312.952 188.496 312.048 189.12 311.008 189.568C309.984 190.016 308.824 190.24 307.528 190.24ZM320.557 190.24C319.517 190.24 318.573 189.984 317.725 189.472C316.877 188.944 316.205 188.232 315.709 187.336C315.229 186.44 314.989 185.432 314.989 184.312C314.989 183.192 315.229 182.184 315.709 181.288C316.205 180.392 316.869 179.68 317.701 179.152C318.549 178.624 319.501 178.36 320.557 178.36C321.421 178.36 322.189 178.544 322.861 178.912C323.549 179.264 324.101 179.76 324.517 180.4C324.933 181.024 325.165 181.752 325.213 182.584V186.016C325.165 186.832 324.933 187.56 324.517 188.2C324.117 188.84 323.573 189.344 322.885 189.712C322.213 190.064 321.437 190.24 320.557 190.24ZM320.917 188.2C321.989 188.2 322.853 187.84 323.509 187.12C324.165 186.384 324.493 185.448 324.493 184.312C324.493 183.528 324.341 182.848 324.037 182.272C323.749 181.68 323.333 181.224 322.789 180.904C322.245 180.568 321.613 180.4 320.893 180.4C320.173 180.4 319.533 180.568 318.973 180.904C318.429 181.24 317.997 181.704 317.677 182.296C317.373 182.872 317.221 183.536 317.221 184.288C317.221 185.056 317.373 185.736 317.677 186.328C317.997 186.904 318.437 187.36 318.997 187.696C319.557 188.032 320.197 188.2 320.917 188.2ZM324.349 190V186.928L324.757 184.144L324.349 181.384V178.6H326.533V190H324.349ZM329.678 190V172.864H331.838V190H329.678ZM340.206 190.24C339.086 190.24 338.078 189.976 337.182 189.448C336.286 188.92 335.574 188.208 335.046 187.312C334.518 186.4 334.254 185.384 334.254 184.264C334.254 183.16 334.518 182.168 335.046 181.288C335.574 180.392 336.286 179.68 337.182 179.152C338.078 178.624 339.086 178.36 340.206 178.36C341.31 178.36 342.31 178.624 343.206 179.152C344.118 179.664 344.838 180.368 345.366 181.264C345.894 182.16 346.158 183.16 346.158 184.264C346.158 185.384 345.894 186.4 345.366 187.312C344.838 188.208 344.118 188.92 343.206 189.448C342.31 189.976 341.31 190.24 340.206 190.24ZM340.206 188.152C340.926 188.152 341.566 187.984 342.126 187.648C342.686 187.312 343.126 186.856 343.446 186.28C343.766 185.688 343.926 185.016 343.926 184.264C343.926 183.528 343.758 182.872 343.422 182.296C343.102 181.72 342.662 181.272 342.102 180.952C341.558 180.616 340.926 180.448 340.206 180.448C339.486 180.448 338.846 180.616 338.286 180.952C337.726 181.272 337.286 181.72 336.966 182.296C336.646 182.872 336.486 183.528 336.486 184.264C336.486 185.016 336.646 185.688 336.966 186.28C337.286 186.856 337.726 187.312 338.286 187.648C338.846 187.984 339.486 188.152 340.206 188.152ZM348.592 190V178.6H350.752V190H348.592ZM350.752 183.496L349.936 183.136C349.936 181.68 350.272 180.52 350.944 179.656C351.616 178.792 352.584 178.36 353.848 178.36C354.424 178.36 354.944 178.464 355.408 178.672C355.872 178.864 356.304 179.192 356.704 179.656L355.288 181.12C355.048 180.864 354.784 180.68 354.496 180.568C354.208 180.456 353.872 180.4 353.488 180.4C352.688 180.4 352.032 180.656 351.52 181.168C351.008 181.68 350.752 182.456 350.752 183.496ZM358.249 190V178.6H360.409V190H358.249ZM359.329 176.32C358.929 176.32 358.601 176.192 358.345 175.936C358.089 175.664 357.961 175.328 357.961 174.928C357.961 174.544 358.089 174.224 358.345 173.968C358.601 173.696 358.929 173.56 359.329 173.56C359.729 173.56 360.057 173.696 360.313 173.968C360.569 174.224 360.697 174.544 360.697 174.928C360.697 175.328 360.569 175.664 360.313 175.936C360.057 176.192 359.729 176.32 359.329 176.32ZM368.872 190.24C367.736 190.24 366.712 189.984 365.8 189.472C364.888 188.944 364.168 188.232 363.64 187.336C363.112 186.44 362.848 185.424 362.848 184.288C362.848 183.168 363.104 182.16 363.616 181.264C364.144 180.368 364.848 179.664 365.728 179.152C366.624 178.624 367.624 178.36 368.728 178.36C369.784 178.36 370.712 178.6 371.512 179.08C372.328 179.56 372.96 180.224 373.408 181.072C373.872 181.92 374.104 182.88 374.104 183.952C374.104 184.112 374.096 184.288 374.08 184.48C374.064 184.656 374.032 184.864 373.984 185.104H364.36V183.304H372.832L372.04 184C372.04 183.232 371.904 182.584 371.632 182.056C371.36 181.512 370.976 181.096 370.48 180.808C369.984 180.504 369.384 180.352 368.68 180.352C367.944 180.352 367.296 180.512 366.736 180.832C366.176 181.152 365.744 181.6 365.44 182.176C365.136 182.752 364.984 183.432 364.984 184.216C364.984 185.016 365.144 185.72 365.464 186.328C365.784 186.92 366.24 187.384 366.832 187.72C367.424 188.04 368.104 188.2 368.872 188.2C369.512 188.2 370.096 188.088 370.624 187.864C371.168 187.64 371.632 187.304 372.016 186.856L373.408 188.272C372.864 188.912 372.192 189.4 371.392 189.736C370.608 190.072 369.768 190.24 368.872 190.24ZM380.083 190.24C379.443 190.24 378.835 190.16 378.259 190C377.699 189.824 377.179 189.584 376.699 189.28C376.219 188.96 375.803 188.584 375.451 188.152L376.843 186.76C377.259 187.272 377.739 187.656 378.283 187.912C378.827 188.152 379.435 188.272 380.107 188.272C380.779 188.272 381.299 188.16 381.667 187.936C382.035 187.696 382.219 187.368 382.219 186.952C382.219 186.536 382.067 186.216 381.763 185.992C381.475 185.752 381.099 185.56 380.635 185.416C380.171 185.256 379.675 185.104 379.147 184.96C378.635 184.8 378.147 184.6 377.683 184.36C377.219 184.12 376.835 183.792 376.531 183.376C376.243 182.96 376.099 182.408 376.099 181.72C376.099 181.032 376.267 180.44 376.603 179.944C376.939 179.432 377.403 179.04 377.995 178.768C378.603 178.496 379.331 178.36 380.179 178.36C381.075 178.36 381.867 178.52 382.555 178.84C383.259 179.144 383.835 179.608 384.283 180.232L382.891 181.624C382.571 181.208 382.171 180.888 381.691 180.664C381.227 180.44 380.699 180.328 380.107 180.328C379.483 180.328 379.003 180.44 378.667 180.664C378.347 180.872 378.187 181.168 378.187 181.552C378.187 181.936 378.331 182.232 378.619 182.44C378.907 182.648 379.283 182.824 379.747 182.968C380.227 183.112 380.723 183.264 381.235 183.424C381.747 183.568 382.235 183.768 382.699 184.024C383.163 184.28 383.539 184.624 383.827 185.056C384.131 185.488 384.283 186.056 384.283 186.76C384.283 187.832 383.899 188.68 383.131 189.304C382.379 189.928 381.363 190.24 380.083 190.24Z" fill="white"/>
<path d="M298.832 240.504L307.312 231.64C307.909 231 308.389 230.435 308.752 229.944C309.136 229.432 309.413 228.952 309.584 228.504C309.755 228.035 309.84 227.565 309.84 227.096C309.84 226.157 309.531 225.421 308.912 224.888C308.315 224.355 307.536 224.088 306.576 224.088C305.595 224.088 304.72 224.344 303.952 224.856C303.205 225.368 302.501 226.179 301.84 227.288L298.864 224.76C299.76 223.245 300.869 222.104 302.192 221.336C303.536 220.547 305.072 220.152 306.8 220.152C308.272 220.152 309.552 220.44 310.64 221.016C311.749 221.592 312.603 222.392 313.2 223.416C313.797 224.44 314.096 225.635 314.096 227C314.096 227.917 313.979 228.749 313.744 229.496C313.531 230.243 313.157 230.989 312.624 231.736C312.112 232.461 311.397 233.283 310.48 234.2L304.304 240.504H298.832ZM298.832 243V240.504L302.544 239.224H314.576V243H298.832ZM316.52 240.504L325 231.64C325.597 231 326.077 230.435 326.44 229.944C326.824 229.432 327.101 228.952 327.272 228.504C327.442 228.035 327.528 227.565 327.528 227.096C327.528 226.157 327.218 225.421 326.6 224.888C326.002 224.355 325.224 224.088 324.264 224.088C323.282 224.088 322.408 224.344 321.64 224.856C320.893 225.368 320.189 226.179 319.528 227.288L316.552 224.76C317.448 223.245 318.557 222.104 319.88 221.336C321.224 220.547 322.76 220.152 324.488 220.152C325.96 220.152 327.24 220.44 328.328 221.016C329.437 221.592 330.29 222.392 330.888 223.416C331.485 224.44 331.784 225.635 331.784 227C331.784 227.917 331.666 228.749 331.432 229.496C331.218 230.243 330.845 230.989 330.312 231.736C329.8 232.461 329.085 233.283 328.168 234.2L321.992 240.504H316.52ZM316.52 243V240.504L320.232 239.224H332.264V243H316.52ZM343.999 243.32C342.228 243.32 340.628 242.84 339.199 241.88C337.77 240.92 336.628 239.565 335.775 237.816C334.943 236.067 334.527 234.029 334.527 231.704C334.527 229.379 334.943 227.352 335.775 225.624C336.607 223.896 337.727 222.552 339.135 221.592C340.564 220.632 342.154 220.152 343.903 220.152C345.695 220.152 347.295 220.632 348.703 221.592C350.132 222.552 351.263 223.907 352.095 225.656C352.927 227.384 353.343 229.421 353.343 231.768C353.343 234.093 352.927 236.131 352.095 237.88C351.263 239.608 350.143 240.952 348.735 241.912C347.327 242.851 345.748 243.32 343.999 243.32ZM343.935 239.384C344.959 239.384 345.844 239.096 346.591 238.52C347.338 237.944 347.914 237.091 348.319 235.96C348.746 234.829 348.959 233.421 348.959 231.736C348.959 230.051 348.746 228.643 348.319 227.512C347.914 226.381 347.327 225.539 346.559 224.984C345.812 224.408 344.927 224.12 343.903 224.12C342.9 224.12 342.026 224.408 341.279 224.984C340.532 225.539 339.946 226.381 339.519 227.512C339.114 228.621 338.911 230.019 338.911 231.704C338.911 233.411 339.114 234.829 339.519 235.96C339.946 237.091 340.532 237.944 341.279 238.52C342.026 239.096 342.911 239.384 343.935 239.384Z" fill="white"/>
</g>
<rect x="0.75" y="0.75" width="445.5" height="300.5" rx="9.25" stroke="url(#paint0_linear_566_4414)" stroke-width="1.5"/>
<defs>
<linearGradient id="paint0_linear_566_4414" x1="223.5" y1="0" x2="223.5" y2="302" gradientUnits="userSpaceOnUse">
<stop stop-color="#EC7807"/>
<stop offset="0.3" stop-color="#321900"/>
<stop offset="0.7" stop-color="#321900"/>
<stop offset="1" stop-color="#EC7807"/>
</linearGradient>
<clipPath id="clip0_566_4414">
<rect width="447" height="302" rx="10" fill="white"/>
</clipPath>
</defs>
</svg>
