<svg width="42" height="56" viewBox="0 0 42 56" fill="none" xmlns="http://www.w3.org/2000/svg">
<path d="M14.6984 30.954L17.0191 23.268L10.912 18.7844H18.5444L20.88 11.0179L23.2186 18.7844H30.8481L24.723 23.265L27.0467 30.954L20.88 26.1815L14.6984 30.954ZM5.98455 55.3379V35.7057C4.09779 33.8487 2.63307 31.674 1.59039 29.1815C0.547709 26.6949 0.0263672 24.0316 0.0263672 21.1915C0.0263672 15.3783 2.04818 10.4499 6.0918 6.4063C10.1354 2.36268 15.0648 0.339878 20.88 0.337892C26.6952 0.335906 31.6246 2.35772 35.6682 6.40332C39.7118 10.4489 41.7337 15.3783 41.7337 21.1915C41.7337 24.0296 41.2123 26.6939 40.1696 29.1844C39.127 31.675 37.6622 33.8467 35.7755 35.6997V55.3319L20.88 50.8633L5.98455 55.3379ZM20.88 39.0661C25.8452 39.0661 30.0655 37.3283 33.5412 33.8527C37.0168 30.3771 38.7546 26.1567 38.7546 21.1915C38.7546 16.2264 37.0168 12.006 33.5412 8.5304C30.0655 5.05479 25.8452 3.31698 20.88 3.31698C15.9149 3.31698 11.6945 5.05479 8.21887 8.5304C4.74326 12.006 3.00546 16.2264 3.00546 21.1915C3.00546 26.1567 4.74326 30.3771 8.21887 33.8527C11.6945 37.3283 15.9149 39.0661 20.88 39.0661ZM8.96364 51.1135L20.88 47.774L32.7964 51.1135V38.2141C31.136 39.4355 29.29 40.3789 27.2582 41.0442C25.2305 41.7115 23.1044 42.0452 20.88 42.0452C18.6556 42.0452 16.5295 41.7125 14.5018 41.0472C12.474 40.3819 10.628 39.4375 8.96364 38.2141V51.1135Z" fill="#EC7807"/>
</svg>
