<svg width="61" height="56" viewBox="0 0 61 56" fill="none" xmlns="http://www.w3.org/2000/svg">
<path d="M48.5669 0.337891C48.8635 0.337643 49.156 0.407761 49.4202 0.542485C49.6845 0.67721 49.913 0.872697 50.0871 1.11289L50.2221 1.33039L60.2408 20.1129L60.3483 20.3679L60.3759 20.4629L60.4184 20.6554L60.4434 20.8754L60.4384 21.1254L60.4434 20.9629C60.4408 21.2168 60.3899 21.468 60.2933 21.7029L60.2183 21.8529L60.1183 22.0179L59.9883 22.1904L31.9373 54.6004C31.6971 54.9212 31.3579 55.154 30.9722 55.2629L30.8272 55.2979L30.5846 55.3329L30.4371 55.3379L30.1871 55.3204L29.9721 55.2804L29.7145 55.1954L29.6495 55.1654C29.418 55.0626 29.2115 54.9108 29.0444 54.7204L0.863412 22.1554L0.708392 21.9379L0.588378 21.7054L0.500867 21.4554L0.443359 21.1304V20.8104L0.480864 20.5629L0.505867 20.4629L0.588378 20.2254L0.658386 20.0829L10.6596 1.33289C10.799 1.07155 10.9984 0.846939 11.2413 0.677466C11.4842 0.507994 11.7639 0.398478 12.0573 0.357891L12.3098 0.337891H48.5669ZM40.2058 22.8379H20.6659L30.4421 48.2379L40.2058 22.8379ZM16.6529 22.8379H6.4091L24.8439 44.1329L16.6529 22.8379ZM54.4626 22.8379H44.2288L36.0453 44.1154L54.4626 22.8379ZM20.4984 4.08539H13.435L5.43398 19.0879H16.4954L20.4984 4.08539ZM36.5004 4.08539H24.3789L20.3784 19.0879H40.4984L36.5004 4.08539ZM47.4417 4.08539H40.3784L44.3814 19.0879H55.4402L47.4417 4.08539Z" fill="#EC7807"/>
</svg>
