<svg width="61" height="56" viewBox="0 0 61 56" fill="none" xmlns="http://www.w3.org/2000/svg">
<path d="M60.2359 54.553L60.3909 54.2179V54.1044C60.3909 53.9936 60.4434 53.8801 60.4434 53.826V53.7126C60.4434 53.6018 60.4434 53.4342 60.3934 53.3207L60.2359 52.9856V52.9289L31.7934 1.17834C31.657 0.921916 31.4603 0.709082 31.2231 0.561467C30.986 0.413852 30.717 0.336718 30.4434 0.337904C30.1719 0.34472 29.9063 0.424965 29.6709 0.571307C29.4355 0.717649 29.2378 0.925422 29.0959 1.17564L0.650859 52.8748V52.9316L0.495859 53.2667C0.443359 53.3775 0.443359 53.545 0.443359 53.6558V53.7693C0.443359 53.8801 0.443359 53.9936 0.493359 54.0476V54.1611C0.545859 54.2719 0.545859 54.3854 0.650859 54.4962L0.700859 54.553C0.753359 54.6638 0.805859 54.7773 0.910859 54.834L1.06586 55.0016C1.11586 55.0556 1.16836 55.1124 1.22086 55.1124C1.27086 55.1691 1.37586 55.1691 1.42836 55.2259C1.47836 55.2259 1.53086 55.2799 1.58336 55.2799C1.71776 55.3239 1.85806 55.3431 1.99836 55.3367H58.8384C58.9934 55.3367 59.0959 55.3367 59.2509 55.2826C59.3034 55.2826 59.3559 55.2259 59.4084 55.2259C59.5109 55.1691 59.5634 55.1691 59.6659 55.1124C59.7159 55.0583 59.7709 55.0583 59.8209 55.0016L59.9759 54.834C60.0591 54.7535 60.1292 54.6585 60.1834 54.553H60.2359ZM30.4434 25.9889L39.5109 41.7843H21.3759L30.4434 25.9889ZM28.8884 22.3488L17.4884 42.2302L6.35086 49.1212L28.8884 8.1802V22.3488ZM18.9934 45.2001H41.8434L52.9834 52.0911H7.85336L18.9934 45.2001ZM43.3959 42.2302L31.9959 22.3488V8.1775L54.5359 49.1185L43.3959 42.2302Z" fill="#EC7807"/>
</svg>
