<svg width="437" height="246" viewBox="0 0 437 246" fill="none" xmlns="http://www.w3.org/2000/svg">
<path d="M184.356 24.3496L178.908 7.40561H182.652L186.636 20.4376H185.172L189.06 7.40561H192.012L195.9 20.4376H194.46L198.42 7.40561H202.14L196.692 24.3496H193.74L189.828 11.3176H191.22L187.308 24.3496H184.356ZM208.103 24.6136C206.839 24.6136 205.711 24.3576 204.719 23.8456C203.743 23.3176 202.975 22.5896 202.415 21.6616C201.855 20.7336 201.575 19.6856 201.575 18.5176C201.575 17.3496 201.847 16.3096 202.391 15.3976C202.951 14.4696 203.703 13.7416 204.647 13.2136C205.591 12.6856 206.655 12.4216 207.839 12.4216C208.991 12.4216 210.007 12.6696 210.887 13.1656C211.767 13.6616 212.455 14.3496 212.951 15.2296C213.463 16.1096 213.719 17.1176 213.719 18.2536C213.719 18.4616 213.703 18.6856 213.671 18.9256C213.655 19.1496 213.615 19.4136 213.551 19.7176L203.495 19.7416V17.2216L211.991 17.1976L210.407 18.2536C210.391 17.5816 210.287 17.0296 210.095 16.5976C209.903 16.1496 209.615 15.8136 209.231 15.5896C208.863 15.3496 208.407 15.2296 207.863 15.2296C207.287 15.2296 206.783 15.3656 206.351 15.6376C205.935 15.8936 205.607 16.2616 205.367 16.7416C205.143 17.2216 205.031 17.8056 205.031 18.4936C205.031 19.1816 205.151 19.7736 205.391 20.2696C205.647 20.7496 205.999 21.1256 206.447 21.3976C206.911 21.6536 207.455 21.7816 208.079 21.7816C208.655 21.7816 209.175 21.6856 209.639 21.4936C210.103 21.2856 210.511 20.9816 210.863 20.5816L212.879 22.5976C212.303 23.2696 211.607 23.7736 210.791 24.1096C209.975 24.4456 209.079 24.6136 208.103 24.6136ZM215.491 24.3496V12.6856H219.163V24.3496H215.491ZM217.339 11.0776C216.763 11.0776 216.283 10.8856 215.899 10.5016C215.531 10.1016 215.347 9.62161 215.347 9.06161C215.347 8.48561 215.531 8.00561 215.899 7.62161C216.283 7.23761 216.763 7.04561 217.339 7.04561C217.915 7.04561 218.387 7.23761 218.755 7.62161C219.123 8.00561 219.307 8.48561 219.307 9.06161C219.307 9.62161 219.123 10.1016 218.755 10.5016C218.387 10.8856 217.915 11.0776 217.339 11.0776ZM226.693 29.5816C225.413 29.5816 224.285 29.3576 223.309 28.9096C222.349 28.4776 221.589 27.8616 221.029 27.0616L223.285 24.8056C223.701 25.3016 224.165 25.6776 224.677 25.9336C225.205 26.1896 225.837 26.3176 226.573 26.3176C227.485 26.3176 228.197 26.0936 228.709 25.6456C229.237 25.1976 229.501 24.5656 229.501 23.7496V20.7736L230.125 18.2296L229.573 15.6856V12.6856H233.173V23.6536C233.173 24.8536 232.893 25.8936 232.333 26.7736C231.773 27.6536 231.005 28.3416 230.029 28.8376C229.053 29.3336 227.941 29.5816 226.693 29.5816ZM226.525 23.9896C225.453 23.9896 224.501 23.7336 223.669 23.2216C222.837 22.7096 222.181 22.0136 221.701 21.1336C221.221 20.2536 220.981 19.2776 220.981 18.2056C220.981 17.1176 221.221 16.1416 221.701 15.2776C222.181 14.3976 222.837 13.7096 223.669 13.2136C224.501 12.7016 225.453 12.4456 226.525 12.4456C227.325 12.4456 228.037 12.5976 228.661 12.9016C229.301 13.1896 229.813 13.6056 230.197 14.1496C230.597 14.6776 230.821 15.2936 230.869 15.9976V20.4376C230.821 21.1256 230.597 21.7416 230.197 22.2856C229.813 22.8136 229.301 23.2296 228.661 23.5336C228.021 23.8376 227.309 23.9896 226.525 23.9896ZM227.221 20.7256C227.733 20.7256 228.173 20.6136 228.541 20.3896C228.925 20.1656 229.213 19.8696 229.405 19.5016C229.613 19.1176 229.717 18.6856 229.717 18.2056C229.717 17.7256 229.613 17.2936 229.405 16.9096C229.213 16.5256 228.925 16.2216 228.541 15.9976C228.173 15.7736 227.733 15.6616 227.221 15.6616C226.725 15.6616 226.285 15.7736 225.901 15.9976C225.517 16.2216 225.221 16.5256 225.013 16.9096C224.805 17.2936 224.701 17.7256 224.701 18.2056C224.701 18.6536 224.805 19.0776 225.013 19.4776C225.221 19.8616 225.509 20.1656 225.877 20.3896C226.261 20.6136 226.709 20.7256 227.221 20.7256ZM243.469 24.3496V17.7016C243.469 17.0936 243.277 16.6056 242.893 16.2376C242.525 15.8536 242.053 15.6616 241.477 15.6616C241.077 15.6616 240.725 15.7496 240.421 15.9256C240.117 16.0856 239.877 16.3256 239.701 16.6456C239.525 16.9496 239.437 17.3016 239.437 17.7016L238.021 17.0056C238.021 16.0936 238.213 15.2936 238.597 14.6056C238.981 13.9176 239.517 13.3896 240.205 13.0216C240.893 12.6376 241.685 12.4456 242.581 12.4456C243.493 12.4456 244.293 12.6376 244.981 13.0216C245.669 13.3896 246.197 13.9096 246.565 14.5816C246.949 15.2376 247.141 16.0056 247.141 16.8856V24.3496H243.469ZM235.765 24.3496V6.92561H239.437V24.3496H235.765ZM251.015 24.3496V7.86161H254.687V24.3496H251.015ZM248.375 15.8056V12.6856H257.327V15.8056H248.375Z" fill="white"/>
<rect x="0.40625" y="114.74" width="436.187" height="3.05026" rx="1.52513" fill="#3A3939"/>
<path d="M280.012 115.757C280.012 115.757 292.024 101.403 301.884 97.2451C312.593 92.7293 320.06 92.0251 330.928 95.9536C341.605 99.813 354.235 115.757 354.235 115.757" stroke="#EC7807" stroke-width="2.03351"/>
<path d="M103.098 115.757C103.098 115.757 117.414 73.9994 129.165 61.9034C141.927 48.7663 150.826 46.7177 163.779 58.1462C176.504 69.3737 191.555 115.757 191.555 115.757" stroke="#EC7807" stroke-width="2.03351"/>
<path d="M280.012 115.756C280.012 115.756 265.696 138.592 253.945 145.207C241.182 152.392 232.283 153.512 219.331 147.262C206.606 141.122 191.554 115.756 191.554 115.756" stroke="#FF0000" stroke-width="2.03351"/>
<path d="M103.098 115.757C103.098 115.757 88.7816 132.068 77.0304 136.793C64.2679 141.925 55.3692 142.725 42.4166 138.261C29.6918 133.875 14.6401 115.757 14.6401 115.757" stroke="#FF0000" stroke-width="2.03351"/>
<path d="M90.1661 242.77C89.5821 242.77 89.0341 242.662 88.5221 242.446C88.0181 242.222 87.5741 241.914 87.1901 241.522C86.8141 241.13 86.5181 240.674 86.3021 240.154C86.0861 239.634 85.9781 239.074 85.9781 238.474C85.9781 237.874 86.0861 237.318 86.3021 236.806C86.5181 236.286 86.8181 235.83 87.2021 235.438C87.5861 235.046 88.0341 234.742 88.5461 234.526C89.0661 234.31 89.6301 234.202 90.2381 234.202C90.9021 234.202 91.5141 234.33 92.0741 234.586C92.6341 234.842 93.1021 235.21 93.4781 235.69L92.6981 236.47C92.4341 236.086 92.0861 235.794 91.6541 235.594C91.2221 235.386 90.7501 235.282 90.2381 235.282C89.6301 235.282 89.0901 235.418 88.6181 235.69C88.1541 235.962 87.7901 236.338 87.5261 236.818C87.2701 237.298 87.1421 237.85 87.1421 238.474C87.1421 239.106 87.2741 239.662 87.5381 240.142C87.8021 240.622 88.1581 240.998 88.6061 241.27C89.0541 241.542 89.5661 241.678 90.1421 241.678C90.7261 241.678 91.2301 241.566 91.6541 241.342C92.0861 241.118 92.4181 240.79 92.6501 240.358C92.8821 239.918 92.9981 239.382 92.9981 238.75L93.6821 239.242H90.0821V238.21H94.1621V238.378C94.1621 239.346 93.9901 240.158 93.6461 240.814C93.3101 241.462 92.8381 241.95 92.2301 242.278C91.6301 242.606 90.9421 242.77 90.1661 242.77ZM98.0913 242.77C97.5313 242.77 97.0273 242.638 96.5793 242.374C96.1313 242.11 95.7753 241.754 95.5113 241.306C95.2473 240.85 95.1153 240.342 95.1153 239.782C95.1153 239.23 95.2473 238.734 95.5113 238.294C95.7753 237.846 96.1313 237.49 96.5793 237.226C97.0273 236.962 97.5313 236.83 98.0913 236.83C98.6433 236.83 99.1433 236.962 99.5913 237.226C100.047 237.482 100.407 237.834 100.671 238.282C100.935 238.73 101.067 239.23 101.067 239.782C101.067 240.342 100.935 240.85 100.671 241.306C100.407 241.754 100.047 242.11 99.5913 242.374C99.1433 242.638 98.6433 242.77 98.0913 242.77ZM98.0913 241.726C98.4513 241.726 98.7713 241.642 99.0513 241.474C99.3313 241.306 99.5513 241.078 99.7113 240.79C99.8713 240.494 99.9513 240.158 99.9513 239.782C99.9513 239.414 99.8673 239.086 99.6993 238.798C99.5393 238.51 99.3193 238.286 99.0393 238.126C98.7673 237.958 98.4513 237.874 98.0913 237.874C97.7313 237.874 97.4113 237.958 97.1313 238.126C96.8513 238.286 96.6313 238.51 96.4713 238.798C96.3113 239.086 96.2313 239.414 96.2313 239.782C96.2313 240.158 96.3113 240.494 96.4713 240.79C96.6313 241.078 96.8513 241.306 97.1313 241.474C97.4113 241.642 97.7313 241.726 98.0913 241.726ZM104.708 242.77C104.188 242.77 103.716 242.642 103.292 242.386C102.868 242.122 102.532 241.766 102.284 241.318C102.044 240.87 101.924 240.366 101.924 239.806C101.924 239.246 102.044 238.742 102.284 238.294C102.532 237.846 102.864 237.49 103.28 237.226C103.704 236.962 104.18 236.83 104.708 236.83C105.14 236.83 105.524 236.922 105.86 237.106C106.204 237.282 106.48 237.53 106.688 237.85C106.896 238.162 107.012 238.526 107.036 238.942V240.658C107.012 241.066 106.896 241.43 106.688 241.75C106.488 242.07 106.216 242.322 105.872 242.506C105.536 242.682 105.148 242.77 104.708 242.77ZM104.888 241.75C105.424 241.75 105.856 241.57 106.184 241.21C106.512 240.842 106.676 240.374 106.676 239.806C106.676 239.414 106.6 239.074 106.448 238.786C106.304 238.49 106.096 238.262 105.824 238.102C105.552 237.934 105.236 237.85 104.876 237.85C104.516 237.85 104.196 237.934 103.916 238.102C103.644 238.27 103.428 238.502 103.268 238.798C103.116 239.086 103.04 239.418 103.04 239.794C103.04 240.178 103.116 240.518 103.268 240.814C103.428 241.102 103.648 241.33 103.928 241.498C104.208 241.666 104.528 241.75 104.888 241.75ZM106.604 242.65V241.114L106.808 239.722L106.604 238.342V236.95H107.696V242.65H106.604ZM109.269 242.65V234.082H110.349V242.65H109.269Z" fill="#606060"/>
<path d="M123.405 212.147L120.741 209.231L123.381 206.447H124.689L121.749 209.519L121.797 208.895L124.797 212.147H123.405ZM119.757 212.147V203.579H120.837V212.147H119.757ZM127.769 214.655C127.185 214.655 126.665 214.547 126.209 214.331C125.761 214.115 125.401 213.811 125.129 213.419L125.825 212.711C126.057 213.007 126.333 213.231 126.653 213.383C126.973 213.543 127.353 213.623 127.793 213.623C128.377 213.623 128.837 213.467 129.173 213.155C129.517 212.851 129.689 212.439 129.689 211.919V210.503L129.881 209.219L129.689 207.947V206.447H130.769V211.919C130.769 212.463 130.641 212.939 130.385 213.347C130.137 213.755 129.785 214.075 129.329 214.307C128.881 214.539 128.361 214.655 127.769 214.655ZM127.769 212.051C127.249 212.051 126.781 211.927 126.365 211.679C125.957 211.431 125.633 211.091 125.393 210.659C125.153 210.219 125.033 209.727 125.033 209.183C125.033 208.639 125.153 208.155 125.393 207.731C125.633 207.299 125.957 206.959 126.365 206.711C126.781 206.455 127.249 206.327 127.769 206.327C128.217 206.327 128.613 206.415 128.957 206.591C129.301 206.767 129.573 207.015 129.773 207.335C129.981 207.647 130.093 208.015 130.109 208.439V209.951C130.085 210.367 129.969 210.735 129.761 211.055C129.561 211.367 129.289 211.611 128.945 211.787C128.601 211.963 128.209 212.051 127.769 212.051ZM127.985 211.031C128.337 211.031 128.645 210.955 128.909 210.803C129.181 210.651 129.389 210.439 129.533 210.167C129.677 209.887 129.749 209.563 129.749 209.195C129.749 208.827 129.673 208.507 129.521 208.235C129.377 207.955 129.173 207.739 128.909 207.587C128.645 207.427 128.333 207.347 127.973 207.347C127.613 207.347 127.297 207.427 127.025 207.587C126.753 207.739 126.537 207.955 126.377 208.235C126.225 208.507 126.149 208.823 126.149 209.183C126.149 209.543 126.225 209.863 126.377 210.143C126.537 210.423 126.753 210.643 127.025 210.803C127.305 210.955 127.625 211.031 127.985 211.031Z" fill="#606060"/>
<path d="M89.0751 181.982V182.792L73.8 216.679H72.4893L87.5976 183.269H66.913V181.982H89.0751ZM115.55 196.137V202.524C115.55 204.78 115.328 206.813 114.883 208.624C114.438 210.435 113.779 211.976 112.905 213.247C112.032 214.502 110.951 215.471 109.664 216.154C108.378 216.822 106.892 217.155 105.208 217.155C103.874 217.155 102.658 216.941 101.562 216.512C100.482 216.083 99.5207 215.455 98.6787 214.629C97.8367 213.787 97.1218 212.771 96.5339 211.579C95.962 210.388 95.5251 209.037 95.2233 207.528C94.9373 206.003 94.7943 204.335 94.7943 202.524V196.137C94.7943 193.865 95.0168 191.832 95.4616 190.037C95.9223 188.225 96.5896 186.684 97.4633 185.414C98.353 184.143 99.4412 183.173 100.728 182.506C102.015 181.823 103.492 181.482 105.16 181.482C106.495 181.482 107.71 181.704 108.806 182.149C109.903 182.578 110.872 183.205 111.714 184.031C112.556 184.857 113.255 185.874 113.811 187.082C114.383 188.273 114.812 189.631 115.098 191.157C115.399 192.666 115.55 194.326 115.55 196.137ZM114.264 202.476V196.137C114.264 194.548 114.144 193.071 113.906 191.705C113.668 190.323 113.31 189.083 112.834 187.987C112.357 186.891 111.753 185.954 111.023 185.175C110.292 184.397 109.434 183.801 108.449 183.388C107.48 182.975 106.384 182.768 105.16 182.768C103.635 182.768 102.301 183.094 101.157 183.745C100.013 184.381 99.0679 185.294 98.3212 186.486C97.5745 187.662 97.0106 189.067 96.6293 190.704C96.2639 192.34 96.0812 194.151 96.0812 196.137V202.476C96.0812 204.033 96.2003 205.494 96.4386 206.861C96.6769 208.227 97.0344 209.466 97.511 210.578C98.0035 211.674 98.6151 212.62 99.3459 213.414C100.077 214.192 100.927 214.796 101.896 215.225C102.881 215.654 103.985 215.868 105.208 215.868C106.749 215.868 108.084 215.543 109.212 214.891C110.355 214.224 111.301 213.295 112.047 212.103C112.794 210.912 113.35 209.498 113.716 207.862C114.081 206.225 114.264 204.43 114.264 202.476Z" fill="#606060"/>
<path d="M210.155 242.77C209.555 242.77 208.999 242.662 208.487 242.446C207.975 242.222 207.527 241.914 207.143 241.522C206.767 241.13 206.475 240.674 206.267 240.154C206.059 239.634 205.955 239.078 205.955 238.486C205.955 237.886 206.059 237.326 206.267 236.806C206.475 236.286 206.767 235.834 207.143 235.45C207.527 235.058 207.971 234.754 208.475 234.538C208.987 234.314 209.543 234.202 210.143 234.202C210.799 234.202 211.375 234.314 211.871 234.538C212.367 234.762 212.807 235.066 213.191 235.45L212.411 236.23C212.147 235.934 211.823 235.702 211.439 235.534C211.063 235.366 210.631 235.282 210.143 235.282C209.703 235.282 209.299 235.362 208.931 235.522C208.563 235.674 208.243 235.894 207.971 236.182C207.699 236.47 207.487 236.81 207.335 237.202C207.191 237.594 207.119 238.022 207.119 238.486C207.119 238.95 207.191 239.378 207.335 239.77C207.487 240.162 207.699 240.502 207.971 240.79C208.243 241.078 208.563 241.302 208.931 241.462C209.299 241.614 209.703 241.69 210.143 241.69C210.663 241.69 211.115 241.606 211.499 241.438C211.883 241.262 212.207 241.026 212.471 240.73L213.251 241.498C212.867 241.898 212.415 242.21 211.895 242.434C211.383 242.658 210.803 242.77 210.155 242.77ZM216.736 242.77C216.272 242.77 215.852 242.666 215.476 242.458C215.108 242.242 214.82 241.946 214.612 241.57C214.404 241.194 214.3 240.758 214.3 240.262V236.95H215.38V240.214C215.38 240.526 215.432 240.798 215.536 241.03C215.648 241.254 215.808 241.426 216.016 241.546C216.224 241.666 216.468 241.726 216.748 241.726C217.172 241.726 217.504 241.594 217.744 241.33C217.984 241.058 218.104 240.686 218.104 240.214V236.95H219.184V240.262C219.184 240.758 219.08 241.194 218.872 241.57C218.664 241.946 218.376 242.242 218.008 242.458C217.648 242.666 217.224 242.77 216.736 242.77ZM220.632 242.65V236.95H221.712V242.65H220.632ZM221.712 239.398L221.304 239.218C221.304 238.49 221.472 237.91 221.808 237.478C222.144 237.046 222.628 236.83 223.26 236.83C223.548 236.83 223.808 236.882 224.04 236.986C224.272 237.082 224.488 237.246 224.688 237.478L223.98 238.21C223.86 238.082 223.728 237.99 223.584 237.934C223.44 237.878 223.272 237.85 223.08 237.85C222.68 237.85 222.352 237.978 222.096 238.234C221.84 238.49 221.712 238.878 221.712 239.398ZM225.472 242.65V236.95H226.552V242.65H225.472ZM226.552 239.398L226.144 239.218C226.144 238.49 226.312 237.91 226.648 237.478C226.984 237.046 227.468 236.83 228.1 236.83C228.388 236.83 228.648 236.882 228.88 236.986C229.112 237.082 229.328 237.246 229.528 237.478L228.82 238.21C228.7 238.082 228.568 237.99 228.424 237.934C228.28 237.878 228.112 237.85 227.92 237.85C227.52 237.85 227.192 237.978 226.936 238.234C226.68 238.49 226.552 238.878 226.552 239.398ZM232.741 242.77C232.173 242.77 231.661 242.642 231.205 242.386C230.749 242.122 230.389 241.766 230.125 241.318C229.861 240.87 229.729 240.362 229.729 239.794C229.729 239.234 229.857 238.73 230.113 238.282C230.377 237.834 230.729 237.482 231.169 237.226C231.617 236.962 232.117 236.83 232.669 236.83C233.197 236.83 233.661 236.95 234.061 237.19C234.469 237.43 234.785 237.762 235.009 238.186C235.241 238.61 235.357 239.09 235.357 239.626C235.357 239.706 235.353 239.794 235.345 239.89C235.337 239.978 235.321 240.082 235.297 240.202H230.485V239.302H234.721L234.325 239.65C234.325 239.266 234.257 238.942 234.121 238.678C233.985 238.406 233.793 238.198 233.545 238.054C233.297 237.902 232.997 237.826 232.645 237.826C232.277 237.826 231.953 237.906 231.673 238.066C231.393 238.226 231.177 238.45 231.025 238.738C230.873 239.026 230.797 239.366 230.797 239.758C230.797 240.158 230.877 240.51 231.037 240.814C231.197 241.11 231.425 241.342 231.721 241.51C232.017 241.67 232.357 241.75 232.741 241.75C233.061 241.75 233.353 241.694 233.617 241.582C233.889 241.47 234.121 241.302 234.313 241.078L235.009 241.786C234.737 242.106 234.401 242.35 234.001 242.518C233.609 242.686 233.189 242.77 232.741 242.77ZM240.566 242.65V239.326C240.566 238.894 240.43 238.538 240.158 238.258C239.886 237.978 239.534 237.838 239.102 237.838C238.814 237.838 238.558 237.902 238.334 238.03C238.11 238.158 237.934 238.334 237.806 238.558C237.678 238.782 237.614 239.038 237.614 239.326L237.17 239.074C237.17 238.642 237.266 238.258 237.458 237.922C237.65 237.586 237.918 237.322 238.262 237.13C238.606 236.93 238.994 236.83 239.426 236.83C239.858 236.83 240.238 236.938 240.566 237.154C240.902 237.37 241.166 237.654 241.358 238.006C241.55 238.35 241.646 238.718 241.646 239.11V242.65H240.566ZM236.534 242.65V236.95H237.614V242.65H236.534ZM243.914 242.65V234.562H244.994V242.65H243.914ZM242.51 237.934V236.95H246.398V237.934H242.51Z" fill="#FF0000"/>
<path d="M243.381 212.147L240.717 209.231L243.357 206.447H244.665L241.725 209.519L241.773 208.895L244.773 212.147H243.381ZM239.733 212.147V203.579H240.813V212.147H239.733ZM247.746 214.655C247.162 214.655 246.642 214.547 246.186 214.331C245.738 214.115 245.378 213.811 245.106 213.419L245.802 212.711C246.034 213.007 246.31 213.231 246.63 213.383C246.95 213.543 247.33 213.623 247.77 213.623C248.354 213.623 248.814 213.467 249.15 213.155C249.494 212.851 249.666 212.439 249.666 211.919V210.503L249.858 209.219L249.666 207.947V206.447H250.746V211.919C250.746 212.463 250.618 212.939 250.362 213.347C250.114 213.755 249.762 214.075 249.306 214.307C248.858 214.539 248.338 214.655 247.746 214.655ZM247.746 212.051C247.226 212.051 246.758 211.927 246.342 211.679C245.934 211.431 245.61 211.091 245.37 210.659C245.13 210.219 245.01 209.727 245.01 209.183C245.01 208.639 245.13 208.155 245.37 207.731C245.61 207.299 245.934 206.959 246.342 206.711C246.758 206.455 247.226 206.327 247.746 206.327C248.194 206.327 248.59 206.415 248.934 206.591C249.278 206.767 249.55 207.015 249.75 207.335C249.958 207.647 250.07 208.015 250.086 208.439V209.951C250.062 210.367 249.946 210.735 249.738 211.055C249.538 211.367 249.266 211.611 248.922 211.787C248.578 211.963 248.186 212.051 247.746 212.051ZM247.962 211.031C248.314 211.031 248.622 210.955 248.886 210.803C249.158 210.651 249.366 210.439 249.51 210.167C249.654 209.887 249.726 209.563 249.726 209.195C249.726 208.827 249.65 208.507 249.498 208.235C249.354 207.955 249.15 207.739 248.886 207.587C248.622 207.427 248.31 207.347 247.95 207.347C247.59 207.347 247.274 207.427 247.002 207.587C246.73 207.739 246.514 207.955 246.354 208.235C246.202 208.507 246.126 208.823 246.126 209.183C246.126 209.543 246.202 209.863 246.354 210.143C246.514 210.423 246.73 210.643 247.002 210.803C247.282 210.955 247.602 211.031 247.962 211.031Z" fill="#FF0000"/>
<path d="M204.619 181.505H205.072V182.792H204.619C202.554 182.792 200.6 183.134 198.757 183.817C196.93 184.484 195.31 185.533 193.896 186.962C192.498 188.376 191.394 190.203 190.583 192.443C189.789 194.668 189.392 197.337 189.392 200.45V204.93C189.392 206.583 189.638 208.084 190.131 209.434C190.623 210.785 191.314 211.944 192.204 212.914C193.093 213.867 194.15 214.605 195.373 215.13C196.596 215.638 197.939 215.892 199.4 215.892C200.703 215.892 201.879 215.606 202.927 215.034C203.976 214.463 204.866 213.676 205.596 212.675C206.343 211.674 206.915 210.538 207.312 209.268C207.709 207.981 207.908 206.638 207.908 205.24C207.908 203.826 207.725 202.516 207.36 201.308C206.994 200.085 206.438 199.013 205.692 198.091C204.961 197.17 204.031 196.455 202.903 195.946C201.791 195.422 200.489 195.16 198.995 195.16C197.311 195.16 195.723 195.533 194.229 196.28C192.752 197.011 191.544 198.004 190.607 199.259C189.67 200.514 189.201 201.904 189.201 203.429L188.272 203.381C188.272 202.158 188.534 200.983 189.058 199.855C189.598 198.727 190.353 197.71 191.322 196.804C192.307 195.899 193.459 195.184 194.777 194.66C196.112 194.135 197.573 193.873 199.162 193.873C200.767 193.873 202.189 194.159 203.428 194.731C204.667 195.287 205.715 196.082 206.573 197.114C207.431 198.131 208.083 199.33 208.527 200.712C208.972 202.095 209.195 203.604 209.195 205.24C209.195 206.924 208.956 208.489 208.48 209.935C208.003 211.38 207.328 212.643 206.454 213.724C205.58 214.804 204.548 215.646 203.356 216.25C202.165 216.853 200.846 217.155 199.4 217.155C197.796 217.155 196.303 216.877 194.92 216.321C193.554 215.749 192.355 214.931 191.322 213.867C190.305 212.802 189.511 211.523 188.939 210.03C188.383 208.521 188.105 206.829 188.105 204.954V200.951C188.105 197.487 188.534 194.525 189.392 192.062C190.266 189.6 191.465 187.59 192.99 186.033C194.515 184.476 196.271 183.332 198.257 182.602C200.242 181.871 202.363 181.505 204.619 181.505ZM236.29 207.647C236.29 209.744 235.797 211.5 234.812 212.914C233.827 214.327 232.501 215.392 230.832 216.107C229.164 216.806 227.306 217.155 225.256 217.155C223.175 217.155 221.292 216.806 219.608 216.107C217.94 215.392 216.614 214.327 215.629 212.914C214.66 211.5 214.175 209.744 214.175 207.647C214.175 206.281 214.453 205.034 215.009 203.906C215.581 202.778 216.368 201.809 217.368 200.998C218.369 200.188 219.537 199.561 220.871 199.116C222.206 198.671 223.652 198.449 225.209 198.449C227.258 198.449 229.117 198.838 230.785 199.616C232.469 200.395 233.803 201.475 234.788 202.857C235.789 204.223 236.29 205.82 236.29 207.647ZM234.979 207.766C234.979 206.098 234.542 204.652 233.668 203.429C232.794 202.206 231.619 201.261 230.141 200.593C228.664 199.91 227.02 199.569 225.209 199.569C223.382 199.569 221.729 199.91 220.252 200.593C218.774 201.261 217.607 202.206 216.749 203.429C215.891 204.652 215.462 206.098 215.462 207.766C215.462 209.514 215.891 210.991 216.749 212.199C217.607 213.406 218.774 214.32 220.252 214.939C221.745 215.559 223.413 215.868 225.256 215.868C227.067 215.868 228.704 215.559 230.165 214.939C231.643 214.32 232.81 213.406 233.668 212.199C234.542 210.991 234.979 209.514 234.979 207.766ZM235.289 190.799C235.289 192.499 234.836 194 233.93 195.303C233.025 196.606 231.809 197.623 230.284 198.353C228.775 199.084 227.083 199.449 225.209 199.449C223.302 199.449 221.586 199.084 220.061 198.353C218.552 197.623 217.353 196.606 216.463 195.303C215.589 194 215.152 192.499 215.152 190.799C215.152 188.782 215.589 187.09 216.463 185.723C217.353 184.341 218.552 183.293 220.061 182.578C221.57 181.863 223.27 181.505 225.161 181.505C227.036 181.505 228.735 181.863 230.261 182.578C231.786 183.293 233.001 184.341 233.907 185.723C234.828 187.09 235.289 188.782 235.289 190.799ZM234.002 190.68C234.002 189.139 233.605 187.781 232.81 186.605C232.016 185.414 230.952 184.484 229.617 183.817C228.283 183.134 226.797 182.792 225.161 182.792C223.509 182.792 222.023 183.11 220.705 183.745C219.386 184.381 218.345 185.286 217.583 186.462C216.82 187.638 216.439 189.044 216.439 190.68C216.439 192.253 216.82 193.611 217.583 194.755C218.345 195.883 219.386 196.757 220.705 197.376C222.039 197.98 223.54 198.282 225.209 198.282C226.845 198.282 228.322 197.98 229.641 197.376C230.975 196.757 232.032 195.883 232.81 194.755C233.605 193.611 234.002 192.253 234.002 190.68Z" fill="#FF0000"/>
<path d="M326.351 242.65V234.322H327.479V242.65H326.351ZM333.285 242.65V239.326C333.285 238.894 333.149 238.538 332.877 238.258C332.605 237.978 332.253 237.838 331.821 237.838C331.533 237.838 331.277 237.902 331.053 238.03C330.829 238.158 330.653 238.334 330.525 238.558C330.397 238.782 330.333 239.038 330.333 239.326L329.889 239.074C329.889 238.642 329.985 238.258 330.177 237.922C330.369 237.586 330.637 237.322 330.981 237.13C331.325 236.93 331.713 236.83 332.145 236.83C332.577 236.83 332.957 236.938 333.285 237.154C333.621 237.37 333.885 237.654 334.077 238.006C334.269 238.35 334.365 238.718 334.365 239.11V242.65H333.285ZM329.253 242.65V236.95H330.333V242.65H329.253ZM335.839 242.65V236.95H336.919V242.65H335.839ZM336.379 235.81C336.179 235.81 336.015 235.746 335.887 235.618C335.759 235.482 335.695 235.314 335.695 235.114C335.695 234.922 335.759 234.762 335.887 234.634C336.015 234.498 336.179 234.43 336.379 234.43C336.579 234.43 336.743 234.498 336.871 234.634C336.999 234.762 337.063 234.922 337.063 235.114C337.063 235.314 336.999 235.482 336.871 235.618C336.743 235.746 336.579 235.81 336.379 235.81ZM339.387 242.65V234.562H340.467V242.65H339.387ZM337.983 237.934V236.95H341.871V237.934H337.983ZM342.941 242.65V236.95H344.021V242.65H342.941ZM343.481 235.81C343.281 235.81 343.117 235.746 342.989 235.618C342.861 235.482 342.797 235.314 342.797 235.114C342.797 234.922 342.861 234.762 342.989 234.634C343.117 234.498 343.281 234.43 343.481 234.43C343.681 234.43 343.845 234.498 343.973 234.634C344.101 234.762 344.165 234.922 344.165 235.114C344.165 235.314 344.101 235.482 343.973 235.618C343.845 235.746 343.681 235.81 343.481 235.81ZM348.036 242.77C347.516 242.77 347.044 242.642 346.62 242.386C346.196 242.122 345.86 241.766 345.612 241.318C345.372 240.87 345.252 240.366 345.252 239.806C345.252 239.246 345.372 238.742 345.612 238.294C345.86 237.846 346.192 237.49 346.608 237.226C347.032 236.962 347.508 236.83 348.036 236.83C348.468 236.83 348.852 236.922 349.188 237.106C349.532 237.282 349.808 237.53 350.016 237.85C350.224 238.162 350.34 238.526 350.364 238.942V240.658C350.34 241.066 350.224 241.43 350.016 241.75C349.816 242.07 349.544 242.322 349.2 242.506C348.864 242.682 348.476 242.77 348.036 242.77ZM348.216 241.75C348.752 241.75 349.184 241.57 349.512 241.21C349.84 240.842 350.004 240.374 350.004 239.806C350.004 239.414 349.928 239.074 349.776 238.786C349.632 238.49 349.424 238.262 349.152 238.102C348.88 237.934 348.564 237.85 348.204 237.85C347.844 237.85 347.524 237.934 347.244 238.102C346.972 238.27 346.756 238.502 346.596 238.798C346.444 239.086 346.368 239.418 346.368 239.794C346.368 240.178 346.444 240.518 346.596 240.814C346.756 241.102 346.976 241.33 347.256 241.498C347.536 241.666 347.856 241.75 348.216 241.75ZM349.932 242.65V241.114L350.136 239.722L349.932 238.342V236.95H351.024V242.65H349.932ZM352.597 242.65V234.082H353.677V242.65H352.597Z" fill="#EC7807"/>
<path d="M363.358 212.147L360.694 209.231L363.334 206.447H364.642L361.702 209.519L361.75 208.895L364.75 212.147H363.358ZM359.71 212.147V203.579H360.79V212.147H359.71ZM367.722 214.655C367.138 214.655 366.618 214.547 366.162 214.331C365.714 214.115 365.354 213.811 365.082 213.419L365.778 212.711C366.01 213.007 366.286 213.231 366.606 213.383C366.926 213.543 367.306 213.623 367.746 213.623C368.33 213.623 368.79 213.467 369.126 213.155C369.47 212.851 369.642 212.439 369.642 211.919V210.503L369.834 209.219L369.642 207.947V206.447H370.722V211.919C370.722 212.463 370.594 212.939 370.338 213.347C370.09 213.755 369.738 214.075 369.282 214.307C368.834 214.539 368.314 214.655 367.722 214.655ZM367.722 212.051C367.202 212.051 366.734 211.927 366.318 211.679C365.91 211.431 365.586 211.091 365.346 210.659C365.106 210.219 364.986 209.727 364.986 209.183C364.986 208.639 365.106 208.155 365.346 207.731C365.586 207.299 365.91 206.959 366.318 206.711C366.734 206.455 367.202 206.327 367.722 206.327C368.17 206.327 368.566 206.415 368.91 206.591C369.254 206.767 369.526 207.015 369.726 207.335C369.934 207.647 370.046 208.015 370.062 208.439V209.951C370.038 210.367 369.922 210.735 369.714 211.055C369.514 211.367 369.242 211.611 368.898 211.787C368.554 211.963 368.162 212.051 367.722 212.051ZM367.938 211.031C368.29 211.031 368.598 210.955 368.862 210.803C369.134 210.651 369.342 210.439 369.486 210.167C369.63 209.887 369.702 209.563 369.702 209.195C369.702 208.827 369.626 208.507 369.474 208.235C369.33 207.955 369.126 207.739 368.862 207.587C368.598 207.427 368.286 207.347 367.926 207.347C367.566 207.347 367.25 207.427 366.978 207.587C366.706 207.739 366.49 207.955 366.33 208.235C366.178 208.507 366.102 208.823 366.102 209.183C366.102 209.543 366.178 209.863 366.33 210.143C366.49 210.423 366.706 210.643 366.978 210.803C367.258 210.955 367.578 211.031 367.938 211.031Z" fill="#EC7807"/>
<path d="M329.028 181.982V182.792L313.753 216.679H312.442L327.551 183.269H306.866V181.982H329.028ZM338.251 198.901L337.273 198.52L338.894 181.982H355.813V183.245H340.062L338.656 197.162C339.228 196.669 340.173 196.161 341.491 195.637C342.826 195.112 344.303 194.85 345.924 194.85C347.417 194.85 348.783 195.097 350.023 195.589C351.278 196.066 352.366 196.773 353.287 197.71C354.209 198.631 354.916 199.759 355.408 201.094C355.917 202.412 356.171 203.922 356.171 205.622C356.171 207.29 355.988 208.823 355.623 210.221C355.257 211.619 354.685 212.842 353.907 213.891C353.128 214.923 352.12 215.726 350.88 216.297C349.641 216.869 348.148 217.155 346.4 217.155C345.05 217.155 343.779 216.965 342.588 216.583C341.396 216.186 340.34 215.59 339.418 214.796C338.497 214.002 337.742 213.001 337.154 211.794C336.582 210.586 336.233 209.172 336.106 207.552H337.416C337.591 209.347 338.044 210.864 338.775 212.103C339.521 213.342 340.53 214.28 341.801 214.915C343.088 215.551 344.621 215.868 346.4 215.868C347.83 215.868 349.069 215.654 350.118 215.225C351.182 214.78 352.064 214.129 352.763 213.271C353.462 212.413 353.986 211.349 354.336 210.078C354.685 208.807 354.86 207.337 354.86 205.669C354.86 204.303 354.662 203.048 354.264 201.904C353.883 200.744 353.311 199.735 352.549 198.878C351.802 198.004 350.873 197.329 349.76 196.852C348.648 196.375 347.377 196.137 345.948 196.137C344.121 196.137 342.603 196.391 341.396 196.9C340.205 197.392 339.156 198.059 338.251 198.901Z" fill="#EC7807"/>
</svg>
